<svg xmlns="http://www.w3.org/2000/svg" width="1600" height="6646.857" viewBox="85.294 0 1600 6646.857"><path fill="#D94A54" d="M41.485 2582.102h1710.703V6489.67H41.485V2582.102z"/><path fill="#FF9563" d="M36.527 4435.93h1710.908v1941.13H36.527z"/><path fill="none" stroke="#3C7F7C" stroke-width="10" stroke-linecap="round" stroke-linejoin="round" stroke-miterlimit="10" d="M727.23 5797.87h60.62m-32.415-8h50.938"/><path fill="#A01D36" d="M91.814 5959.85l226.06-265.48 155.08 217.49 142.98-217.49 33.44 61.5 67.92-95.99 63.65 212.99 65.3-36 52.56 122.987v386.98H90.043l1.77-386.99v.003z"/><path fill="#841933" d="M317.874 5694.37l-66.85 337.24-100.408-140.815 167.258-196.425zm298.06 0l-143.62 216.594v178.795l143.62-395.39zm101.36-34.49l-67.92 95.99 33.96 63.89 33.96-159.88z"/><path fill="none" stroke="#6FF2FF" stroke-width="30" stroke-linecap="round" stroke-linejoin="round" stroke-miterlimit="10" d="M155.154 5808.12h215.99m-115.5-28.5h181.49"/><path fill="none" stroke="#54B5B2" stroke-width="20" stroke-linecap="round" stroke-linejoin="round" stroke-miterlimit="10" d="M122.937 5692.302h119.807m-64.067-15.81h100.67"/><path fill="none" stroke="#449391" stroke-width="16" stroke-linecap="round" stroke-linejoin="round" stroke-miterlimit="10" d="M476.654 5748.23h104.832m-56.058-13.834h88.088"/><path fill="none" stroke="#449391" stroke-width="6" stroke-linecap="round" stroke-linejoin="round" stroke-miterlimit="10" d="M445.93 5702.88h37.814m-20.222-4.99h31.77"/><path fill="none" stroke="#5CCCCC" stroke-width="30" stroke-linecap="round" stroke-linejoin="round" stroke-miterlimit="10" d="M404.09 5959.53h215.99m-115.49-28.5h181.49"/><path fill="#BF2138" d="M895.654 5814.12l-221.21 259.8-50.146-117.313-65.3 36-63.65-212.99-67.92 96-33.438-61.5-142.97 217.49-155.076-217.49-10.65 12.513v639.96h821.54V5829.8l-11.18-15.68z"/><path fill="#8C1C3A" d="M895.654 5814.12l-221.21 259.8 22.35 42.84 198.86-302.64zm-400.3-34.5l-67.917 96 41.36 55.41 26.557-151.41zm-244.33 251.99l23.77 33.147 119.2-250.645-142.97 217.49v.007zm307.98-39l16.79 43.147 48.51-79.148-65.3 36z"/><path fill="none" stroke="#3C7F7C" stroke-width="10" stroke-linecap="round" stroke-linejoin="round" stroke-miterlimit="10" d="M1527.23 5797.87h60.62m-32.415-8h50.938"/><path fill="#A01D36" d="M891.814 5959.85l226.06-265.48 155.08 217.49 142.98-217.49 33.44 61.5 67.92-95.99 63.65 212.99 65.3-36 52.56 122.987v386.98h-808.76l1.77-386.99v.003z"/><path fill="#841933" d="M1117.874 5694.37l-66.85 337.24-100.41-140.815 167.26-196.425zm298.06 0l-143.62 216.594v178.795l143.62-395.39zm101.36-34.49l-67.92 95.99 33.96 63.89 33.96-159.88z"/><path fill="none" stroke="#6FF2FF" stroke-width="30" stroke-linecap="round" stroke-linejoin="round" stroke-miterlimit="10" d="M955.154 5808.12h215.99m-115.5-28.5h181.49"/><path fill="none" stroke="#54B5B2" stroke-width="20" stroke-linecap="round" stroke-linejoin="round" stroke-miterlimit="10" d="M922.938 5692.302h119.807m-64.068-15.81h100.67"/><path fill="none" stroke="#449391" stroke-width="6" stroke-linecap="round" stroke-linejoin="round" stroke-miterlimit="10" d="M1245.93 5702.88h37.814m-20.222-4.99h31.77"/><path fill="#BF2138" d="M1695.654 5814.12l-221.21 259.8-50.146-117.313-65.3 36-63.65-212.99-67.92 96-33.438-61.5-142.97 217.49-155.077-217.49-10.65 12.513v639.96h821.54V5829.8l-11.18-15.68z"/><path fill="#8C1C3A" d="M1695.654 5814.12l-221.21 259.8 22.35 42.84 198.86-302.64zm-400.3-34.5l-67.917 96 41.36 55.41 26.557-151.41zm-244.33 251.99l23.77 33.147 119.2-250.645-142.97 217.49v.007zm307.98-39l16.79 43.147 48.51-79.148-65.3 36z"/><path fill="#FF8363" d="M38.44 6298.11H1749.14v348.747H38.44v-348.75.002z"/><path fill="#D86B59" d="M35.226 6407.83h1713.916v245.27H35.226v-245.27z"/><path fill="#00080F" d="M-9-10.938h1754.074v2662.19H-9z"/><linearGradient id="a" gradientUnits="userSpaceOnUse" x1="564.852" y1="-1367.929" x2="564.851" y2="-2135.929" gradientTransform="translate(328 6115.857)"><stop offset="0" stop-color="#A4AEDA"/><stop offset=".283" stop-color="#BEBBC0"/><stop offset="1" stop-color="#FBDB83"/></linearGradient><path fill="url(#a)" d="M40.63 3979.93h1704.444v768H40.63z"/><path fill="#702042" d="M-42.673 1915.633V2200.8l1865.267-60.582v-215.905"/><path fill="#922A4C" d="M-42.673 2199.8v241.11l1865.267 38.68v-340.372"/><path fill="#B1334E" d="M-51.636 2435.768v308.337l1865.27-51.944v-217.714"/><path fill="#642241" d="M-42.673 1917.633v-193.798l1865.267-47.314v249.794"/><path fill="#4B1333" d="M-42.673 1724.555V1429.76l1865.267 18.66v228.822"/><g fill="#CAEAE9"><ellipse cx="649.691" cy="736.468" rx="3.809" ry="3.345"/><ellipse cx="128.087" cy="20.632" rx="2.9" ry="2.547"/><ellipse cx="299.771" cy="-29.846" rx="2.446" ry="2.147"/><ellipse cx="-23.818" cy="84.482" rx="2.616" ry="2.298"/><ellipse cx="-34.052" cy="-45.6" rx="3.809" ry="3.346"/><ellipse cx="75.559" cy="43.899" rx="2.899" ry="2.547"/><ellipse cx="392.324" cy="-.986" rx="2.443" ry="2.147"/><ellipse cx="283.227" cy="431.074" rx="2.901" ry="2.546"/><ellipse cx="424.215" cy="68.964" rx="2.447" ry="2.147"/><ellipse cx="302.672" cy="649.215" rx="3.809" ry="3.346"/><ellipse cx="377.713" cy="61.974" rx="2.445" ry="2.147"/><ellipse cx="426.773" cy="129.379" rx="2.447" ry="2.147"/><ellipse cx="397.213" cy="814.468" rx="3.809" ry="3.346"/><ellipse cx="389.537" cy="97.624" rx="2.9" ry="2.546"/><ellipse cx="231.326" cy="145.305" rx="2.444" ry="2.147"/><ellipse cx="484.6" cy="494.186" rx="2.9" ry="2.546"/><ellipse cx="487.5" cy="227.989" rx="2.444" ry="2.147"/><ellipse cx="341.443" cy="47.345" rx="2.898" ry="2.547"/><ellipse cx="394.768" cy="36.81" rx="2.443" ry="2.146"/><ellipse cx="613.12" cy="462.331" rx="2.899" ry="2.547"/><ellipse cx="260.659" cy="90.384" rx="2.444" ry="2.147"/><ellipse cx="609.311" cy="227.989" rx="3.811" ry="3.345"/><ellipse cx="8.135" cy="97.624" rx="2.899" ry="2.546"/><ellipse cx="415.176" cy="-28.547" rx="2.9" ry="2.547"/><ellipse cx="267.88" cy="236.576" rx="2.444" ry="2.147"/><ellipse cx="521.5" cy="365.893" rx="2.898" ry="2.547"/><ellipse cx="215.805" cy="516.403" rx="2.899" ry="2.547"/><ellipse cx="52.478" cy="224.344" rx="2.445" ry="2.147"/><ellipse cx="286.128" cy="180.506" rx="2.901" ry="2.547"/><ellipse cx="-36.497" cy="243.766" rx="2.444" ry="2.147"/><ellipse cx="371.061" cy="183.052" rx="2.9" ry="2.547"/><ellipse cx=".29" cy="176.612" rx="2.445" ry="2.147"/><ellipse cx="118.309" cy="120.241" rx="2.899" ry="2.546"/><path d="M170.742-55.88c3.065.684 3.065 4.176 1.36 5.177-2.272 1-3.98-1.498-4.583-3.6.167-1.318 1.654-1.987 3.222-1.577z"/><ellipse cx="236.1" cy="870.468" rx="3.809" ry="3.346"/><ellipse cx="84.711" cy="165.127" rx="2.9" ry="2.547"/><ellipse cx="528.207" cy="599.285" rx="2.445" ry="2.147"/><ellipse cx="-34.052" cy="925.123" rx="3.809" ry="3.345"/><ellipse cx="135.25" cy="300.286" rx="2.899" ry="2.546"/><ellipse cx="14.389" cy="251.005" rx="2.444" ry="2.147"/><ellipse cx="565.5" cy="86.78" rx="3.809" ry="3.345"/><ellipse cx="306.812" cy="1128.685" rx="2.899" ry="2.546"/><path d="M120.287 206.483c1.273-.024 2.536 1.002 2.696 2.25.158 1.25-.882 2.228-2.23 2.228-1.347 0-2.444-.955-2.523-2.18-.085-1.217.78-2.27 2.057-2.297z"/><ellipse cx="-30.244" cy="478.357" rx="3.809" ry="3.345"/><ellipse cx="487.5" cy="147.453" rx="2.898" ry="2.547"/><ellipse cx="299.771" cy="269.23" rx="2.446" ry="2.146"/><ellipse cx="2.734" cy="680.221" rx="3.81" ry="3.345"/><ellipse cx="61.176" cy="457.237" rx="2.899" ry="2.547"/><ellipse cx="415.176" cy="581.561" rx="3.809" ry="3.345"/><ellipse cx="14.389" cy="341.776" rx="2.617" ry="2.298"/><ellipse cx="128.087" cy="821.158" rx="3.81" ry="3.346"/><ellipse cx="616.02" cy="334.961" rx="2.899" ry="2.547"/><ellipse cx="618.919" cy="1068.468" rx="3.809" ry="3.345"/><ellipse cx="392.324" cy="298.089" rx="2.443" ry="2.147"/><ellipse cx="424.215" cy="368.04" rx="2.447" ry="2.147"/><ellipse cx="142.016" cy="519.749" rx="3.809" ry="3.346"/><ellipse cx="377.713" cy="361.05" rx="2.445" ry="2.147"/><ellipse cx="583.5" cy="925.123" rx="3.809" ry="3.345"/><ellipse cx="173.283" cy="720.359" rx="2.898" ry="2.547"/><ellipse cx="148.27" cy="1024.468" rx="2.445" ry="2.147"/><ellipse cx="29.056" cy="555.399" rx="3.809" ry="3.346"/><ellipse cx="368.161" cy="928.468" rx="2.899" ry="2.547"/><ellipse cx="132.408" cy="391.106" rx="2.445" ry="2.147"/><ellipse cx="138.206" cy="620.606" rx="3.81" ry="3.346"/><ellipse cx="215.805" cy="388.561" rx="2.899" ry="2.547"/><ellipse cx="-26.436" cy="1179.212" rx="3.81" ry="3.345"/><ellipse cx="518.6" cy="873.813" rx="2.444" ry="2.147"/><ellipse cx="415.176" cy="270.528" rx="2.9" ry="2.547"/><ellipse cx="541.691" cy="714.468" rx="3.809" ry="3.345"/><ellipse cx="444.399" cy="1086.468" rx="2.899" ry="2.547"/><ellipse cx="167.938" cy="90.384" rx="2.444" ry="2.147"/><g><ellipse cx="636.691" cy="968.468" rx="3.809" ry="3.345"/><ellipse cx="115.087" cy="252.632" rx="2.9" ry="2.547"/><ellipse cx="286.771" cy="202.154" rx="2.446" ry="2.147"/><ellipse cx="-36.818" cy="316.482" rx="2.616" ry="2.298"/><ellipse cx="-47.052" cy="186.4" rx="3.809" ry="3.346"/><ellipse cx="62.559" cy="275.899" rx="2.899" ry="2.547"/><ellipse cx="379.324" cy="231.014" rx="2.443" ry="2.147"/><ellipse cx="270.227" cy="663.074" rx="2.901" ry="2.546"/><ellipse cx="411.215" cy="300.964" rx="2.447" ry="2.147"/><ellipse cx="289.672" cy="881.215" rx="3.809" ry="3.346"/><ellipse cx="364.713" cy="293.974" rx="2.445" ry="2.147"/><ellipse cx="413.773" cy="361.379" rx="2.447" ry="2.147"/><ellipse cx="384.213" cy="1046.468" rx="3.809" ry="3.346"/><ellipse cx="376.537" cy="329.624" rx="2.9" ry="2.546"/><ellipse cx="218.326" cy="377.305" rx="2.444" ry="2.147"/><ellipse cx="471.6" cy="726.186" rx="2.9" ry="2.546"/><ellipse cx="474.5" cy="459.989" rx="2.444" ry="2.147"/><ellipse cx="328.443" cy="279.345" rx="2.898" ry="2.547"/><ellipse cx="381.768" cy="268.81" rx="2.443" ry="2.146"/><ellipse cx="600.12" cy="694.331" rx="2.899" ry="2.547"/><ellipse cx="247.659" cy="322.384" rx="2.444" ry="2.147"/><ellipse cx="596.311" cy="459.989" rx="3.811" ry="3.345"/><ellipse cx="-4.865" cy="329.624" rx="2.899" ry="2.546"/><ellipse cx="402.176" cy="203.453" rx="2.9" ry="2.547"/><ellipse cx="254.88" cy="468.576" rx="2.444" ry="2.147"/><ellipse cx="508.5" cy="597.893" rx="2.898" ry="2.547"/><ellipse cx="202.805" cy="748.403" rx="2.899" ry="2.547"/><ellipse cx="39.478" cy="456.344" rx="2.445" ry="2.147"/><ellipse cx="273.128" cy="412.506" rx="2.901" ry="2.547"/><ellipse cx="-49.497" cy="475.766" rx="2.444" ry="2.147"/><ellipse cx="358.061" cy="415.052" rx="2.9" ry="2.547"/><ellipse cx="-12.71" cy="408.612" rx="2.445" ry="2.147"/><ellipse cx="105.309" cy="352.241" rx="2.899" ry="2.546"/><path d="M157.742 176.12c3.065.684 3.065 4.176 1.36 5.177-2.272 1-3.98-1.498-4.583-3.6.167-1.318 1.654-1.987 3.222-1.577z"/><ellipse cx="223.1" cy="1102.468" rx="3.809" ry="3.346"/><ellipse cx="71.711" cy="397.127" rx="2.9" ry="2.547"/><ellipse cx="515.207" cy="831.285" rx="2.445" ry="2.147"/><ellipse cx="-47.052" cy="1157.123" rx="3.809" ry="3.345"/><ellipse cx="122.25" cy="532.286" rx="2.899" ry="2.546"/><ellipse cx="1.389" cy="483.005" rx="2.444" ry="2.147"/><ellipse cx="552.5" cy="318.78" rx="3.809" ry="3.345"/><ellipse cx="293.812" cy="1360.685" rx="2.899" ry="2.546"/><path d="M107.287 438.483c1.273-.024 2.536 1.002 2.696 2.25.158 1.25-.882 2.228-2.23 2.228-1.347 0-2.444-.955-2.523-2.18-.085-1.217.78-2.27 2.057-2.297z"/><ellipse cx="-43.244" cy="710.357" rx="3.809" ry="3.345"/><ellipse cx="474.5" cy="379.453" rx="2.898" ry="2.547"/><ellipse cx="286.771" cy="501.23" rx="2.446" ry="2.146"/><ellipse cx="-10.266" cy="912.221" rx="3.81" ry="3.345"/><ellipse cx="48.176" cy="689.237" rx="2.899" ry="2.547"/><ellipse cx="402.176" cy="813.561" rx="3.809" ry="3.345"/><ellipse cx="1.389" cy="573.776" rx="2.617" ry="2.298"/><ellipse cx="115.087" cy="1053.158" rx="3.81" ry="3.346"/><ellipse cx="603.02" cy="566.961" rx="2.899" ry="2.547"/><ellipse cx="605.919" cy="1300.468" rx="3.809" ry="3.345"/><ellipse cx="379.324" cy="530.089" rx="2.443" ry="2.147"/><ellipse cx="411.215" cy="600.04" rx="2.447" ry="2.147"/><ellipse cx="129.016" cy="751.749" rx="3.809" ry="3.346"/><ellipse cx="364.713" cy="593.05" rx="2.445" ry="2.147"/><ellipse cx="570.5" cy="1157.123" rx="3.809" ry="3.345"/><ellipse cx="160.283" cy="952.359" rx="2.898" ry="2.547"/><ellipse cx="135.27" cy="1256.468" rx="2.445" ry="2.147"/><ellipse cx="16.056" cy="787.399" rx="3.809" ry="3.346"/><ellipse cx="355.161" cy="1160.468" rx="2.899" ry="2.547"/><ellipse cx="119.408" cy="623.106" rx="2.445" ry="2.147"/><ellipse cx="125.206" cy="852.606" rx="3.81" ry="3.346"/><ellipse cx="202.805" cy="620.561" rx="2.899" ry="2.547"/><ellipse cx="-39.436" cy="1411.212" rx="3.81" ry="3.345"/><ellipse cx="505.6" cy="1105.813" rx="2.444" ry="2.147"/><ellipse cx="402.176" cy="502.528" rx="2.9" ry="2.547"/><ellipse cx="528.691" cy="946.468" rx="3.809" ry="3.345"/><ellipse cx="431.399" cy="1318.468" rx="2.899" ry="2.547"/><ellipse cx="154.938" cy="322.384" rx="2.444" ry="2.147"/></g></g><g fill="#CAEAE9"><ellipse cx="749.684" cy="2038.067" rx="3.809" ry="3.345"/><ellipse cx="228.08" cy="1322.232" rx="2.9" ry="2.547"/><ellipse cx="399.764" cy="1271.754" rx="2.447" ry="2.147"/><ellipse cx="76.174" cy="1386.082" rx="2.616" ry="2.298"/><ellipse cx="65.94" cy="1256" rx="3.809" ry="3.346"/><ellipse cx="175.551" cy="1345.499" rx="2.899" ry="2.547"/><ellipse cx="492.316" cy="1300.614" rx="2.443" ry="2.147"/><ellipse cx="383.219" cy="1732.674" rx="2.901" ry="2.546"/><ellipse cx="524.207" cy="1370.563" rx="2.447" ry="2.147"/><ellipse cx="402.664" cy="1950.814" rx="3.809" ry="3.346"/><ellipse cx="477.705" cy="1363.573" rx="2.445" ry="2.147"/><ellipse cx="526.766" cy="1430.979" rx="2.447" ry="2.147"/><ellipse cx="497.205" cy="2116.067" rx="3.809" ry="3.346"/><ellipse cx="489.529" cy="1399.224" rx="2.9" ry="2.546"/><ellipse cx="331.319" cy="1446.905" rx="2.444" ry="2.147"/><ellipse cx="584.592" cy="1795.785" rx="2.9" ry="2.546"/><ellipse cx="587.492" cy="1529.588" rx="2.445" ry="2.147"/><ellipse cx="441.436" cy="1348.945" rx="2.898" ry="2.547"/><ellipse cx="494.76" cy="1338.41" rx="2.443" ry="2.146"/><ellipse cx="713.113" cy="1763.93" rx="2.898" ry="2.547"/><ellipse cx="360.652" cy="1391.983" rx="2.444" ry="2.147"/><ellipse cx="709.303" cy="1529.588" rx="3.811" ry="3.345"/><ellipse cx="108.128" cy="1399.224" rx="2.899" ry="2.546"/><ellipse cx="515.168" cy="1273.052" rx="2.9" ry="2.547"/><ellipse cx="367.873" cy="1538.176" rx="2.444" ry="2.147"/><ellipse cx="621.492" cy="1667.493" rx="2.898" ry="2.547"/><ellipse cx="315.797" cy="1818.003" rx="2.899" ry="2.547"/><ellipse cx="152.47" cy="1525.943" rx="2.445" ry="2.147"/><ellipse cx="386.121" cy="1482.106" rx="2.901" ry="2.547"/><ellipse cx="63.496" cy="1545.366" rx="2.444" ry="2.147"/><ellipse cx="471.053" cy="1484.652" rx="2.9" ry="2.547"/><ellipse cx="100.283" cy="1478.211" rx="2.445" ry="2.147"/><ellipse cx="218.301" cy="1421.841" rx="2.899" ry="2.546"/><path d="M270.734 1245.72c3.065.683 3.065 4.175 1.36 5.176-2.272 1-3.98-1.498-4.583-3.6.17-1.317 1.657-1.986 3.224-1.577z"/><ellipse cx="336.093" cy="2172.067" rx="3.809" ry="3.346"/><ellipse cx="184.704" cy="1466.727" rx="2.9" ry="2.547"/><ellipse cx="628.199" cy="1900.885" rx="2.445" ry="2.147"/><ellipse cx="65.94" cy="2226.722" rx="3.809" ry="3.345"/><ellipse cx="235.243" cy="1601.885" rx="2.899" ry="2.546"/><ellipse cx="114.381" cy="1552.605" rx="2.444" ry="2.147"/><ellipse cx="665.492" cy="1388.379" rx="3.809" ry="3.345"/><ellipse cx="406.805" cy="2430.285" rx="2.898" ry="2.546"/><path d="M220.28 1508.083c1.273-.024 2.536 1.002 2.696 2.25.158 1.25-.882 2.228-2.23 2.228-1.347 0-2.444-.955-2.523-2.18-.086-1.217.778-2.27 2.057-2.297z"/><ellipse cx="69.749" cy="1779.957" rx="3.809" ry="3.345"/><ellipse cx="587.492" cy="1449.052" rx="2.898" ry="2.547"/><ellipse cx="399.764" cy="1570.83" rx="2.447" ry="2.146"/><ellipse cx="102.727" cy="1981.821" rx="3.81" ry="3.345"/><ellipse cx="161.168" cy="1758.837" rx="2.899" ry="2.547"/><ellipse cx="515.168" cy="1883.16" rx="3.809" ry="3.345"/><ellipse cx="114.381" cy="1643.376" rx="2.617" ry="2.298"/><ellipse cx="228.08" cy="2122.758" rx="3.81" ry="3.346"/><ellipse cx="716.012" cy="1636.561" rx="2.9" ry="2.547"/><ellipse cx="718.912" cy="2370.067" rx="3.809" ry="3.345"/><ellipse cx="492.316" cy="1599.688" rx="2.443" ry="2.147"/><ellipse cx="524.207" cy="1669.639" rx="2.447" ry="2.147"/><ellipse cx="242.008" cy="1821.348" rx="3.809" ry="3.346"/><ellipse cx="477.705" cy="1662.649" rx="2.445" ry="2.147"/><ellipse cx="683.492" cy="2226.722" rx="3.809" ry="3.345"/><ellipse cx="273.276" cy="2021.959" rx="2.898" ry="2.547"/><ellipse cx="248.262" cy="2326.067" rx="2.445" ry="2.147"/><ellipse cx="129.048" cy="1856.999" rx="3.809" ry="3.346"/><ellipse cx="468.154" cy="2230.068" rx="2.898" ry="2.547"/><ellipse cx="232.401" cy="1692.706" rx="2.445" ry="2.147"/><ellipse cx="238.199" cy="1922.206" rx="3.81" ry="3.346"/><ellipse cx="315.798" cy="1690.16" rx="2.899" ry="2.547"/><ellipse cx="73.557" cy="2480.812" rx="3.81" ry="3.345"/><ellipse cx="618.592" cy="2175.413" rx="2.445" ry="2.147"/><ellipse cx="515.168" cy="1572.127" rx="2.9" ry="2.547"/><ellipse cx="641.684" cy="2016.067" rx="3.809" ry="3.345"/><ellipse cx="544.393" cy="2388.068" rx="2.898" ry="2.547"/><ellipse cx="267.931" cy="1391.983" rx="2.444" ry="2.147"/><g><ellipse cx="736.684" cy="2270.067" rx="3.809" ry="3.345"/><ellipse cx="215.08" cy="1554.232" rx="2.9" ry="2.547"/><ellipse cx="386.764" cy="1503.754" rx="2.446" ry="2.147"/><ellipse cx="63.174" cy="1618.082" rx="2.616" ry="2.298"/><ellipse cx="52.94" cy="1488" rx="3.809" ry="3.346"/><ellipse cx="162.551" cy="1577.499" rx="2.899" ry="2.547"/><ellipse cx="479.316" cy="1532.614" rx="2.443" ry="2.147"/><ellipse cx="370.219" cy="1964.674" rx="2.901" ry="2.546"/><ellipse cx="511.207" cy="1602.563" rx="2.447" ry="2.147"/><ellipse cx="389.665" cy="2182.814" rx="3.809" ry="3.346"/><ellipse cx="464.705" cy="1595.573" rx="2.445" ry="2.147"/><ellipse cx="513.766" cy="1662.979" rx="2.447" ry="2.147"/><ellipse cx="484.205" cy="2348.067" rx="3.809" ry="3.346"/><ellipse cx="476.529" cy="1631.224" rx="2.9" ry="2.546"/><ellipse cx="318.319" cy="1678.905" rx="2.444" ry="2.147"/><ellipse cx="571.592" cy="2027.785" rx="2.9" ry="2.546"/><ellipse cx="574.492" cy="1761.588" rx="2.445" ry="2.147"/><ellipse cx="428.436" cy="1580.945" rx="2.898" ry="2.547"/><ellipse cx="481.76" cy="1570.41" rx="2.443" ry="2.146"/><ellipse cx="700.113" cy="1995.93" rx="2.898" ry="2.547"/><ellipse cx="347.652" cy="1623.983" rx="2.444" ry="2.147"/><ellipse cx="696.303" cy="1761.588" rx="3.811" ry="3.345"/><ellipse cx="95.128" cy="1631.224" rx="2.899" ry="2.546"/><ellipse cx="502.168" cy="1505.052" rx="2.9" ry="2.547"/><ellipse cx="354.873" cy="1770.176" rx="2.444" ry="2.147"/><ellipse cx="608.492" cy="1899.493" rx="2.898" ry="2.547"/><ellipse cx="302.797" cy="2050.003" rx="2.899" ry="2.547"/><ellipse cx="139.47" cy="1757.943" rx="2.445" ry="2.147"/><ellipse cx="373.121" cy="1714.106" rx="2.901" ry="2.547"/><ellipse cx="50.496" cy="1777.366" rx="2.444" ry="2.147"/><ellipse cx="458.053" cy="1716.652" rx="2.9" ry="2.547"/><ellipse cx="87.283" cy="1710.211" rx="2.445" ry="2.147"/><ellipse cx="205.301" cy="1653.841" rx="2.899" ry="2.546"/><path d="M257.734 1477.72c3.065.683 3.065 4.175 1.36 5.176-2.272 1-3.98-1.498-4.583-3.6.17-1.317 1.657-1.986 3.224-1.577z"/><ellipse cx="323.093" cy="2404.067" rx="3.809" ry="3.346"/><ellipse cx="171.704" cy="1698.727" rx="2.9" ry="2.547"/><ellipse cx="615.199" cy="2132.885" rx="2.445" ry="2.147"/><ellipse cx="52.94" cy="2458.722" rx="3.809" ry="3.345"/><ellipse cx="222.243" cy="1833.885" rx="2.899" ry="2.546"/><ellipse cx="101.381" cy="1784.605" rx="2.444" ry="2.147"/><ellipse cx="652.492" cy="1620.379" rx="3.809" ry="3.345"/><ellipse cx="393.804" cy="2662.285" rx="2.899" ry="2.546"/><path d="M207.28 1740.083c1.273-.024 2.536 1.002 2.696 2.25.158 1.25-.882 2.228-2.23 2.228-1.347 0-2.444-.955-2.523-2.18-.086-1.217.778-2.27 2.057-2.297z"/><ellipse cx="56.749" cy="2011.957" rx="3.809" ry="3.345"/><ellipse cx="574.492" cy="1681.052" rx="2.898" ry="2.547"/><ellipse cx="386.764" cy="1802.83" rx="2.446" ry="2.146"/><ellipse cx="89.727" cy="2213.821" rx="3.81" ry="3.345"/><ellipse cx="148.168" cy="1990.837" rx="2.899" ry="2.547"/><ellipse cx="502.168" cy="2115.16" rx="3.809" ry="3.345"/><ellipse cx="101.381" cy="1875.376" rx="2.617" ry="2.298"/><ellipse cx="215.08" cy="2354.758" rx="3.81" ry="3.346"/><ellipse cx="703.012" cy="1868.561" rx="2.9" ry="2.547"/><ellipse cx="705.912" cy="2602.067" rx="3.809" ry="3.345"/><ellipse cx="479.316" cy="1831.688" rx="2.443" ry="2.147"/><ellipse cx="511.207" cy="1901.639" rx="2.447" ry="2.147"/><ellipse cx="229.008" cy="2053.348" rx="3.809" ry="3.346"/><ellipse cx="464.705" cy="1894.649" rx="2.445" ry="2.147"/><ellipse cx="670.492" cy="2458.722" rx="3.809" ry="3.345"/><ellipse cx="260.276" cy="2253.959" rx="2.898" ry="2.547"/><ellipse cx="235.262" cy="2558.067" rx="2.445" ry="2.147"/><ellipse cx="116.048" cy="2088.999" rx="3.809" ry="3.346"/><ellipse cx="455.154" cy="2462.068" rx="2.898" ry="2.547"/><ellipse cx="219.401" cy="1924.706" rx="2.445" ry="2.147"/><ellipse cx="225.199" cy="2154.206" rx="3.81" ry="3.346"/><ellipse cx="302.798" cy="1922.16" rx="2.899" ry="2.547"/><ellipse cx="60.557" cy="2712.812" rx="3.81" ry="3.345"/><ellipse cx="605.592" cy="2407.413" rx="2.445" ry="2.147"/><ellipse cx="502.168" cy="1804.127" rx="2.9" ry="2.547"/><ellipse cx="628.684" cy="2248.067" rx="3.809" ry="3.345"/><ellipse cx="531.393" cy="2620.068" rx="2.898" ry="2.547"/><ellipse cx="254.931" cy="1623.983" rx="2.444" ry="2.147"/></g></g><g fill="#CAEAE9"><ellipse cx="1695.485" cy="882.703" rx="3.809" ry="3.345"/><ellipse cx="1173.881" cy="166.868" rx="2.899" ry="2.547"/><ellipse cx="1345.565" cy="116.389" rx="2.446" ry="2.147"/><ellipse cx="1021.976" cy="230.717" rx="2.616" ry="2.298"/><ellipse cx="1011.741" cy="100.636" rx="3.81" ry="3.346"/><ellipse cx="1121.353" cy="190.135" rx="2.899" ry="2.547"/><ellipse cx="1438.118" cy="145.25" rx="2.443" ry="2.147"/><ellipse cx="1329.021" cy="577.309" rx="2.901" ry="2.546"/><ellipse cx="1470.009" cy="215.199" rx="2.447" ry="2.147"/><ellipse cx="1348.466" cy="795.45" rx="3.809" ry="3.346"/><ellipse cx="1423.507" cy="208.209" rx="2.445" ry="2.147"/><ellipse cx="1472.567" cy="275.614" rx="2.447" ry="2.147"/><ellipse cx="1443.007" cy="960.703" rx="3.809" ry="3.346"/><ellipse cx="1435.331" cy="243.859" rx="2.9" ry="2.546"/><ellipse cx="1277.12" cy="291.541" rx="2.444" ry="2.147"/><ellipse cx="1530.394" cy="640.421" rx="2.9" ry="2.546"/><ellipse cx="1533.294" cy="374.224" rx="2.444" ry="2.147"/><ellipse cx="1387.237" cy="193.581" rx="2.898" ry="2.547"/><ellipse cx="1440.562" cy="183.045" rx="2.443" ry="2.146"/><ellipse cx="1658.914" cy="608.566" rx="2.899" ry="2.547"/><ellipse cx="1306.453" cy="236.619" rx="2.444" ry="2.147"/><ellipse cx="1655.104" cy="374.224" rx="3.811" ry="3.345"/><ellipse cx="1053.929" cy="243.859" rx="2.9" ry="2.546"/><ellipse cx="1460.97" cy="117.688" rx="2.9" ry="2.547"/><ellipse cx="1313.674" cy="382.812" rx="2.444" ry="2.147"/><ellipse cx="1567.294" cy="512.129" rx="2.898" ry="2.547"/><ellipse cx="1261.599" cy="662.638" rx="2.899" ry="2.547"/><ellipse cx="1098.271" cy="370.579" rx="2.444" ry="2.147"/><ellipse cx="1331.922" cy="326.741" rx="2.901" ry="2.547"/><ellipse cx="1009.298" cy="390.001" rx="2.443" ry="2.147"/><ellipse cx="1416.854" cy="329.287" rx="2.9" ry="2.547"/><ellipse cx="1046.084" cy="322.847" rx="2.444" ry="2.147"/><ellipse cx="1164.103" cy="266.477" rx="2.899" ry="2.546"/><path d="M1216.536 90.355c3.064.684 3.064 4.176 1.358 5.177-2.27 1-3.98-1.498-4.582-3.6.168-1.317 1.656-1.986 3.224-1.577z"/><ellipse cx="1281.894" cy="1016.703" rx="3.81" ry="3.346"/><ellipse cx="1130.505" cy="311.363" rx="2.9" ry="2.547"/><ellipse cx="1574.001" cy="745.521" rx="2.445" ry="2.147"/><ellipse cx="1011.741" cy="1071.358" rx="3.809" ry="3.345"/><ellipse cx="1181.044" cy="446.521" rx="2.898" ry="2.546"/><ellipse cx="1060.183" cy="397.24" rx="2.444" ry="2.147"/><ellipse cx="1611.294" cy="233.015" rx="3.809" ry="3.345"/><ellipse cx="1352.605" cy="1274.92" rx="2.899" ry="2.546"/><path d="M1166.08 352.72c1.274-.025 2.536 1 2.696 2.25.158 1.25-.882 2.227-2.23 2.227-1.347 0-2.444-.956-2.523-2.18-.085-1.218.78-2.27 2.058-2.298z"/><ellipse cx="1015.55" cy="624.593" rx="3.809" ry="3.345"/><ellipse cx="1533.294" cy="293.688" rx="2.898" ry="2.547"/><ellipse cx="1345.565" cy="415.465" rx="2.446" ry="2.146"/><ellipse cx="1048.528" cy="826.456" rx="3.81" ry="3.345"/><ellipse cx="1106.97" cy="603.473" rx="2.899" ry="2.547"/><ellipse cx="1460.97" cy="727.796" rx="3.809" ry="3.345"/><ellipse cx="1060.183" cy="488.012" rx="2.617" ry="2.298"/><ellipse cx="1173.881" cy="967.394" rx="3.81" ry="3.346"/><ellipse cx="1661.813" cy="481.197" rx="2.899" ry="2.547"/><ellipse cx="1664.713" cy="1214.703" rx="3.809" ry="3.345"/><ellipse cx="1438.118" cy="444.324" rx="2.443" ry="2.147"/><ellipse cx="1470.009" cy="514.275" rx="2.447" ry="2.147"/><ellipse cx="1187.81" cy="665.984" rx="3.809" ry="3.346"/><ellipse cx="1423.507" cy="507.285" rx="2.445" ry="2.147"/><ellipse cx="1629.294" cy="1071.358" rx="3.809" ry="3.345"/><ellipse cx="1219.077" cy="866.594" rx="2.898" ry="2.547"/><ellipse cx="1194.063" cy="1170.703" rx="2.445" ry="2.147"/><ellipse cx="1074.85" cy="701.634" rx="3.81" ry="3.346"/><ellipse cx="1413.955" cy="1074.703" rx="2.899" ry="2.547"/><ellipse cx="1178.202" cy="537.342" rx="2.445" ry="2.147"/><ellipse cx="1184" cy="766.841" rx="3.81" ry="3.346"/><ellipse cx="1261.599" cy="534.796" rx="2.9" ry="2.547"/><ellipse cx="1019.358" cy="1325.448" rx="3.811" ry="3.345"/><ellipse cx="1564.394" cy="1020.049" rx="2.444" ry="2.147"/><ellipse cx="1460.97" cy="416.763" rx="2.9" ry="2.547"/><ellipse cx="1587.485" cy="860.703" rx="3.809" ry="3.345"/><ellipse cx="1490.193" cy="1232.704" rx="2.899" ry="2.547"/><ellipse cx="1213.732" cy="236.619" rx="2.444" ry="2.147"/><g><ellipse cx="1682.485" cy="1114.703" rx="3.809" ry="3.345"/><ellipse cx="1160.881" cy="398.868" rx="2.899" ry="2.547"/><ellipse cx="1332.565" cy="348.389" rx="2.446" ry="2.147"/><ellipse cx="1008.976" cy="462.717" rx="2.616" ry="2.298"/><ellipse cx="998.741" cy="332.636" rx="3.81" ry="3.346"/><ellipse cx="1108.353" cy="422.135" rx="2.899" ry="2.547"/><ellipse cx="1425.118" cy="377.25" rx="2.443" ry="2.147"/><ellipse cx="1316.021" cy="809.309" rx="2.901" ry="2.546"/><ellipse cx="1457.009" cy="447.199" rx="2.447" ry="2.147"/><ellipse cx="1335.466" cy="1027.45" rx="3.809" ry="3.346"/><ellipse cx="1410.507" cy="440.209" rx="2.445" ry="2.147"/><ellipse cx="1459.567" cy="507.614" rx="2.447" ry="2.147"/><ellipse cx="1430.007" cy="1192.703" rx="3.809" ry="3.346"/><ellipse cx="1422.331" cy="475.859" rx="2.9" ry="2.546"/><ellipse cx="1264.12" cy="523.541" rx="2.444" ry="2.147"/><ellipse cx="1517.394" cy="872.421" rx="2.9" ry="2.546"/><ellipse cx="1520.294" cy="606.224" rx="2.444" ry="2.147"/><ellipse cx="1374.237" cy="425.581" rx="2.898" ry="2.547"/><ellipse cx="1427.562" cy="415.045" rx="2.443" ry="2.146"/><ellipse cx="1645.914" cy="840.566" rx="2.899" ry="2.547"/><ellipse cx="1293.453" cy="468.619" rx="2.444" ry="2.147"/><ellipse cx="1642.104" cy="606.224" rx="3.811" ry="3.345"/><ellipse cx="1040.929" cy="475.859" rx="2.9" ry="2.546"/><ellipse cx="1447.97" cy="349.688" rx="2.9" ry="2.547"/><ellipse cx="1300.674" cy="614.812" rx="2.444" ry="2.147"/><ellipse cx="1554.294" cy="744.129" rx="2.898" ry="2.547"/><ellipse cx="1248.599" cy="894.638" rx="2.899" ry="2.547"/><ellipse cx="1085.271" cy="602.579" rx="2.444" ry="2.147"/><ellipse cx="1318.922" cy="558.741" rx="2.901" ry="2.547"/><ellipse cx="996.298" cy="622.001" rx="2.443" ry="2.147"/><ellipse cx="1403.854" cy="561.287" rx="2.9" ry="2.547"/><ellipse cx="1033.084" cy="554.847" rx="2.444" ry="2.147"/><ellipse cx="1151.103" cy="498.477" rx="2.899" ry="2.546"/><path d="M1203.536 322.355c3.064.684 3.064 4.176 1.358 5.177-2.27 1-3.98-1.498-4.582-3.6.168-1.317 1.656-1.986 3.224-1.577z"/><ellipse cx="1268.894" cy="1248.703" rx="3.81" ry="3.346"/><ellipse cx="1117.505" cy="543.363" rx="2.9" ry="2.547"/><ellipse cx="1561.001" cy="977.521" rx="2.445" ry="2.147"/><ellipse cx="998.741" cy="1303.358" rx="3.809" ry="3.345"/><ellipse cx="1168.044" cy="678.521" rx="2.898" ry="2.546"/><ellipse cx="1047.183" cy="629.24" rx="2.444" ry="2.147"/><ellipse cx="1598.294" cy="465.015" rx="3.809" ry="3.345"/><ellipse cx="1339.605" cy="1506.92" rx="2.899" ry="2.546"/><path d="M1153.08 584.72c1.274-.025 2.536 1 2.696 2.25.158 1.25-.882 2.227-2.23 2.227-1.347 0-2.444-.956-2.523-2.18-.085-1.218.78-2.27 2.058-2.298z"/><ellipse cx="1002.55" cy="856.593" rx="3.809" ry="3.345"/><ellipse cx="1520.294" cy="525.688" rx="2.898" ry="2.547"/><ellipse cx="1332.565" cy="647.465" rx="2.446" ry="2.146"/><ellipse cx="1035.528" cy="1058.456" rx="3.81" ry="3.345"/><ellipse cx="1093.97" cy="835.473" rx="2.899" ry="2.547"/><ellipse cx="1447.97" cy="959.796" rx="3.809" ry="3.345"/><ellipse cx="1047.183" cy="720.012" rx="2.617" ry="2.298"/><ellipse cx="1160.881" cy="1199.394" rx="3.81" ry="3.346"/><ellipse cx="1648.813" cy="713.197" rx="2.899" ry="2.547"/><ellipse cx="1651.713" cy="1446.703" rx="3.809" ry="3.345"/><ellipse cx="1425.118" cy="676.324" rx="2.443" ry="2.147"/><ellipse cx="1457.009" cy="746.275" rx="2.447" ry="2.147"/><ellipse cx="1174.81" cy="897.984" rx="3.809" ry="3.346"/><ellipse cx="1410.507" cy="739.285" rx="2.445" ry="2.147"/><ellipse cx="1616.294" cy="1303.358" rx="3.809" ry="3.345"/><ellipse cx="1206.077" cy="1098.594" rx="2.898" ry="2.547"/><ellipse cx="1181.063" cy="1402.703" rx="2.445" ry="2.147"/><ellipse cx="1061.85" cy="933.634" rx="3.81" ry="3.346"/><ellipse cx="1400.955" cy="1306.703" rx="2.899" ry="2.547"/><ellipse cx="1165.202" cy="769.342" rx="2.445" ry="2.147"/><ellipse cx="1171" cy="998.841" rx="3.81" ry="3.346"/><ellipse cx="1248.599" cy="766.796" rx="2.9" ry="2.547"/><ellipse cx="1006.358" cy="1557.448" rx="3.811" ry="3.345"/><ellipse cx="1551.394" cy="1252.049" rx="2.444" ry="2.147"/><ellipse cx="1447.97" cy="648.763" rx="2.9" ry="2.547"/><ellipse cx="1574.485" cy="1092.703" rx="3.809" ry="3.345"/><ellipse cx="1477.193" cy="1464.704" rx="2.899" ry="2.547"/><ellipse cx="1200.732" cy="468.619" rx="2.444" ry="2.147"/></g></g><g fill="#CAEAE9"><ellipse cx="1359.584" cy="1124.118" rx="3.809" ry="3.345"/><ellipse cx="837.979" cy="408.283" rx="2.899" ry="2.547"/><ellipse cx="1009.664" cy="357.804" rx="2.446" ry="2.147"/><ellipse cx="686.074" cy="472.132" rx="2.616" ry="2.298"/><ellipse cx="675.84" cy="342.051" rx="3.81" ry="3.346"/><ellipse cx="785.451" cy="431.55" rx="2.899" ry="2.547"/><ellipse cx="1102.217" cy="386.665" rx="2.443" ry="2.147"/><ellipse cx="993.119" cy="818.724" rx="2.901" ry="2.546"/><ellipse cx="1134.107" cy="456.614" rx="2.447" ry="2.147"/><ellipse cx="1012.564" cy="1036.865" rx="3.809" ry="3.346"/><ellipse cx="1087.605" cy="449.624" rx="2.445" ry="2.147"/><ellipse cx="1136.666" cy="517.029" rx="2.447" ry="2.147"/><ellipse cx="1107.105" cy="1202.118" rx="3.809" ry="3.346"/><ellipse cx="1099.43" cy="485.274" rx="2.9" ry="2.546"/><ellipse cx="941.219" cy="532.956" rx="2.444" ry="2.147"/><ellipse cx="1194.492" cy="881.836" rx="2.9" ry="2.546"/><ellipse cx="1197.393" cy="615.639" rx="2.444" ry="2.147"/><ellipse cx="1051.336" cy="434.996" rx="2.898" ry="2.547"/><ellipse cx="1104.66" cy="424.46" rx="2.443" ry="2.146"/><ellipse cx="1323.013" cy="849.981" rx="2.899" ry="2.547"/><ellipse cx="970.552" cy="478.034" rx="2.444" ry="2.147"/><ellipse cx="1319.203" cy="615.639" rx="3.811" ry="3.345"/><ellipse cx="718.027" cy="485.274" rx="2.9" ry="2.546"/><ellipse cx="1125.068" cy="359.103" rx="2.9" ry="2.547"/><ellipse cx="977.772" cy="624.227" rx="2.444" ry="2.147"/><ellipse cx="1231.393" cy="753.544" rx="2.898" ry="2.547"/><ellipse cx="925.697" cy="904.053" rx="2.899" ry="2.547"/><ellipse cx="762.37" cy="611.994" rx="2.444" ry="2.147"/><ellipse cx="996.021" cy="568.156" rx="2.901" ry="2.547"/><ellipse cx="673.396" cy="631.417" rx="2.443" ry="2.147"/><ellipse cx="1080.953" cy="570.702" rx="2.9" ry="2.547"/><ellipse cx="710.183" cy="564.262" rx="2.444" ry="2.147"/><ellipse cx="828.201" cy="507.892" rx="2.899" ry="2.546"/><path d="M880.635 331.77c3.064.684 3.064 4.176 1.358 5.177-2.27 1-3.98-1.498-4.582-3.6.17-1.317 1.656-1.986 3.225-1.577z"/><ellipse cx="945.992" cy="1258.118" rx="3.81" ry="3.346"/><ellipse cx="794.604" cy="552.778" rx="2.9" ry="2.547"/><ellipse cx="1238.1" cy="986.936" rx="2.445" ry="2.147"/><ellipse cx="675.84" cy="1312.773" rx="3.809" ry="3.345"/><ellipse cx="845.143" cy="687.936" rx="2.898" ry="2.546"/><ellipse cx="724.281" cy="638.656" rx="2.444" ry="2.147"/><ellipse cx="1275.393" cy="474.43" rx="3.809" ry="3.345"/><ellipse cx="1016.704" cy="1516.335" rx="2.899" ry="2.546"/><path d="M830.18 594.134c1.273-.024 2.535 1.002 2.695 2.25.158 1.25-.882 2.228-2.23 2.228-1.347 0-2.444-.956-2.523-2.18-.085-1.218.78-2.27 2.058-2.298z"/><ellipse cx="679.648" cy="866.008" rx="3.809" ry="3.345"/><ellipse cx="1197.393" cy="535.103" rx="2.898" ry="2.547"/><ellipse cx="1009.664" cy="656.88" rx="2.446" ry="2.146"/><ellipse cx="712.627" cy="1067.871" rx="3.81" ry="3.345"/><ellipse cx="771.068" cy="844.888" rx="2.899" ry="2.547"/><ellipse cx="1125.068" cy="969.211" rx="3.809" ry="3.345"/><ellipse cx="724.281" cy="729.427" rx="2.617" ry="2.298"/><ellipse cx="837.979" cy="1208.809" rx="3.81" ry="3.346"/><ellipse cx="1325.912" cy="722.612" rx="2.899" ry="2.547"/><ellipse cx="1328.812" cy="1456.118" rx="3.809" ry="3.345"/><ellipse cx="1102.217" cy="685.739" rx="2.443" ry="2.147"/><ellipse cx="1134.107" cy="755.69" rx="2.447" ry="2.147"/><ellipse cx="851.908" cy="907.399" rx="3.809" ry="3.346"/><ellipse cx="1087.605" cy="748.7" rx="2.445" ry="2.147"/><ellipse cx="1293.393" cy="1312.773" rx="3.809" ry="3.345"/><ellipse cx="883.176" cy="1108.01" rx="2.898" ry="2.547"/><ellipse cx="858.162" cy="1412.118" rx="2.445" ry="2.147"/><ellipse cx="738.948" cy="943.049" rx="3.81" ry="3.346"/><ellipse cx="1078.054" cy="1316.118" rx="2.899" ry="2.547"/><ellipse cx="842.301" cy="778.757" rx="2.445" ry="2.147"/><ellipse cx="848.099" cy="1008.256" rx="3.81" ry="3.346"/><ellipse cx="925.697" cy="776.211" rx="2.9" ry="2.547"/><ellipse cx="683.457" cy="1566.863" rx="3.811" ry="3.345"/><ellipse cx="1228.492" cy="1261.464" rx="2.444" ry="2.147"/><ellipse cx="1125.068" cy="658.178" rx="2.9" ry="2.547"/><ellipse cx="1251.584" cy="1102.118" rx="3.809" ry="3.345"/><ellipse cx="1154.292" cy="1474.119" rx="2.899" ry="2.547"/><ellipse cx="877.831" cy="478.034" rx="2.444" ry="2.147"/><g><ellipse cx="1346.584" cy="1356.118" rx="3.809" ry="3.345"/><ellipse cx="824.979" cy="640.283" rx="2.899" ry="2.547"/><ellipse cx="996.664" cy="589.804" rx="2.446" ry="2.147"/><ellipse cx="673.074" cy="704.132" rx="2.616" ry="2.298"/><ellipse cx="662.84" cy="574.051" rx="3.81" ry="3.346"/><ellipse cx="772.451" cy="663.55" rx="2.899" ry="2.547"/><ellipse cx="1089.217" cy="618.665" rx="2.443" ry="2.147"/><ellipse cx="980.119" cy="1050.724" rx="2.901" ry="2.546"/><ellipse cx="1121.107" cy="688.614" rx="2.447" ry="2.147"/><ellipse cx="999.564" cy="1268.865" rx="3.809" ry="3.346"/><ellipse cx="1074.605" cy="681.624" rx="2.445" ry="2.147"/><ellipse cx="1123.666" cy="749.029" rx="2.447" ry="2.147"/><ellipse cx="1094.105" cy="1434.118" rx="3.809" ry="3.346"/><ellipse cx="1086.43" cy="717.274" rx="2.9" ry="2.546"/><ellipse cx="928.219" cy="764.956" rx="2.444" ry="2.147"/><ellipse cx="1181.492" cy="1113.836" rx="2.9" ry="2.546"/><ellipse cx="1184.393" cy="847.639" rx="2.444" ry="2.147"/><ellipse cx="1038.336" cy="666.996" rx="2.898" ry="2.547"/><ellipse cx="1091.66" cy="656.46" rx="2.443" ry="2.146"/><ellipse cx="1310.013" cy="1081.981" rx="2.899" ry="2.547"/><ellipse cx="957.552" cy="710.034" rx="2.444" ry="2.147"/><ellipse cx="1306.203" cy="847.639" rx="3.811" ry="3.345"/><ellipse cx="705.027" cy="717.274" rx="2.9" ry="2.546"/><ellipse cx="1112.068" cy="591.103" rx="2.9" ry="2.547"/><ellipse cx="964.772" cy="856.227" rx="2.444" ry="2.147"/><ellipse cx="1218.393" cy="985.544" rx="2.898" ry="2.547"/><ellipse cx="912.697" cy="1136.053" rx="2.899" ry="2.547"/><ellipse cx="749.37" cy="843.994" rx="2.444" ry="2.147"/><ellipse cx="983.021" cy="800.156" rx="2.901" ry="2.547"/><ellipse cx="660.396" cy="863.417" rx="2.443" ry="2.147"/><ellipse cx="1067.953" cy="802.702" rx="2.9" ry="2.547"/><ellipse cx="697.183" cy="796.262" rx="2.444" ry="2.147"/><ellipse cx="815.201" cy="739.892" rx="2.899" ry="2.546"/><path d="M867.635 563.77c3.064.684 3.064 4.176 1.358 5.177-2.27 1-3.98-1.498-4.582-3.6.17-1.317 1.656-1.986 3.225-1.577z"/><ellipse cx="932.992" cy="1490.118" rx="3.81" ry="3.346"/><ellipse cx="781.604" cy="784.778" rx="2.9" ry="2.547"/><ellipse cx="1225.1" cy="1218.936" rx="2.445" ry="2.147"/><ellipse cx="662.84" cy="1544.773" rx="3.809" ry="3.345"/><ellipse cx="832.143" cy="919.936" rx="2.898" ry="2.546"/><ellipse cx="711.281" cy="870.656" rx="2.444" ry="2.147"/><ellipse cx="1262.393" cy="706.43" rx="3.809" ry="3.345"/><ellipse cx="1003.704" cy="1748.335" rx="2.899" ry="2.546"/><path d="M817.18 826.134c1.273-.024 2.535 1.002 2.695 2.25.158 1.25-.882 2.228-2.23 2.228-1.347 0-2.444-.956-2.523-2.18-.085-1.218.78-2.27 2.058-2.298z"/><ellipse cx="666.648" cy="1098.008" rx="3.809" ry="3.345"/><ellipse cx="1184.393" cy="767.103" rx="2.898" ry="2.547"/><ellipse cx="996.664" cy="888.88" rx="2.446" ry="2.146"/><ellipse cx="699.627" cy="1299.871" rx="3.81" ry="3.345"/><ellipse cx="758.068" cy="1076.888" rx="2.899" ry="2.547"/><ellipse cx="1112.068" cy="1201.211" rx="3.809" ry="3.345"/><ellipse cx="711.281" cy="961.427" rx="2.617" ry="2.298"/><ellipse cx="824.979" cy="1440.809" rx="3.81" ry="3.346"/><ellipse cx="1312.912" cy="954.612" rx="2.899" ry="2.547"/><ellipse cx="1315.812" cy="1688.118" rx="3.809" ry="3.345"/><ellipse cx="1089.217" cy="917.739" rx="2.443" ry="2.147"/><ellipse cx="1121.107" cy="987.69" rx="2.447" ry="2.147"/><ellipse cx="838.908" cy="1139.399" rx="3.809" ry="3.346"/><ellipse cx="1074.605" cy="980.7" rx="2.445" ry="2.147"/><ellipse cx="1280.393" cy="1544.773" rx="3.809" ry="3.345"/><ellipse cx="870.176" cy="1340.01" rx="2.898" ry="2.547"/><ellipse cx="845.162" cy="1644.118" rx="2.445" ry="2.147"/><ellipse cx="725.948" cy="1175.049" rx="3.81" ry="3.346"/><ellipse cx="1065.054" cy="1548.118" rx="2.899" ry="2.547"/><ellipse cx="829.301" cy="1010.757" rx="2.445" ry="2.147"/><ellipse cx="835.099" cy="1240.256" rx="3.81" ry="3.346"/><ellipse cx="912.697" cy="1008.211" rx="2.9" ry="2.547"/><ellipse cx="670.457" cy="1798.863" rx="3.811" ry="3.345"/><ellipse cx="1215.492" cy="1493.464" rx="2.444" ry="2.147"/><ellipse cx="1112.068" cy="890.178" rx="2.9" ry="2.547"/><ellipse cx="1238.584" cy="1334.118" rx="3.809" ry="3.345"/><ellipse cx="1141.292" cy="1706.119" rx="2.899" ry="2.547"/><ellipse cx="864.831" cy="710.034" rx="2.444" ry="2.147"/></g></g><g fill="#CAEAE9"><ellipse cx="1262.567" cy="2306.257" rx="3.809" ry="3.345"/><ellipse cx="740.964" cy="1590.421" rx="2.899" ry="2.547"/><ellipse cx="912.647" cy="1539.943" rx="2.447" ry="2.147"/><ellipse cx="589.058" cy="1654.271" rx="2.617" ry="2.298"/><ellipse cx="578.824" cy="1524.189" rx="3.81" ry="3.346"/><ellipse cx="688.435" cy="1613.688" rx="2.9" ry="2.547"/><ellipse cx="1005.2" cy="1568.803" rx="2.443" ry="2.147"/><ellipse cx="896.103" cy="2000.863" rx="2.902" ry="2.546"/><ellipse cx="1037.091" cy="1638.753" rx="2.447" ry="2.147"/><ellipse cx="915.548" cy="2219.004" rx="3.809" ry="3.346"/><ellipse cx="990.589" cy="1631.763" rx="2.445" ry="2.147"/><ellipse cx="1039.649" cy="1699.168" rx="2.447" ry="2.147"/><ellipse cx="1010.089" cy="2384.257" rx="3.809" ry="3.346"/><ellipse cx="1002.413" cy="1667.413" rx="2.9" ry="2.546"/><ellipse cx="844.202" cy="1715.094" rx="2.445" ry="2.147"/><ellipse cx="1097.476" cy="2063.975" rx="2.9" ry="2.546"/><ellipse cx="1100.376" cy="1797.778" rx="2.445" ry="2.147"/><ellipse cx="954.319" cy="1617.134" rx="2.898" ry="2.547"/><ellipse cx="1007.644" cy="1606.599" rx="2.443" ry="2.146"/><ellipse cx="1225.997" cy="2032.12" rx="2.898" ry="2.547"/><ellipse cx="873.536" cy="1660.173" rx="2.443" ry="2.147"/><ellipse cx="1222.187" cy="1797.778" rx="3.811" ry="3.345"/><ellipse cx="621.012" cy="1667.413" rx="2.899" ry="2.546"/><ellipse cx="1028.052" cy="1541.242" rx="2.9" ry="2.547"/><ellipse cx="880.757" cy="1806.365" rx="2.443" ry="2.147"/><ellipse cx="1134.376" cy="1935.682" rx="2.898" ry="2.547"/><ellipse cx="828.681" cy="2086.192" rx="2.9" ry="2.547"/><ellipse cx="665.354" cy="1794.133" rx="2.444" ry="2.147"/><ellipse cx="899.005" cy="1750.295" rx="2.9" ry="2.547"/><ellipse cx="576.38" cy="1813.555" rx="2.444" ry="2.147"/><ellipse cx="983.937" cy="1752.841" rx="2.9" ry="2.547"/><ellipse cx="613.167" cy="1746.401" rx="2.444" ry="2.147"/><ellipse cx="731.185" cy="1690.031" rx="2.9" ry="2.546"/><path d="M783.618 1513.91c3.064.683 3.064 4.175 1.36 5.176-2.272 1-3.98-1.498-4.583-3.6.168-1.318 1.655-1.986 3.223-1.577z"/><ellipse cx="848.977" cy="2440.257" rx="3.81" ry="3.346"/><ellipse cx="697.587" cy="1734.917" rx="2.9" ry="2.547"/><ellipse cx="1141.083" cy="2169.074" rx="2.445" ry="2.147"/><ellipse cx="578.824" cy="2494.912" rx="3.809" ry="3.345"/><ellipse cx="748.126" cy="1870.075" rx="2.899" ry="2.546"/><ellipse cx="627.265" cy="1820.794" rx="2.445" ry="2.147"/><ellipse cx="1178.376" cy="1656.569" rx="3.809" ry="3.345"/><ellipse cx="919.688" cy="2698.474" rx="2.898" ry="2.546"/><path d="M733.163 1776.272c1.273-.024 2.536 1.002 2.696 2.25.157 1.25-.883 2.228-2.23 2.228s-2.445-.956-2.523-2.18c-.086-1.217.78-2.27 2.056-2.298z"/><ellipse cx="582.632" cy="2048.146" rx="3.81" ry="3.345"/><ellipse cx="1100.376" cy="1717.242" rx="2.898" ry="2.547"/><ellipse cx="912.647" cy="1839.019" rx="2.447" ry="2.146"/><ellipse cx="615.61" cy="2250.01" rx="3.811" ry="3.345"/><ellipse cx="674.052" cy="2027.026" rx="2.9" ry="2.547"/><ellipse cx="1028.052" cy="2151.35" rx="3.809" ry="3.345"/><ellipse cx="627.265" cy="1911.565" rx="2.617" ry="2.298"/><ellipse cx="740.964" cy="2390.947" rx="3.809" ry="3.346"/><ellipse cx="1228.896" cy="1904.75" rx="2.9" ry="2.547"/><ellipse cx="1231.796" cy="2638.257" rx="3.809" ry="3.345"/><ellipse cx="1005.2" cy="1867.878" rx="2.443" ry="2.147"/><ellipse cx="1037.091" cy="1937.829" rx="2.447" ry="2.147"/><ellipse cx="754.892" cy="2089.538" rx="3.809" ry="3.346"/><ellipse cx="990.589" cy="1930.839" rx="2.445" ry="2.147"/><ellipse cx="1196.376" cy="2494.912" rx="3.809" ry="3.345"/><ellipse cx="786.159" cy="2290.148" rx="2.898" ry="2.547"/><ellipse cx="761.146" cy="2594.257" rx="2.445" ry="2.147"/><ellipse cx="641.933" cy="2125.188" rx="3.809" ry="3.346"/><ellipse cx="981.038" cy="2498.257" rx="2.898" ry="2.547"/><ellipse cx="745.284" cy="1960.896" rx="2.445" ry="2.147"/><ellipse cx="751.083" cy="2190.395" rx="3.809" ry="3.346"/><ellipse cx="828.682" cy="1958.35" rx="2.899" ry="2.547"/><ellipse cx="586.44" cy="2749.001" rx="3.811" ry="3.345"/><ellipse cx="1131.476" cy="2443.602" rx="2.445" ry="2.147"/><ellipse cx="1028.052" cy="1840.317" rx="2.9" ry="2.547"/><ellipse cx="1154.567" cy="2284.257" rx="3.809" ry="3.345"/><ellipse cx="1057.276" cy="2656.257" rx="2.898" ry="2.547"/><ellipse cx="780.815" cy="1660.173" rx="2.443" ry="2.147"/><g><ellipse cx="1249.567" cy="2538.257" rx="3.809" ry="3.345"/><ellipse cx="727.964" cy="1822.421" rx="2.899" ry="2.547"/><ellipse cx="899.647" cy="1771.943" rx="2.447" ry="2.147"/><ellipse cx="576.058" cy="1886.271" rx="2.617" ry="2.298"/><ellipse cx="565.824" cy="1756.189" rx="3.81" ry="3.346"/><ellipse cx="675.435" cy="1845.688" rx="2.9" ry="2.547"/><ellipse cx="992.2" cy="1800.803" rx="2.443" ry="2.147"/><ellipse cx="883.103" cy="2232.863" rx="2.902" ry="2.546"/><ellipse cx="1024.091" cy="1870.753" rx="2.447" ry="2.147"/><ellipse cx="902.548" cy="2451.004" rx="3.809" ry="3.346"/><ellipse cx="977.589" cy="1863.763" rx="2.445" ry="2.147"/><ellipse cx="1026.649" cy="1931.168" rx="2.447" ry="2.147"/><ellipse cx="997.089" cy="2616.257" rx="3.809" ry="3.346"/><ellipse cx="989.413" cy="1899.413" rx="2.9" ry="2.546"/><ellipse cx="831.202" cy="1947.094" rx="2.445" ry="2.147"/><ellipse cx="1084.476" cy="2295.975" rx="2.9" ry="2.546"/><ellipse cx="1087.376" cy="2029.778" rx="2.445" ry="2.147"/><ellipse cx="941.319" cy="1849.134" rx="2.898" ry="2.547"/><ellipse cx="994.644" cy="1838.599" rx="2.443" ry="2.146"/><ellipse cx="1212.997" cy="2264.12" rx="2.898" ry="2.547"/><ellipse cx="860.536" cy="1892.173" rx="2.443" ry="2.147"/><ellipse cx="1209.187" cy="2029.778" rx="3.811" ry="3.345"/><ellipse cx="608.012" cy="1899.413" rx="2.899" ry="2.546"/><ellipse cx="1015.052" cy="1773.242" rx="2.9" ry="2.547"/><ellipse cx="867.757" cy="2038.365" rx="2.443" ry="2.147"/><ellipse cx="1121.376" cy="2167.682" rx="2.898" ry="2.547"/><ellipse cx="815.681" cy="2318.192" rx="2.9" ry="2.547"/><ellipse cx="652.354" cy="2026.133" rx="2.444" ry="2.147"/><ellipse cx="886.005" cy="1982.295" rx="2.9" ry="2.547"/><ellipse cx="563.38" cy="2045.555" rx="2.444" ry="2.147"/><ellipse cx="970.937" cy="1984.841" rx="2.9" ry="2.547"/><ellipse cx="600.167" cy="1978.401" rx="2.444" ry="2.147"/><ellipse cx="718.185" cy="1922.031" rx="2.9" ry="2.546"/><path d="M770.618 1745.91c3.064.683 3.064 4.175 1.36 5.176-2.272 1-3.98-1.498-4.583-3.6.168-1.318 1.655-1.986 3.223-1.577z"/><ellipse cx="835.977" cy="2672.257" rx="3.81" ry="3.346"/><ellipse cx="684.587" cy="1966.917" rx="2.9" ry="2.547"/><ellipse cx="1128.083" cy="2401.074" rx="2.445" ry="2.147"/><ellipse cx="565.824" cy="2726.912" rx="3.809" ry="3.345"/><ellipse cx="735.126" cy="2102.075" rx="2.899" ry="2.546"/><ellipse cx="614.265" cy="2052.794" rx="2.445" ry="2.147"/><ellipse cx="1165.376" cy="1888.569" rx="3.809" ry="3.345"/><ellipse cx="906.688" cy="2930.474" rx="2.898" ry="2.546"/><path d="M720.163 2008.272c1.273-.024 2.536 1.002 2.696 2.25.157 1.25-.883 2.228-2.23 2.228s-2.445-.956-2.523-2.18c-.086-1.217.78-2.27 2.056-2.298z"/><ellipse cx="569.632" cy="2280.146" rx="3.81" ry="3.345"/><ellipse cx="1087.376" cy="1949.242" rx="2.898" ry="2.547"/><ellipse cx="899.647" cy="2071.019" rx="2.447" ry="2.146"/><ellipse cx="602.61" cy="2482.01" rx="3.811" ry="3.345"/><ellipse cx="661.052" cy="2259.026" rx="2.9" ry="2.547"/><ellipse cx="1015.052" cy="2383.35" rx="3.809" ry="3.345"/><ellipse cx="614.265" cy="2143.565" rx="2.617" ry="2.298"/><ellipse cx="727.964" cy="2622.947" rx="3.809" ry="3.346"/><ellipse cx="1215.896" cy="2136.75" rx="2.9" ry="2.547"/><ellipse cx="1218.796" cy="2870.257" rx="3.809" ry="3.345"/><ellipse cx="992.2" cy="2099.878" rx="2.443" ry="2.147"/><ellipse cx="1024.091" cy="2169.829" rx="2.447" ry="2.147"/><ellipse cx="741.892" cy="2321.538" rx="3.809" ry="3.346"/><ellipse cx="977.589" cy="2162.839" rx="2.445" ry="2.147"/><ellipse cx="1183.376" cy="2726.912" rx="3.809" ry="3.345"/><ellipse cx="773.159" cy="2522.148" rx="2.898" ry="2.547"/><ellipse cx="748.146" cy="2826.257" rx="2.445" ry="2.147"/><ellipse cx="628.933" cy="2357.188" rx="3.809" ry="3.346"/><ellipse cx="968.038" cy="2730.257" rx="2.898" ry="2.547"/><ellipse cx="732.284" cy="2192.896" rx="2.445" ry="2.147"/><ellipse cx="738.083" cy="2422.395" rx="3.809" ry="3.346"/><ellipse cx="815.682" cy="2190.35" rx="2.899" ry="2.547"/><ellipse cx="573.44" cy="2981.001" rx="3.811" ry="3.345"/><ellipse cx="1118.476" cy="2675.602" rx="2.445" ry="2.147"/><ellipse cx="1015.052" cy="2072.317" rx="2.9" ry="2.547"/><ellipse cx="1141.567" cy="2516.257" rx="3.809" ry="3.345"/><ellipse cx="1044.276" cy="2888.257" rx="2.898" ry="2.547"/><ellipse cx="767.815" cy="1892.173" rx="2.443" ry="2.147"/></g></g><g fill="#CAEAE9"><ellipse cx="948.217" cy="984.24" rx="3.809" ry="3.345"/><ellipse cx="426.612" cy="268.405" rx="2.899" ry="2.547"/><ellipse cx="598.297" cy="217.927" rx="2.446" ry="2.147"/><ellipse cx="274.707" cy="332.254" rx="2.616" ry="2.298"/><ellipse cx="264.473" cy="202.173" rx="3.81" ry="3.346"/><ellipse cx="374.084" cy="291.672" rx="2.899" ry="2.547"/><ellipse cx="690.85" cy="246.787" rx="2.443" ry="2.147"/><ellipse cx="581.752" cy="678.846" rx="2.901" ry="2.546"/><ellipse cx="722.74" cy="316.736" rx="2.447" ry="2.147"/><ellipse cx="601.197" cy="896.987" rx="3.809" ry="3.346"/><ellipse cx="676.238" cy="309.746" rx="2.445" ry="2.147"/><ellipse cx="725.299" cy="377.151" rx="2.447" ry="2.147"/><ellipse cx="695.738" cy="1062.24" rx="3.809" ry="3.346"/><ellipse cx="688.063" cy="345.396" rx="2.9" ry="2.546"/><ellipse cx="529.852" cy="393.078" rx="2.444" ry="2.147"/><ellipse cx="783.125" cy="741.958" rx="2.9" ry="2.546"/><ellipse cx="786.025" cy="475.761" rx="2.444" ry="2.147"/><ellipse cx="639.969" cy="295.118" rx="2.898" ry="2.547"/><ellipse cx="693.293" cy="284.583" rx="2.443" ry="2.146"/><ellipse cx="911.646" cy="710.103" rx="2.899" ry="2.547"/><ellipse cx="559.185" cy="338.156" rx="2.444" ry="2.147"/><ellipse cx="907.836" cy="475.761" rx="3.811" ry="3.345"/><ellipse cx="306.66" cy="345.396" rx="2.9" ry="2.546"/><ellipse cx="713.701" cy="219.225" rx="2.9" ry="2.547"/><ellipse cx="566.405" cy="484.349" rx="2.444" ry="2.147"/><ellipse cx="820.025" cy="613.666" rx="2.898" ry="2.547"/><ellipse cx="514.33" cy="764.176" rx="2.899" ry="2.547"/><ellipse cx="351.003" cy="472.116" rx="2.444" ry="2.147"/><ellipse cx="584.653" cy="428.279" rx="2.901" ry="2.547"/><ellipse cx="262.029" cy="491.539" rx="2.443" ry="2.147"/><ellipse cx="669.586" cy="430.824" rx="2.9" ry="2.547"/><ellipse cx="298.815" cy="424.384" rx="2.444" ry="2.147"/><ellipse cx="416.834" cy="368.014" rx="2.899" ry="2.546"/><path d="M469.268 191.892c3.064.684 3.064 4.176 1.358 5.177-2.27 1-3.98-1.5-4.582-3.6.168-1.318 1.655-1.987 3.224-1.578z"/><ellipse cx="534.625" cy="1118.24" rx="3.81" ry="3.346"/><ellipse cx="383.236" cy="412.9" rx="2.9" ry="2.547"/><ellipse cx="826.732" cy="847.058" rx="2.445" ry="2.147"/><ellipse cx="264.473" cy="1172.895" rx="3.809" ry="3.345"/><ellipse cx="433.775" cy="548.058" rx="2.898" ry="2.546"/><ellipse cx="312.914" cy="498.778" rx="2.444" ry="2.147"/><ellipse cx="864.025" cy="334.552" rx="3.809" ry="3.345"/><ellipse cx="605.337" cy="1376.458" rx="2.899" ry="2.546"/><path d="M418.813 454.256c1.273-.024 2.535 1.002 2.695 2.25.158 1.25-.882 2.228-2.23 2.228-1.347 0-2.444-.956-2.523-2.18-.085-1.218.78-2.27 2.058-2.298z"/><ellipse cx="268.281" cy="726.13" rx="3.809" ry="3.345"/><ellipse cx="786.025" cy="395.225" rx="2.898" ry="2.547"/><ellipse cx="598.297" cy="517.002" rx="2.446" ry="2.146"/><ellipse cx="301.26" cy="927.993" rx="3.81" ry="3.345"/><ellipse cx="359.701" cy="705.01" rx="2.899" ry="2.547"/><ellipse cx="713.701" cy="829.333" rx="3.809" ry="3.345"/><ellipse cx="312.914" cy="589.549" rx="2.617" ry="2.298"/><ellipse cx="426.612" cy="1068.931" rx="3.81" ry="3.346"/><ellipse cx="914.545" cy="582.734" rx="2.899" ry="2.547"/><ellipse cx="917.444" cy="1316.24" rx="3.809" ry="3.345"/><ellipse cx="690.85" cy="545.861" rx="2.443" ry="2.147"/><ellipse cx="722.74" cy="615.812" rx="2.447" ry="2.147"/><ellipse cx="440.541" cy="767.521" rx="3.809" ry="3.346"/><ellipse cx="676.238" cy="608.822" rx="2.445" ry="2.147"/><ellipse cx="882.025" cy="1172.895" rx="3.809" ry="3.345"/><ellipse cx="471.809" cy="968.132" rx="2.898" ry="2.547"/><ellipse cx="446.795" cy="1272.24" rx="2.445" ry="2.147"/><ellipse cx="327.581" cy="803.171" rx="3.81" ry="3.346"/><ellipse cx="666.687" cy="1176.24" rx="2.899" ry="2.547"/><ellipse cx="430.934" cy="638.879" rx="2.445" ry="2.147"/><ellipse cx="436.731" cy="868.378" rx="3.81" ry="3.346"/><ellipse cx="514.33" cy="636.333" rx="2.9" ry="2.547"/><ellipse cx="272.09" cy="1426.985" rx="3.811" ry="3.345"/><ellipse cx="817.125" cy="1121.586" rx="2.444" ry="2.147"/><ellipse cx="713.701" cy="518.3" rx="2.9" ry="2.547"/><ellipse cx="840.217" cy="962.24" rx="3.809" ry="3.345"/><ellipse cx="742.925" cy="1334.241" rx="2.899" ry="2.547"/><ellipse cx="466.464" cy="338.156" rx="2.444" ry="2.147"/><g><ellipse cx="935.217" cy="1216.24" rx="3.809" ry="3.345"/><ellipse cx="413.612" cy="500.405" rx="2.899" ry="2.547"/><ellipse cx="585.297" cy="449.927" rx="2.446" ry="2.147"/><ellipse cx="261.707" cy="564.254" rx="2.616" ry="2.298"/><ellipse cx="251.473" cy="434.173" rx="3.81" ry="3.346"/><ellipse cx="361.084" cy="523.672" rx="2.899" ry="2.547"/><ellipse cx="677.85" cy="478.787" rx="2.443" ry="2.147"/><ellipse cx="568.752" cy="910.846" rx="2.901" ry="2.546"/><ellipse cx="709.74" cy="548.736" rx="2.447" ry="2.147"/><ellipse cx="588.197" cy="1128.987" rx="3.809" ry="3.346"/><ellipse cx="663.238" cy="541.746" rx="2.445" ry="2.147"/><ellipse cx="712.299" cy="609.151" rx="2.447" ry="2.147"/><ellipse cx="682.738" cy="1294.24" rx="3.809" ry="3.346"/><ellipse cx="675.063" cy="577.396" rx="2.9" ry="2.546"/><ellipse cx="516.852" cy="625.078" rx="2.444" ry="2.147"/><ellipse cx="770.125" cy="973.958" rx="2.9" ry="2.546"/><ellipse cx="773.025" cy="707.761" rx="2.444" ry="2.147"/><ellipse cx="626.969" cy="527.118" rx="2.898" ry="2.547"/><ellipse cx="680.293" cy="516.583" rx="2.443" ry="2.146"/><ellipse cx="898.646" cy="942.103" rx="2.899" ry="2.547"/><ellipse cx="546.185" cy="570.156" rx="2.444" ry="2.147"/><ellipse cx="894.836" cy="707.761" rx="3.811" ry="3.345"/><ellipse cx="293.66" cy="577.396" rx="2.9" ry="2.546"/><ellipse cx="700.701" cy="451.225" rx="2.9" ry="2.547"/><ellipse cx="553.405" cy="716.349" rx="2.444" ry="2.147"/><ellipse cx="807.025" cy="845.666" rx="2.898" ry="2.547"/><ellipse cx="501.33" cy="996.176" rx="2.899" ry="2.547"/><ellipse cx="338.003" cy="704.116" rx="2.444" ry="2.147"/><ellipse cx="571.653" cy="660.279" rx="2.901" ry="2.547"/><ellipse cx="249.029" cy="723.539" rx="2.443" ry="2.147"/><ellipse cx="656.586" cy="662.824" rx="2.9" ry="2.547"/><ellipse cx="285.815" cy="656.384" rx="2.444" ry="2.147"/><ellipse cx="403.834" cy="600.014" rx="2.899" ry="2.546"/><path d="M456.268 423.892c3.064.684 3.064 4.176 1.358 5.177-2.27 1-3.98-1.5-4.582-3.6.168-1.318 1.655-1.987 3.224-1.578z"/><ellipse cx="521.625" cy="1350.24" rx="3.81" ry="3.346"/><ellipse cx="370.236" cy="644.9" rx="2.9" ry="2.547"/><ellipse cx="813.732" cy="1079.058" rx="2.445" ry="2.147"/><ellipse cx="251.473" cy="1404.895" rx="3.809" ry="3.345"/><ellipse cx="420.775" cy="780.058" rx="2.898" ry="2.546"/><ellipse cx="299.914" cy="730.778" rx="2.444" ry="2.147"/><ellipse cx="851.025" cy="566.552" rx="3.809" ry="3.345"/><ellipse cx="592.337" cy="1608.458" rx="2.899" ry="2.546"/><path d="M405.813 686.256c1.273-.024 2.535 1.002 2.695 2.25.158 1.25-.882 2.228-2.23 2.228-1.347 0-2.444-.956-2.523-2.18-.085-1.218.78-2.27 2.058-2.298z"/><ellipse cx="255.281" cy="958.13" rx="3.809" ry="3.345"/><ellipse cx="773.025" cy="627.225" rx="2.898" ry="2.547"/><ellipse cx="585.297" cy="749.002" rx="2.446" ry="2.146"/><ellipse cx="288.26" cy="1159.993" rx="3.81" ry="3.345"/><ellipse cx="346.701" cy="937.01" rx="2.899" ry="2.547"/><ellipse cx="700.701" cy="1061.333" rx="3.809" ry="3.345"/><ellipse cx="299.914" cy="821.549" rx="2.617" ry="2.298"/><ellipse cx="413.612" cy="1300.931" rx="3.81" ry="3.346"/><ellipse cx="901.545" cy="814.734" rx="2.899" ry="2.547"/><ellipse cx="904.444" cy="1548.24" rx="3.809" ry="3.345"/><ellipse cx="677.85" cy="777.861" rx="2.443" ry="2.147"/><ellipse cx="709.74" cy="847.812" rx="2.447" ry="2.147"/><ellipse cx="427.541" cy="999.521" rx="3.809" ry="3.346"/><ellipse cx="663.238" cy="840.822" rx="2.445" ry="2.147"/><ellipse cx="869.025" cy="1404.895" rx="3.809" ry="3.345"/><ellipse cx="458.809" cy="1200.132" rx="2.898" ry="2.547"/><ellipse cx="433.795" cy="1504.24" rx="2.445" ry="2.147"/><ellipse cx="314.581" cy="1035.171" rx="3.81" ry="3.346"/><ellipse cx="653.687" cy="1408.24" rx="2.899" ry="2.547"/><ellipse cx="417.934" cy="870.879" rx="2.445" ry="2.147"/><ellipse cx="423.731" cy="1100.378" rx="3.81" ry="3.346"/><ellipse cx="501.33" cy="868.333" rx="2.9" ry="2.547"/><ellipse cx="259.09" cy="1658.985" rx="3.811" ry="3.345"/><ellipse cx="804.125" cy="1353.586" rx="2.444" ry="2.147"/><ellipse cx="700.701" cy="750.3" rx="2.9" ry="2.547"/><ellipse cx="827.217" cy="1194.24" rx="3.809" ry="3.345"/><ellipse cx="729.925" cy="1566.241" rx="2.899" ry="2.547"/><ellipse cx="453.464" cy="570.156" rx="2.444" ry="2.147"/></g></g><g fill="#CAEAE9"><ellipse cx="947.209" cy="2166.379" rx="3.809" ry="3.345"/><ellipse cx="425.605" cy="1450.543" rx="2.899" ry="2.547"/><ellipse cx="597.289" cy="1400.065" rx="2.447" ry="2.147"/><ellipse cx="273.699" cy="1514.393" rx="2.617" ry="2.298"/><ellipse cx="263.466" cy="1384.312" rx="3.81" ry="3.346"/><ellipse cx="373.076" cy="1473.81" rx="2.9" ry="2.547"/><ellipse cx="689.842" cy="1428.925" rx="2.443" ry="2.147"/><ellipse cx="580.744" cy="1860.985" rx="2.902" ry="2.546"/><ellipse cx="721.732" cy="1498.875" rx="2.447" ry="2.147"/><ellipse cx="600.189" cy="2079.126" rx="3.809" ry="3.346"/><ellipse cx="675.23" cy="1491.885" rx="2.445" ry="2.147"/><ellipse cx="724.291" cy="1559.29" rx="2.447" ry="2.147"/><ellipse cx="694.73" cy="2244.379" rx="3.809" ry="3.346"/><ellipse cx="687.055" cy="1527.535" rx="2.9" ry="2.546"/><ellipse cx="528.844" cy="1575.217" rx="2.445" ry="2.147"/><ellipse cx="782.117" cy="1924.097" rx="2.9" ry="2.546"/><ellipse cx="785.018" cy="1657.9" rx="2.445" ry="2.147"/><ellipse cx="638.961" cy="1477.256" rx="2.898" ry="2.547"/><ellipse cx="692.285" cy="1466.721" rx="2.443" ry="2.146"/><ellipse cx="910.639" cy="1892.242" rx="2.898" ry="2.547"/><ellipse cx="558.178" cy="1520.295" rx="2.443" ry="2.147"/><ellipse cx="906.828" cy="1657.9" rx="3.811" ry="3.345"/><ellipse cx="305.653" cy="1527.535" rx="2.899" ry="2.546"/><ellipse cx="712.693" cy="1401.364" rx="2.9" ry="2.547"/><ellipse cx="565.398" cy="1666.488" rx="2.443" ry="2.147"/><ellipse cx="819.018" cy="1795.804" rx="2.898" ry="2.547"/><ellipse cx="513.322" cy="1946.314" rx="2.9" ry="2.547"/><ellipse cx="349.996" cy="1654.255" rx="2.444" ry="2.147"/><ellipse cx="583.646" cy="1610.417" rx="2.9" ry="2.547"/><ellipse cx="261.021" cy="1673.677" rx="2.444" ry="2.147"/><ellipse cx="668.578" cy="1612.963" rx="2.9" ry="2.547"/><ellipse cx="297.809" cy="1606.523" rx="2.444" ry="2.147"/><ellipse cx="415.826" cy="1550.153" rx="2.9" ry="2.546"/><path d="M468.26 1374.03c3.064.685 3.064 4.177 1.36 5.178-2.272 1-3.98-1.498-4.583-3.6.168-1.317 1.654-1.986 3.223-1.577z"/><ellipse cx="533.618" cy="2300.379" rx="3.81" ry="3.346"/><ellipse cx="382.229" cy="1595.039" rx="2.9" ry="2.547"/><ellipse cx="825.725" cy="2029.197" rx="2.445" ry="2.147"/><ellipse cx="263.466" cy="2355.034" rx="3.809" ry="3.345"/><ellipse cx="432.768" cy="1730.197" rx="2.899" ry="2.546"/><ellipse cx="311.906" cy="1680.916" rx="2.445" ry="2.147"/><ellipse cx="863.018" cy="1516.691" rx="3.809" ry="3.345"/><ellipse cx="604.33" cy="2558.596" rx="2.898" ry="2.546"/><path d="M417.805 1636.395c1.273-.024 2.536 1.002 2.696 2.25.16 1.25-.88 2.228-2.228 2.228s-2.445-.956-2.523-2.18c-.088-1.218.777-2.27 2.055-2.298z"/><ellipse cx="267.273" cy="1908.269" rx="3.81" ry="3.345"/><ellipse cx="785.018" cy="1577.364" rx="2.898" ry="2.547"/><ellipse cx="597.289" cy="1699.141" rx="2.447" ry="2.146"/><ellipse cx="300.252" cy="2110.132" rx="3.811" ry="3.345"/><ellipse cx="358.693" cy="1887.148" rx="2.9" ry="2.547"/><ellipse cx="712.693" cy="2011.472" rx="3.809" ry="3.345"/><ellipse cx="311.906" cy="1771.688" rx="2.617" ry="2.298"/><ellipse cx="425.605" cy="2251.069" rx="3.809" ry="3.346"/><ellipse cx="913.537" cy="1764.872" rx="2.9" ry="2.547"/><ellipse cx="916.438" cy="2498.379" rx="3.809" ry="3.345"/><ellipse cx="689.842" cy="1728" rx="2.443" ry="2.147"/><ellipse cx="721.732" cy="1797.951" rx="2.447" ry="2.147"/><ellipse cx="439.533" cy="1949.66" rx="3.809" ry="3.346"/><ellipse cx="675.23" cy="1790.961" rx="2.445" ry="2.147"/><ellipse cx="881.018" cy="2355.034" rx="3.809" ry="3.345"/><ellipse cx="470.801" cy="2150.27" rx="2.898" ry="2.547"/><ellipse cx="445.787" cy="2454.379" rx="2.445" ry="2.147"/><ellipse cx="326.574" cy="1985.31" rx="3.809" ry="3.346"/><ellipse cx="665.68" cy="2358.379" rx="2.898" ry="2.547"/><ellipse cx="429.926" cy="1821.018" rx="2.445" ry="2.147"/><ellipse cx="435.725" cy="2050.517" rx="3.809" ry="3.346"/><ellipse cx="513.323" cy="1818.472" rx="2.899" ry="2.547"/><ellipse cx="271.082" cy="2609.124" rx="3.811" ry="3.345"/><ellipse cx="816.117" cy="2303.724" rx="2.445" ry="2.147"/><ellipse cx="712.693" cy="1700.439" rx="2.9" ry="2.547"/><ellipse cx="839.209" cy="2144.379" rx="3.809" ry="3.345"/><ellipse cx="741.918" cy="2516.379" rx="2.898" ry="2.547"/><ellipse cx="465.457" cy="1520.295" rx="2.443" ry="2.147"/><g><ellipse cx="934.209" cy="2398.379" rx="3.809" ry="3.345"/><ellipse cx="412.605" cy="1682.543" rx="2.899" ry="2.547"/><ellipse cx="584.289" cy="1632.065" rx="2.447" ry="2.147"/><ellipse cx="260.699" cy="1746.393" rx="2.617" ry="2.298"/><ellipse cx="250.466" cy="1616.312" rx="3.81" ry="3.346"/><ellipse cx="360.076" cy="1705.81" rx="2.9" ry="2.547"/><ellipse cx="676.842" cy="1660.925" rx="2.443" ry="2.147"/><ellipse cx="567.744" cy="2092.985" rx="2.902" ry="2.546"/><ellipse cx="708.732" cy="1730.875" rx="2.447" ry="2.147"/><ellipse cx="587.189" cy="2311.126" rx="3.809" ry="3.346"/><ellipse cx="662.23" cy="1723.885" rx="2.445" ry="2.147"/><ellipse cx="711.291" cy="1791.29" rx="2.447" ry="2.147"/><ellipse cx="681.73" cy="2476.379" rx="3.809" ry="3.346"/><ellipse cx="674.055" cy="1759.535" rx="2.9" ry="2.546"/><ellipse cx="515.844" cy="1807.217" rx="2.445" ry="2.147"/><ellipse cx="769.117" cy="2156.097" rx="2.9" ry="2.546"/><ellipse cx="772.018" cy="1889.9" rx="2.445" ry="2.147"/><ellipse cx="625.961" cy="1709.256" rx="2.898" ry="2.547"/><ellipse cx="679.285" cy="1698.721" rx="2.443" ry="2.146"/><ellipse cx="897.639" cy="2124.242" rx="2.898" ry="2.547"/><ellipse cx="545.178" cy="1752.295" rx="2.443" ry="2.147"/><ellipse cx="893.828" cy="1889.9" rx="3.811" ry="3.345"/><ellipse cx="292.653" cy="1759.535" rx="2.899" ry="2.546"/><ellipse cx="699.693" cy="1633.364" rx="2.9" ry="2.547"/><ellipse cx="552.398" cy="1898.488" rx="2.443" ry="2.147"/><ellipse cx="806.018" cy="2027.804" rx="2.898" ry="2.547"/><ellipse cx="500.322" cy="2178.314" rx="2.9" ry="2.547"/><ellipse cx="336.996" cy="1886.255" rx="2.444" ry="2.147"/><ellipse cx="570.646" cy="1842.417" rx="2.9" ry="2.547"/><ellipse cx="248.021" cy="1905.677" rx="2.444" ry="2.147"/><ellipse cx="655.578" cy="1844.963" rx="2.9" ry="2.547"/><ellipse cx="284.809" cy="1838.523" rx="2.444" ry="2.147"/><ellipse cx="402.826" cy="1782.153" rx="2.9" ry="2.546"/><path d="M455.26 1606.03c3.064.685 3.064 4.177 1.36 5.178-2.272 1-3.98-1.498-4.583-3.6.168-1.317 1.654-1.986 3.223-1.577z"/><ellipse cx="520.618" cy="2532.379" rx="3.81" ry="3.346"/><ellipse cx="369.229" cy="1827.039" rx="2.9" ry="2.547"/><ellipse cx="812.725" cy="2261.197" rx="2.445" ry="2.147"/><ellipse cx="250.466" cy="2587.034" rx="3.809" ry="3.345"/><ellipse cx="419.768" cy="1962.197" rx="2.899" ry="2.546"/><ellipse cx="298.906" cy="1912.916" rx="2.445" ry="2.147"/><ellipse cx="850.018" cy="1748.691" rx="3.809" ry="3.345"/><ellipse cx="591.33" cy="2790.596" rx="2.898" ry="2.546"/><path d="M404.805 1868.395c1.273-.024 2.536 1.002 2.696 2.25.16 1.25-.88 2.228-2.228 2.228s-2.445-.956-2.523-2.18c-.088-1.218.777-2.27 2.055-2.298z"/><ellipse cx="254.273" cy="2140.269" rx="3.81" ry="3.345"/><ellipse cx="772.018" cy="1809.364" rx="2.898" ry="2.547"/><ellipse cx="584.289" cy="1931.141" rx="2.447" ry="2.146"/><ellipse cx="287.252" cy="2342.132" rx="3.811" ry="3.345"/><ellipse cx="345.693" cy="2119.148" rx="2.9" ry="2.547"/><ellipse cx="699.693" cy="2243.472" rx="3.809" ry="3.345"/><ellipse cx="298.906" cy="2003.688" rx="2.617" ry="2.298"/><ellipse cx="412.605" cy="2483.069" rx="3.809" ry="3.346"/><ellipse cx="900.537" cy="1996.872" rx="2.9" ry="2.547"/><ellipse cx="903.438" cy="2730.379" rx="3.809" ry="3.345"/><ellipse cx="676.842" cy="1960" rx="2.443" ry="2.147"/><ellipse cx="708.732" cy="2029.951" rx="2.447" ry="2.147"/><ellipse cx="426.533" cy="2181.66" rx="3.809" ry="3.346"/><ellipse cx="662.23" cy="2022.961" rx="2.445" ry="2.147"/><ellipse cx="868.018" cy="2587.034" rx="3.809" ry="3.345"/><ellipse cx="457.801" cy="2382.27" rx="2.898" ry="2.547"/><ellipse cx="432.787" cy="2686.379" rx="2.445" ry="2.147"/><ellipse cx="313.574" cy="2217.31" rx="3.809" ry="3.346"/><ellipse cx="652.68" cy="2590.379" rx="2.898" ry="2.547"/><ellipse cx="416.926" cy="2053.018" rx="2.445" ry="2.147"/><ellipse cx="422.725" cy="2282.517" rx="3.809" ry="3.346"/><ellipse cx="500.323" cy="2050.472" rx="2.899" ry="2.547"/><ellipse cx="258.082" cy="2841.124" rx="3.811" ry="3.345"/><ellipse cx="803.117" cy="2535.724" rx="2.445" ry="2.147"/><ellipse cx="699.693" cy="1932.439" rx="2.9" ry="2.547"/><ellipse cx="826.209" cy="2376.379" rx="3.809" ry="3.345"/><ellipse cx="728.918" cy="2748.379" rx="2.898" ry="2.547"/><ellipse cx="452.457" cy="1752.295" rx="2.443" ry="2.147"/></g></g><g fill="#CAEAE9"><ellipse cx="1524.226" cy="845.555" rx="3.809" ry="3.345"/><ellipse cx="1002.621" cy="129.72" rx="2.899" ry="2.547"/><ellipse cx="1174.306" cy="79.242" rx="2.446" ry="2.147"/><ellipse cx="850.716" cy="193.57" rx="2.616" ry="2.298"/><ellipse cx="840.481" cy="63.488" rx="3.81" ry="3.346"/><ellipse cx="950.093" cy="152.987" rx="2.899" ry="2.547"/><ellipse cx="1266.858" cy="108.102" rx="2.443" ry="2.147"/><ellipse cx="1157.761" cy="540.162" rx="2.901" ry="2.546"/><ellipse cx="1298.749" cy="178.052" rx="2.447" ry="2.147"/><ellipse cx="1177.206" cy="758.303" rx="3.809" ry="3.346"/><ellipse cx="1252.247" cy="171.062" rx="2.445" ry="2.147"/><ellipse cx="1301.308" cy="238.467" rx="2.447" ry="2.147"/><ellipse cx="1271.747" cy="923.556" rx="3.809" ry="3.346"/><ellipse cx="1264.071" cy="206.712" rx="2.9" ry="2.546"/><ellipse cx="1105.86" cy="254.393" rx="2.444" ry="2.147"/><ellipse cx="1359.134" cy="603.274" rx="2.9" ry="2.546"/><ellipse cx="1362.034" cy="337.076" rx="2.444" ry="2.147"/><ellipse cx="1215.978" cy="156.433" rx="2.898" ry="2.547"/><ellipse cx="1269.302" cy="145.898" rx="2.443" ry="2.146"/><ellipse cx="1487.654" cy="571.418" rx="2.899" ry="2.547"/><ellipse cx="1135.193" cy="199.471" rx="2.444" ry="2.147"/><ellipse cx="1483.845" cy="337.077" rx="3.811" ry="3.345"/><ellipse cx="882.669" cy="206.712" rx="2.9" ry="2.546"/><ellipse cx="1289.71" cy="80.541" rx="2.9" ry="2.547"/><ellipse cx="1142.414" cy="345.664" rx="2.444" ry="2.147"/><ellipse cx="1396.034" cy="474.981" rx="2.898" ry="2.547"/><ellipse cx="1090.339" cy="625.491" rx="2.899" ry="2.547"/><ellipse cx="927.012" cy="333.431" rx="2.444" ry="2.147"/><ellipse cx="1160.662" cy="289.594" rx="2.901" ry="2.547"/><ellipse cx="838.038" cy="352.854" rx="2.443" ry="2.147"/><ellipse cx="1245.595" cy="292.14" rx="2.9" ry="2.547"/><ellipse cx="874.824" cy="285.699" rx="2.444" ry="2.147"/><ellipse cx="992.843" cy="229.329" rx="2.899" ry="2.546"/><path d="M1045.276 53.208c3.064.684 3.064 4.176 1.358 5.177-2.27 1-3.98-1.498-4.582-3.6.17-1.318 1.656-1.987 3.224-1.577z"/><ellipse cx="1110.634" cy="979.556" rx="3.81" ry="3.346"/><ellipse cx="959.245" cy="274.215" rx="2.9" ry="2.547"/><ellipse cx="1402.741" cy="708.373" rx="2.445" ry="2.147"/><ellipse cx="840.481" cy="1034.211" rx="3.809" ry="3.345"/><ellipse cx="1009.784" cy="409.374" rx="2.898" ry="2.546"/><ellipse cx="888.923" cy="360.093" rx="2.444" ry="2.147"/><ellipse cx="1440.034" cy="195.868" rx="3.809" ry="3.345"/><ellipse cx="1181.346" cy="1237.773" rx="2.899" ry="2.546"/><path d="M994.82 315.57c1.274-.023 2.536 1.003 2.696 2.252.158 1.25-.882 2.227-2.23 2.227-1.347 0-2.444-.957-2.523-2.18-.084-1.22.78-2.27 2.058-2.3z"/><ellipse cx="844.29" cy="587.445" rx="3.809" ry="3.345"/><ellipse cx="1362.034" cy="256.541" rx="2.898" ry="2.547"/><ellipse cx="1174.306" cy="378.318" rx="2.446" ry="2.146"/><ellipse cx="877.269" cy="789.309" rx="3.81" ry="3.345"/><ellipse cx="935.71" cy="566.325" rx="2.899" ry="2.547"/><ellipse cx="1289.71" cy="690.648" rx="3.809" ry="3.345"/><ellipse cx="888.923" cy="450.864" rx="2.617" ry="2.298"/><ellipse cx="1002.621" cy="930.246" rx="3.81" ry="3.346"/><ellipse cx="1490.554" cy="444.049" rx="2.899" ry="2.547"/><ellipse cx="1493.453" cy="1177.556" rx="3.809" ry="3.345"/><ellipse cx="1266.858" cy="407.177" rx="2.443" ry="2.147"/><ellipse cx="1298.749" cy="477.128" rx="2.447" ry="2.147"/><ellipse cx="1016.55" cy="628.836" rx="3.809" ry="3.346"/><ellipse cx="1252.247" cy="470.138" rx="2.445" ry="2.147"/><ellipse cx="1458.034" cy="1034.211" rx="3.809" ry="3.345"/><ellipse cx="1047.817" cy="829.447" rx="2.898" ry="2.547"/><ellipse cx="1022.804" cy="1133.556" rx="2.445" ry="2.147"/><ellipse cx="903.59" cy="664.487" rx="3.81" ry="3.346"/><ellipse cx="1242.695" cy="1037.556" rx="2.899" ry="2.547"/><ellipse cx="1006.942" cy="500.194" rx="2.445" ry="2.147"/><ellipse cx="1012.74" cy="729.694" rx="3.81" ry="3.346"/><ellipse cx="1090.339" cy="497.649" rx="2.9" ry="2.547"/><ellipse cx="848.099" cy="1288.3" rx="3.811" ry="3.345"/><ellipse cx="1393.134" cy="982.901" rx="2.444" ry="2.147"/><ellipse cx="1289.71" cy="379.616" rx="2.9" ry="2.547"/><ellipse cx="1416.226" cy="823.555" rx="3.809" ry="3.345"/><ellipse cx="1318.934" cy="1195.556" rx="2.899" ry="2.547"/><ellipse cx="1042.473" cy="199.471" rx="2.444" ry="2.147"/><g><ellipse cx="1511.226" cy="1077.555" rx="3.809" ry="3.345"/><ellipse cx="989.621" cy="361.72" rx="2.899" ry="2.547"/><ellipse cx="1161.306" cy="311.242" rx="2.446" ry="2.147"/><ellipse cx="837.716" cy="425.57" rx="2.616" ry="2.298"/><ellipse cx="827.481" cy="295.488" rx="3.81" ry="3.346"/><ellipse cx="937.093" cy="384.987" rx="2.899" ry="2.547"/><ellipse cx="1253.858" cy="340.102" rx="2.443" ry="2.147"/><ellipse cx="1144.761" cy="772.162" rx="2.901" ry="2.546"/><ellipse cx="1285.749" cy="410.052" rx="2.447" ry="2.147"/><ellipse cx="1164.206" cy="990.303" rx="3.809" ry="3.346"/><ellipse cx="1239.247" cy="403.062" rx="2.445" ry="2.147"/><ellipse cx="1288.308" cy="470.467" rx="2.447" ry="2.147"/><ellipse cx="1258.747" cy="1155.556" rx="3.809" ry="3.346"/><ellipse cx="1251.071" cy="438.712" rx="2.9" ry="2.546"/><ellipse cx="1092.86" cy="486.393" rx="2.444" ry="2.147"/><ellipse cx="1346.134" cy="835.274" rx="2.9" ry="2.546"/><ellipse cx="1349.034" cy="569.076" rx="2.444" ry="2.147"/><ellipse cx="1202.978" cy="388.433" rx="2.898" ry="2.547"/><ellipse cx="1256.302" cy="377.898" rx="2.443" ry="2.146"/><ellipse cx="1474.654" cy="803.418" rx="2.899" ry="2.547"/><ellipse cx="1122.193" cy="431.471" rx="2.444" ry="2.147"/><ellipse cx="1470.845" cy="569.077" rx="3.811" ry="3.345"/><ellipse cx="869.669" cy="438.712" rx="2.9" ry="2.546"/><ellipse cx="1276.71" cy="312.541" rx="2.9" ry="2.547"/><ellipse cx="1129.414" cy="577.664" rx="2.444" ry="2.147"/><ellipse cx="1383.034" cy="706.981" rx="2.898" ry="2.547"/><ellipse cx="1077.339" cy="857.491" rx="2.899" ry="2.547"/><ellipse cx="914.012" cy="565.431" rx="2.444" ry="2.147"/><ellipse cx="1147.662" cy="521.594" rx="2.901" ry="2.547"/><ellipse cx="825.038" cy="584.854" rx="2.443" ry="2.147"/><ellipse cx="1232.595" cy="524.14" rx="2.9" ry="2.547"/><ellipse cx="861.824" cy="517.699" rx="2.444" ry="2.147"/><ellipse cx="979.843" cy="461.329" rx="2.899" ry="2.546"/><path d="M1032.276 285.208c3.064.684 3.064 4.176 1.358 5.177-2.27 1-3.98-1.498-4.582-3.6.17-1.318 1.656-1.987 3.224-1.577z"/><ellipse cx="1097.634" cy="1211.556" rx="3.81" ry="3.346"/><ellipse cx="946.245" cy="506.215" rx="2.9" ry="2.547"/><ellipse cx="1389.741" cy="940.373" rx="2.445" ry="2.147"/><ellipse cx="827.481" cy="1266.211" rx="3.809" ry="3.345"/><ellipse cx="996.784" cy="641.374" rx="2.898" ry="2.546"/><ellipse cx="875.923" cy="592.093" rx="2.444" ry="2.147"/><ellipse cx="1427.034" cy="427.868" rx="3.809" ry="3.345"/><ellipse cx="1168.346" cy="1469.773" rx="2.899" ry="2.546"/><path d="M981.82 547.57c1.274-.023 2.536 1.003 2.696 2.252.158 1.25-.882 2.227-2.23 2.227-1.347 0-2.444-.957-2.523-2.18-.084-1.22.78-2.27 2.058-2.3z"/><ellipse cx="831.29" cy="819.445" rx="3.809" ry="3.345"/><ellipse cx="1349.034" cy="488.541" rx="2.898" ry="2.547"/><ellipse cx="1161.306" cy="610.318" rx="2.446" ry="2.146"/><ellipse cx="864.269" cy="1021.309" rx="3.81" ry="3.345"/><ellipse cx="922.71" cy="798.325" rx="2.899" ry="2.547"/><ellipse cx="1276.71" cy="922.648" rx="3.809" ry="3.345"/><ellipse cx="875.923" cy="682.864" rx="2.617" ry="2.298"/><ellipse cx="989.621" cy="1162.246" rx="3.81" ry="3.346"/><ellipse cx="1477.554" cy="676.049" rx="2.899" ry="2.547"/><ellipse cx="1480.453" cy="1409.556" rx="3.809" ry="3.345"/><ellipse cx="1253.858" cy="639.177" rx="2.443" ry="2.147"/><ellipse cx="1285.749" cy="709.128" rx="2.447" ry="2.147"/><ellipse cx="1003.55" cy="860.836" rx="3.809" ry="3.346"/><ellipse cx="1239.247" cy="702.138" rx="2.445" ry="2.147"/><ellipse cx="1445.034" cy="1266.211" rx="3.809" ry="3.345"/><ellipse cx="1034.817" cy="1061.447" rx="2.898" ry="2.547"/><ellipse cx="1009.804" cy="1365.556" rx="2.445" ry="2.147"/><ellipse cx="890.59" cy="896.487" rx="3.81" ry="3.346"/><ellipse cx="1229.695" cy="1269.556" rx="2.899" ry="2.547"/><ellipse cx="993.942" cy="732.194" rx="2.445" ry="2.147"/><ellipse cx="999.74" cy="961.694" rx="3.81" ry="3.346"/><ellipse cx="1077.339" cy="729.649" rx="2.9" ry="2.547"/><ellipse cx="835.099" cy="1520.3" rx="3.811" ry="3.345"/><ellipse cx="1380.134" cy="1214.901" rx="2.444" ry="2.147"/><ellipse cx="1276.71" cy="611.616" rx="2.9" ry="2.547"/><ellipse cx="1403.226" cy="1055.555" rx="3.809" ry="3.345"/><ellipse cx="1305.934" cy="1427.556" rx="2.899" ry="2.547"/><ellipse cx="1029.473" cy="431.471" rx="2.444" ry="2.147"/></g></g><g fill="#CAEAE9"><ellipse cx="1827.485" cy="2027.694" rx="3.809" ry="3.345"/><ellipse cx="1305.882" cy="1311.859" rx="2.899" ry="2.547"/><ellipse cx="1477.565" cy="1261.381" rx="2.447" ry="2.147"/><ellipse cx="1153.976" cy="1375.708" rx="2.617" ry="2.298"/><ellipse cx="1143.742" cy="1245.627" rx="3.81" ry="3.346"/><ellipse cx="1253.353" cy="1335.126" rx="2.9" ry="2.547"/><ellipse cx="1570.118" cy="1290.241" rx="2.443" ry="2.147"/><ellipse cx="1461.021" cy="1722.301" rx="2.902" ry="2.546"/><ellipse cx="1602.009" cy="1360.19" rx="2.447" ry="2.147"/><ellipse cx="1480.466" cy="1940.441" rx="3.809" ry="3.346"/><ellipse cx="1555.507" cy="1353.2" rx="2.445" ry="2.147"/><ellipse cx="1604.567" cy="1420.605" rx="2.447" ry="2.147"/><ellipse cx="1575.007" cy="2105.694" rx="3.809" ry="3.346"/><ellipse cx="1567.331" cy="1388.851" rx="2.9" ry="2.546"/><ellipse cx="1409.12" cy="1436.532" rx="2.445" ry="2.147"/><ellipse cx="1662.394" cy="1785.412" rx="2.9" ry="2.546"/><ellipse cx="1665.294" cy="1519.215" rx="2.445" ry="2.147"/><ellipse cx="1519.237" cy="1338.572" rx="2.898" ry="2.547"/><ellipse cx="1572.562" cy="1328.037" rx="2.443" ry="2.146"/><ellipse cx="1790.915" cy="1753.557" rx="2.898" ry="2.547"/><ellipse cx="1438.454" cy="1381.61" rx="2.443" ry="2.147"/><ellipse cx="1787.104" cy="1519.215" rx="3.811" ry="3.345"/><ellipse cx="1185.93" cy="1388.851" rx="2.899" ry="2.546"/><ellipse cx="1592.97" cy="1262.679" rx="2.9" ry="2.547"/><ellipse cx="1445.675" cy="1527.803" rx="2.443" ry="2.147"/><ellipse cx="1699.294" cy="1657.12" rx="2.898" ry="2.547"/><ellipse cx="1393.599" cy="1807.63" rx="2.9" ry="2.547"/><ellipse cx="1230.272" cy="1515.57" rx="2.444" ry="2.147"/><ellipse cx="1463.923" cy="1471.733" rx="2.9" ry="2.547"/><ellipse cx="1141.298" cy="1534.993" rx="2.444" ry="2.147"/><ellipse cx="1548.854" cy="1474.279" rx="2.9" ry="2.547"/><ellipse cx="1178.085" cy="1467.838" rx="2.444" ry="2.147"/><ellipse cx="1296.103" cy="1411.468" rx="2.9" ry="2.546"/><path d="M1348.536 1235.346c3.064.684 3.064 4.176 1.36 5.177-2.272 1-3.98-1.498-4.583-3.6.168-1.317 1.655-1.986 3.223-1.577z"/><ellipse cx="1413.895" cy="2161.694" rx="3.81" ry="3.346"/><ellipse cx="1262.505" cy="1456.354" rx="2.9" ry="2.547"/><ellipse cx="1706.001" cy="1890.512" rx="2.445" ry="2.147"/><ellipse cx="1143.742" cy="2216.349" rx="3.809" ry="3.345"/><ellipse cx="1313.044" cy="1591.512" rx="2.899" ry="2.546"/><ellipse cx="1192.183" cy="1542.232" rx="2.445" ry="2.147"/><ellipse cx="1743.294" cy="1378.006" rx="3.809" ry="3.345"/><ellipse cx="1484.606" cy="2419.912" rx="2.898" ry="2.546"/><path d="M1298.08 1497.71c1.274-.024 2.537 1.002 2.697 2.25.158 1.25-.882 2.228-2.23 2.228s-2.444-.956-2.522-2.18c-.087-1.218.78-2.27 2.056-2.298z"/><ellipse cx="1147.55" cy="1769.584" rx="3.81" ry="3.345"/><ellipse cx="1665.294" cy="1438.679" rx="2.898" ry="2.547"/><ellipse cx="1477.565" cy="1560.457" rx="2.447" ry="2.146"/><ellipse cx="1180.528" cy="1971.448" rx="3.811" ry="3.345"/><ellipse cx="1238.97" cy="1748.464" rx="2.9" ry="2.547"/><ellipse cx="1592.97" cy="1872.787" rx="3.809" ry="3.345"/><ellipse cx="1192.183" cy="1633.003" rx="2.617" ry="2.298"/><ellipse cx="1305.882" cy="2112.385" rx="3.809" ry="3.346"/><ellipse cx="1793.813" cy="1626.188" rx="2.9" ry="2.547"/><ellipse cx="1796.714" cy="2359.694" rx="3.809" ry="3.345"/><ellipse cx="1570.118" cy="1589.315" rx="2.443" ry="2.147"/><ellipse cx="1602.009" cy="1659.266" rx="2.447" ry="2.147"/><ellipse cx="1319.81" cy="1810.975" rx="3.809" ry="3.346"/><ellipse cx="1555.507" cy="1652.276" rx="2.445" ry="2.147"/><ellipse cx="1761.294" cy="2216.349" rx="3.809" ry="3.345"/><ellipse cx="1351.077" cy="2011.586" rx="2.898" ry="2.547"/><ellipse cx="1326.063" cy="2315.694" rx="2.445" ry="2.147"/><ellipse cx="1206.851" cy="1846.625" rx="3.809" ry="3.346"/><ellipse cx="1545.956" cy="2219.695" rx="2.898" ry="2.547"/><ellipse cx="1310.202" cy="1682.333" rx="2.445" ry="2.147"/><ellipse cx="1316.001" cy="1911.833" rx="3.809" ry="3.346"/><ellipse cx="1393.6" cy="1679.787" rx="2.899" ry="2.547"/><ellipse cx="1151.358" cy="2470.439" rx="3.811" ry="3.345"/><ellipse cx="1696.394" cy="2165.04" rx="2.445" ry="2.147"/><ellipse cx="1592.97" cy="1561.754" rx="2.9" ry="2.547"/><ellipse cx="1719.485" cy="2005.694" rx="3.809" ry="3.345"/><ellipse cx="1622.194" cy="2377.695" rx="2.898" ry="2.547"/><ellipse cx="1345.733" cy="1381.61" rx="2.443" ry="2.147"/><g><ellipse cx="1814.485" cy="2259.694" rx="3.809" ry="3.345"/><ellipse cx="1292.882" cy="1543.859" rx="2.899" ry="2.547"/><ellipse cx="1464.565" cy="1493.381" rx="2.447" ry="2.147"/><ellipse cx="1140.976" cy="1607.708" rx="2.617" ry="2.298"/><ellipse cx="1130.742" cy="1477.627" rx="3.81" ry="3.346"/><ellipse cx="1240.353" cy="1567.126" rx="2.9" ry="2.547"/><ellipse cx="1557.118" cy="1522.241" rx="2.443" ry="2.147"/><ellipse cx="1448.021" cy="1954.301" rx="2.902" ry="2.546"/><ellipse cx="1589.009" cy="1592.19" rx="2.447" ry="2.147"/><ellipse cx="1467.466" cy="2172.441" rx="3.809" ry="3.346"/><ellipse cx="1542.507" cy="1585.2" rx="2.445" ry="2.147"/><ellipse cx="1591.567" cy="1652.605" rx="2.447" ry="2.147"/><ellipse cx="1562.007" cy="2337.694" rx="3.809" ry="3.346"/><ellipse cx="1554.331" cy="1620.851" rx="2.9" ry="2.546"/><ellipse cx="1396.12" cy="1668.532" rx="2.445" ry="2.147"/><ellipse cx="1649.394" cy="2017.412" rx="2.9" ry="2.546"/><ellipse cx="1652.294" cy="1751.215" rx="2.445" ry="2.147"/><ellipse cx="1506.237" cy="1570.572" rx="2.898" ry="2.547"/><ellipse cx="1559.562" cy="1560.037" rx="2.443" ry="2.146"/><ellipse cx="1777.915" cy="1985.557" rx="2.898" ry="2.547"/><ellipse cx="1425.454" cy="1613.61" rx="2.443" ry="2.147"/><ellipse cx="1774.104" cy="1751.215" rx="3.811" ry="3.345"/><ellipse cx="1172.93" cy="1620.851" rx="2.899" ry="2.546"/><ellipse cx="1579.97" cy="1494.679" rx="2.9" ry="2.547"/><ellipse cx="1432.675" cy="1759.803" rx="2.443" ry="2.147"/><ellipse cx="1686.294" cy="1889.12" rx="2.898" ry="2.547"/><ellipse cx="1380.599" cy="2039.63" rx="2.9" ry="2.547"/><ellipse cx="1217.272" cy="1747.57" rx="2.444" ry="2.147"/><ellipse cx="1450.923" cy="1703.733" rx="2.9" ry="2.547"/><ellipse cx="1128.298" cy="1766.993" rx="2.444" ry="2.147"/><ellipse cx="1535.854" cy="1706.279" rx="2.9" ry="2.547"/><ellipse cx="1165.085" cy="1699.838" rx="2.444" ry="2.147"/><ellipse cx="1283.103" cy="1643.468" rx="2.9" ry="2.546"/><path d="M1335.536 1467.346c3.064.684 3.064 4.176 1.36 5.177-2.272 1-3.98-1.498-4.583-3.6.168-1.317 1.655-1.986 3.223-1.577z"/><ellipse cx="1400.895" cy="2393.694" rx="3.81" ry="3.346"/><ellipse cx="1249.505" cy="1688.354" rx="2.9" ry="2.547"/><ellipse cx="1693.001" cy="2122.512" rx="2.445" ry="2.147"/><ellipse cx="1130.742" cy="2448.349" rx="3.809" ry="3.345"/><ellipse cx="1300.044" cy="1823.512" rx="2.899" ry="2.546"/><ellipse cx="1179.183" cy="1774.232" rx="2.445" ry="2.147"/><ellipse cx="1730.294" cy="1610.006" rx="3.809" ry="3.345"/><ellipse cx="1471.606" cy="2651.912" rx="2.898" ry="2.546"/><path d="M1285.08 1729.71c1.274-.024 2.537 1.002 2.697 2.25.158 1.25-.882 2.228-2.23 2.228s-2.444-.956-2.522-2.18c-.087-1.218.78-2.27 2.056-2.298z"/><ellipse cx="1134.55" cy="2001.584" rx="3.81" ry="3.345"/><ellipse cx="1652.294" cy="1670.679" rx="2.898" ry="2.547"/><ellipse cx="1464.565" cy="1792.457" rx="2.447" ry="2.146"/><ellipse cx="1167.528" cy="2203.448" rx="3.811" ry="3.345"/><ellipse cx="1225.97" cy="1980.464" rx="2.9" ry="2.547"/><ellipse cx="1579.97" cy="2104.787" rx="3.809" ry="3.345"/><ellipse cx="1179.183" cy="1865.003" rx="2.617" ry="2.298"/><ellipse cx="1292.882" cy="2344.385" rx="3.809" ry="3.346"/><ellipse cx="1780.813" cy="1858.188" rx="2.9" ry="2.547"/><ellipse cx="1783.714" cy="2591.694" rx="3.809" ry="3.345"/><ellipse cx="1557.118" cy="1821.315" rx="2.443" ry="2.147"/><ellipse cx="1589.009" cy="1891.266" rx="2.447" ry="2.147"/><ellipse cx="1306.81" cy="2042.975" rx="3.809" ry="3.346"/><ellipse cx="1542.507" cy="1884.276" rx="2.445" ry="2.147"/><ellipse cx="1748.294" cy="2448.349" rx="3.809" ry="3.345"/><ellipse cx="1338.077" cy="2243.586" rx="2.898" ry="2.547"/><ellipse cx="1313.063" cy="2547.694" rx="2.445" ry="2.147"/><ellipse cx="1193.851" cy="2078.625" rx="3.809" ry="3.346"/><ellipse cx="1532.956" cy="2451.695" rx="2.898" ry="2.547"/><ellipse cx="1297.202" cy="1914.333" rx="2.445" ry="2.147"/><ellipse cx="1303.001" cy="2143.833" rx="3.809" ry="3.346"/><ellipse cx="1380.6" cy="1911.787" rx="2.899" ry="2.547"/><ellipse cx="1138.358" cy="2702.439" rx="3.811" ry="3.345"/><ellipse cx="1683.394" cy="2397.04" rx="2.445" ry="2.147"/><ellipse cx="1579.97" cy="1793.754" rx="2.9" ry="2.547"/><ellipse cx="1706.485" cy="2237.694" rx="3.809" ry="3.345"/><ellipse cx="1609.194" cy="2609.695" rx="2.898" ry="2.547"/><ellipse cx="1332.733" cy="1613.61" rx="2.443" ry="2.147"/></g></g><path fill="none" d="M1940.718 5014.918h4325.174"/><path fill="#FF8A64" d="M-24.692 4609.877V4468.86l1865.27-104.93v347.957"/><path fill="#FA7359" d="M-24.692 4468.86v-222.02l1865.27 57.008v60.082"/><path fill="#FA695A" d="M-24.692 3979.93v266.91l1865.27 57.008v-72.01"/><path fill="#F5615A" d="M-24.692 3874.804v105.125l1865.27 251.91v-429.044"/><path fill="#FF9563" d="M-24.692 4609.877v210.02l1865.27-71.967v-36.043"/><path fill="none" stroke="#617EE5" stroke-width="38" stroke-linecap="round" stroke-linejoin="round" stroke-miterlimit="10" d="M132.03 3420.93h174.216M227.174 3456.93h167.143M1293.143 3402.93h174.213M1388.286 3438.93h167.143M722.72 3366.93h174.214M817.863 3402.93h167.143"/><path fill="none" stroke="#4E64B7" stroke-width="22" stroke-linecap="round" stroke-linejoin="round" stroke-miterlimit="10" d="M319.93 3657.15h87.106M351.5 3678.15h83.57M1319.143 3109.598h87.107M1350.714 3130.598h83.57M1261.57 3619.65h87.11M1293.143 3640.65h83.57"/><path fill="none" stroke="#839EFF" stroke-width="53" stroke-linecap="round" stroke-linejoin="round" stroke-miterlimit="10" d="M396.587 3169.733H586.14"/><path fill="none" stroke="#839EFF" stroke-width="50" stroke-linecap="round" stroke-linejoin="round" stroke-miterlimit="10" d="M484.34 3120.098h181.857"/><path fill="none" stroke="#839EFF" stroke-width="53" stroke-linecap="round" stroke-linejoin="round" stroke-miterlimit="10" d="M922.32 3706.786h189.552"/><path fill="none" stroke="#839EFF" stroke-width="50" stroke-linecap="round" stroke-linejoin="round" stroke-miterlimit="10" d="M842.262 3657.15h181.858"/></svg>