<svg xmlns="http://www.w3.org/2000/svg" width="138" height="138" viewBox="0 0 138 138"><g id="logoCog" fill="#FF895A"><path fill-rule="evenodd" clip-rule="evenodd" d="M125.38 57.44h-3.33c-.9-5.12-2.5-10-4.7-14.52l2.68-1.95c2.88-2.09 3.22-6.52.77-9.9l-2.41-3.32c-2.45-3.37-6.77-4.42-9.65-2.33l-2.7 1.96c-3.66-3.53-7.81-6.57-12.33-8.98l1.03-3.16c1.1-3.38-1.23-7.17-5.2-8.46l-3.9-1.27c-3.97-1.29-8.08.41-9.17 3.79l-1.03 3.17c-2.5-.35-5.04-.54-7.63-.54s-5.14.19-7.63.54L59.15 9.3c-1.1-3.38-5.2-5.08-9.17-3.79l-3.9 1.27c-3.97 1.29-6.29 5.08-5.2 8.46l1.03 3.16c-4.53 2.42-8.67 5.45-12.34 8.98l-2.7-1.96c-2.88-2.09-7.2-1.05-9.65 2.33l-2.41 3.32c-2.45 3.37-2.11 7.8.77 9.9l2.69 1.95c-2.21 4.53-3.8 9.4-4.7 14.52h-3.33c-3.56 0-6.44 3.38-6.44 7.55v4.1c0 4.17 2.88 7.55 6.44 7.55h3.33c.9 5.12 2.5 9.99 4.7 14.52l-2.69 1.95c-2.88 2.09-3.22 6.52-.77 9.89l2.41 3.32c2.45 3.38 6.77 4.42 9.65 2.33l2.7-1.96c3.66 3.53 7.81 6.57 12.34 8.98l-1.03 3.16c-1.1 3.38 1.23 7.17 5.19 8.46l3.9 1.27c3.97 1.29 8.07-.41 9.17-3.79l1.03-3.17c2.5.35 5.04.54 7.63.54s5.13-.19 7.63-.54l1.03 3.17c1.1 3.38 5.21 5.08 9.17 3.79l3.9-1.27c3.97-1.29 6.29-5.08 5.19-8.46l-1.03-3.16c4.53-2.42 8.67-5.45 12.34-8.98l2.7 1.96c2.88 2.09 7.2 1.05 9.65-2.33l2.41-3.32c2.45-3.38 2.11-7.8-.77-9.89l-2.69-1.95c2.21-4.53 3.8-9.4 4.7-14.52h3.33c3.56 0 6.44-3.38 6.44-7.55v-4.1c.02-4.17-2.86-7.55-6.42-7.55zM67.8 106.25c-21.65 0-39.2-17.55-39.2-39.2 0-21.65 17.55-39.2 39.2-39.2 21.65 0 39.2 17.55 39.2 39.2 0 21.65-17.55 39.2-39.2 39.2z"/><path d="M67.8 110.43c-23.92 0-43.39-19.46-43.39-43.39S43.87 23.66 67.8 23.66c23.92 0 43.39 19.47 43.39 43.39s-19.47 43.38-43.39 43.38zm0-67.97c-13.56 0-24.59 11.03-24.59 24.59S54.24 91.64 67.8 91.64s24.59-11.03 24.59-24.59c-.01-13.56-11.04-24.59-24.59-24.59z"/></g><g id="akuMask"><path fill="#684D23" d="M42.77 111.28c.62 0 52.7.88 51.53 0-1.17-.88 4.54-31.23 3.66-34.39-.88-3.16 1.03-35.4 0-38.62-1.03-3.23-23.9.59-28.88-1.47-4.98-2.05-36.07 2.64-35.48 7.18s4.4 27.27 4.59 33.57c.19 6.3 3.96 33.72 3.96 33.72"/><path fill="#2B0F02" d="M48.47 80.07s-6.55.53-6.55 7.08.4 13.36 2.54 14.57c2.14 1.2 1.87 2.14 8.69 3.21 6.82 1.07 6.15-3.07 14.57-2.94 8.42.13 8.69 3.16 16.84 3.12 8.15-.04 8.82-11.8 8.82-11.8s3.21-12.56-6.55-13.23c-9.76-.67-16.44 2.27-18.91 1.74-2.48-.55-15.7-3.14-19.45-1.75z"/><path fill="#E0A651" d="M50.43 82.3s-5.79.43-5.79 5.69c0 5.26.35 10.73 2.24 11.69 1.89.97 1.65 1.72 7.68 2.58 6.02.86 5.43-2.47 12.87-2.36 7.44.11 7.68 2.54 14.88 2.5 7.2-.03 7.79-9.47 7.79-9.47s2.83-10.09-5.79-10.62c-8.62-.54-14.53 1.82-16.71 1.39-2.18-.44-13.86-2.52-17.17-1.4z"/><path fill="none" stroke="#7A5226" stroke-linecap="round" stroke-linejoin="round" stroke-miterlimit="10" d="M45.05 92.18s32.64-2.32 45.27 0m-41.36-8.99s-.47 17.06 0 17.26"/><path fill="none" d="M55.3 79.36l2.17 22.07"/><path fill="none" stroke="#7A5226" stroke-linecap="round" stroke-linejoin="round" stroke-miterlimit="10" d="M55.82 82.51l1.79 19.59M68.5 83.73l-.58 15.71m11.42-16.7l-.99 18.63m8.72-18.18l-.51 17.44"/><path fill="#A5792B" d="M63.21 51.02l-2.2 11.73s-2.05 6.01 1.1 8.36c3.15 2.35-9.46-3.52-12.68-.73-3.23 2.79 2.05 4.4 2.05 4.4s12.9 1.9 13.64 2.05c.73.15 3.21 0 3.21 0l9.54-.73s12.76-2.2 8.5-5.28c-4.25-3.08-13.34.59-13.34.59s3.52-1.32-2.35-20.38c7.33-5.87 16.55-4.55 16.55-4.55s5.88.29 7.05 6.01 5.28-5.28 0-8.36c-5.28-3.08-7.33-4.84-16.57-1.17C68.49 46.63 66 44.87 66 44.87s-21.99-7.18-25.8-.44c-3.81 6.75-1.03 8.21-1.03 8.21s4.4-7.18 10.56-5.72c6.15 1.47 8.65 2.05 13.48 4.1z"/><path d="M56.11 55.3c-11.29-10.26-13.33-4.28-13.34 7.58.34 4.28 5.7 3.14 5.7 3.14s18.92-.46 7.64-10.72zm-.07.08c-.4-.35-.79-.7-1.21-1.02-.43-.31-.83-.64-1.28-.91-.44-.29-.89-.56-1.35-.81-.46-.24-.92-.49-1.39-.69-.46-.22-.94-.4-1.4-.56-.46-.17-.93-.29-1.36-.36-.44-.08-.86-.1-1.23-.04-.37.06-.7.2-1.01.43-.61.48-1.14 1.31-1.52 2.24-.2.46-.35.95-.5 1.44-.14.49-.27 1-.35 1.52-.19 1.03-.27 2.07-.3 3.12-.03 1.05.01 2.1.09 3.15v-.04c.08.27.1.55.23.79l.16.36.23.3c.06.11.17.18.26.26.08.09.18.16.29.22.11.06.2.14.32.17.12.04.23.1.35.13.24.08.5.13.76.16.27.02.54.05.81.04.27 0 .55-.02.83-.05.27-.03.57-.07.79-.13l.05-.01.12-.01c.78-.05 1.61-.15 2.42-.27.81-.12 1.6-.29 2.39-.44.79-.17 1.55-.38 2.29-.61.37-.12.72-.26 1.07-.41.34-.16.66-.33.96-.51.15-.09.28-.2.42-.3l.36-.33c.21-.23.4-.48.5-.76.07-.14.12-.29.14-.45.04-.16.05-.33.04-.51.01-.18-.01-.36-.06-.54-.03-.18-.06-.37-.14-.56-.21-.76-.66-1.47-1.12-2.16-.26-.32-.51-.66-.79-.97l-.87-.88zm.13-.15c.63.56 1.24 1.14 1.85 1.74.27.33.6.61.87.96.27.34.56.68.79 1.08.13.19.23.4.32.61.1.21.19.43.25.68.07.24.12.48.13.74.03.26.02.52-.03.79-.07.54-.32 1.03-.59 1.48-.3.43-.67.79-1.05 1.1-.77.62-1.62 1-2.46 1.33-.84.33-1.71.54-2.56.72-.86.19-1.73.28-2.59.36-.87.08-1.71.12-2.61.13l.17-.02c-.39.07-.71.09-1.06.11-.34.01-.69 0-1.04-.03-.35-.03-.7-.08-1.04-.17-.35-.09-.69-.21-1.03-.36-.17-.07-.33-.19-.49-.28-.16-.09-.3-.23-.45-.35-.15-.12-.28-.25-.39-.41-.12-.15-.25-.29-.32-.46l-.25-.5-.15-.52c-.11-.34-.09-.69-.14-1.04v-.04c.18-2.12.26-4.23.41-6.36.08-1.06.14-2.15.39-3.24.23-1.07.6-2.25 1.59-3.18.48-.47 1.16-.77 1.82-.89.67-.13 1.33-.06 1.91.1.6.14 1.12.41 1.62.67.5.27.96.59 1.39.92.44.33.84.69 1.25 1.05l1.17 1.1c.78.74 1.53 1.49 2.32 2.18zm21.72.07c11.29-10.26 13.33-4.28 13.34 7.58-.34 4.28-5.7 3.14-5.7 3.14s-18.93-.46-7.64-10.72zm-.07-.07c.79-.69 1.54-1.44 2.32-2.17l1.17-1.1c.41-.35.81-.72 1.25-1.05.43-.33.89-.65 1.39-.92.5-.26 1.02-.53 1.62-.67.58-.16 1.24-.23 1.91-.1.66.12 1.34.42 1.82.89.99.93 1.36 2.1 1.59 3.18.25 1.09.3 2.17.39 3.24.15 2.13.23 4.24.41 6.36v.04c-.05.34-.03.69-.14 1.04l-.15.52-.25.5c-.08.17-.21.31-.33.46-.12.16-.24.29-.39.41-.15.12-.29.26-.45.35-.16.09-.32.21-.49.28-.34.16-.68.28-1.03.36-.35.08-.7.14-1.04.17-.35.03-.69.04-1.04.03-.35-.02-.67-.04-1.06-.11l.17.02c-.89-.01-1.74-.05-2.61-.13-.86-.08-1.73-.17-2.59-.36-.86-.18-1.72-.39-2.56-.72-.84-.33-1.69-.72-2.46-1.33-.38-.31-.75-.67-1.05-1.1-.28-.45-.53-.94-.59-1.48-.04-.27-.06-.53-.03-.79 0-.26.06-.51.13-.74.05-.24.14-.47.25-.68.09-.22.19-.43.32-.61.23-.4.51-.74.79-1.08.27-.34.6-.63.87-.96.62-.61 1.23-1.19 1.86-1.75zm.13.15l-.88.89c-.28.31-.53.65-.79.97-.46.68-.91 1.4-1.12 2.16-.07.18-.11.37-.14.56-.04.18-.07.37-.06.54-.01.18 0 .35.04.51.02.16.07.31.14.45.11.29.29.53.5.76l.36.33c.14.1.27.2.42.3.3.18.62.35.96.51.34.15.7.29 1.07.41.74.23 1.51.45 2.29.61.79.16 1.58.33 2.39.44.8.12 1.63.22 2.42.27l.12.01.05.01c.22.05.53.1.79.13.28.03.56.05.83.05.28 0 .54-.02.81-.04.27-.03.52-.08.76-.16.12-.04.23-.09.35-.13.13-.04.21-.11.32-.17.11-.06.21-.13.29-.22.09-.08.2-.15.26-.26l.23-.3.16-.36c.12-.24.14-.53.23-.79v.04c.08-1.05.12-2.1.09-3.15-.03-1.05-.11-2.09-.3-3.12-.08-.51-.21-1.02-.35-1.52-.14-.49-.3-.98-.5-1.44-.38-.93-.91-1.75-1.52-2.24-.31-.23-.64-.37-1.01-.43s-.79-.04-1.23.04c-.44.07-.91.2-1.36.36-.46.16-.93.34-1.4.56-.47.2-.93.44-1.39.69-.46.25-.91.52-1.35.81-.45.27-.86.61-1.28.91-.41.31-.8.66-1.2 1.01z"/><path opacity=".4" fill="#212121" d="M97.76 76.91c-.92-3.16 1.07-35.4 0-38.63-1.05-3.19-24.31.5-29.86-1.4v74.74c13.46.11 26.66.11 26.05-.33-1.22-.87 4.73-31.21 3.81-34.38z"/></g></svg>