<svg id="blobP" xmlns="http://www.w3.org/2000/svg" width="210.333" height="128.833" viewBox="-12.501 16.5 210.333 128.833">
<g id="wingG"><path fill="#EAC25F" d="M79.496,93.936c0,0-44-8.332-54-70.667c-2.667-16.334-36.667,18.666-35,41 C-7.837,86.602,9.83,78.268,9.83,78.268s-2.667,15.668,6,19.668s20.333,0,20.333,0s2.333,9,15,9.666s17-8.334,17-8.334 L79.496,93.936z"/>
<path fill="#E8E495" d="M79.496,93.936c0,0-44-8.332-54-70.667c-2.667-16.334-36.667,18.666-35,41 C-7.837,86.602,9.83,78.268,9.83,78.268s-2.667,15.668,6,19.668s20.333,0,20.333,0s2.333,9,15,9.666s17-8.334,17-8.334 L79.496,93.936z"/>
<path fill="#DDD790" d="M68.123,93.844c0,0-39.248-13.26-40.46-56.661C27.303,25.803-8.31,43.245-9.631,58.46 c-1.32,15.214,15.927,12.734,15.927,12.734s-4.44,10.003,2.989,14.192c7.43,4.188,18.629,3.553,18.629,3.553
s0.989,6.422,12.509,9.082s16.638-2.596,16.638-2.596L68.123,93.844z"/>
<path fill="#E8E495" d="M26.668,46.972c-0.239-7.576-23.947,4.035-24.828,14.165c-0.879,10.128,10.603,8.478,10.603,8.478 s-2.956,6.66,1.99,9.448c4.946,2.788,12.402,2.365,12.402,2.365s0.659,4.275,8.328,6.046c7.668,1.771,11.076-1.728,11.076-1.728 S27.476,75.865,26.668,46.972z"/>
</g>
<g id="wingD"><path fill="#EAC25F" d="M105.313,95.936c0,0,44-8.332,54-70.667c2.666-16.334,36.666,18.666,35,41 c-1.668,22.333-19.334,13.999-19.334,13.999s2.666,15.668-6,19.668s-20.334,0-20.334,0s-2.333,9-15,9.666
c-12.666,0.666-17-8.334-17-8.334L105.313,95.936z"/>
<path fill="#E8E495" d="M105.313,95.936c0,0,44-8.332,54-70.667c2.666-16.334,36.666,18.666,35,41 c-1.668,22.333-19.334,13.999-19.334,13.999s2.666,15.668-6,19.668s-20.334,0-20.334,0s-2.333,9-15,9.666
c-12.666,0.666-17-8.334-17-8.334L105.313,95.936z"/>
<path fill="#DDD790" d="M116.687,95.844c0,0,39.248-13.26,40.46-56.661c0.359-11.38,35.972,6.062,37.294,21.277
c1.32,15.214-15.927,12.734-15.927,12.734s4.44,10.003-2.989,14.192c-7.43,4.188-18.629,3.553-18.629,3.553
s-0.99,6.422-12.51,9.082s-16.637-2.596-16.637-2.596L116.687,95.844z"/>
<path fill="#E8E495" d="M158.141,48.972c0.239-7.576,23.947,4.035,24.827,14.165c0.879,10.128-10.603,8.478-10.603,8.478
s2.956,6.66-1.989,9.448c-4.947,2.788-12.402,2.365-12.402,2.365s-0.658,4.275-8.328,6.046c-7.668,1.771-11.075-1.728-11.075-1.728
S157.333,77.865,158.141,48.972z"/>
</g>
<path fill="#DDBF9C" d="M102.03 141.404l-14.055.363-12.705-13.213-5.574-22.29 4.38-21.5 12.037-11.256 14.133 2.595 10.9 13.99 4.367 19.8-3.306 19.19-10.177 12.32z"/><path fill="#FFF1FF" d="M72.454 107.165s9.865 17.17 22.883 17.17h-.083c12.035 0 18.888-15.317 18.888-15.317l.032.03S106.23 93.89 94.15 92.65l.082-.01c-13.067-1.34-21.734 14.775-21.734 14.775"/><path fill="#549ADE" d="M102.05 108.928c.256 6.902-2.668 12.475-6.615 12.445-4.047-.03-7.625-5.916-7.894-13.14-.27-7.233 2.885-12.8 6.947-12.44 3.964.348 7.31 6.227 7.563 13.135z"/><path fill="#4C8CC1" d="M102.05 108.928c-.123-3.336-.96-6.414-2.234-8.752.404 1.52.66 3.176.723 4.898.255 6.934-2.697 12.493-6.68 12.416-2.104-.043-4.077-1.64-5.544-4.18 1.314 4.725 4.086 8.04 7.12 8.062 3.946.03 6.87-5.54 6.614-12.444z"/><path fill="none" d="M73.184 114.854"/><path fill="#19303F" d="M99.087 110.07c-.313 3.9-2.386 6.36-4.656 5.478-2.303-.896-3.924-4.88-3.59-8.875.33-3.985 2.478-6.39 4.763-5.397 2.25.978 3.798 4.906 3.484 8.794z"/><path fill="#F9F9F9" d="M93.57 103.945c-.17 2.056-1.28 3.324-2.49 2.826-1.218-.5-2.07-2.6-1.894-4.684.174-2.08 1.306-3.332 2.518-2.803 1.203.526 2.035 2.61 1.865 4.662zm1.52 4.735c-.085 1.03-.636 1.67-1.235 1.43-.6-.244-1.02-1.283-.934-2.32s.646-1.672 1.244-1.422c.6.248 1.012 1.284.926 2.312z"/></svg>