<svg xmlns="http://www.w3.org/2000/svg" width="550.473" height="603.668" viewBox="-36.396 -44.709 550.473 603.668" id="elmtPre">
    
    <path fill="#D39B6C" d="M271.49 86.34c-40.31-20.94-82.59-4.92-93.69 0H175l.3 1.17c-.19.1-.3.15-.3.15h.33l8.59 33.79c0 .03 1.56 21.11 8.97 35.28l4.6 18.11h51.74l5.5-17.64c3.81-7.33 6.068-16.48 7.358-23.62l14.7-47.22h-5.3l.002-.02z"/><path fill="#E0A570" d="M225.01 75.86c-22.28.43-40.48 7.49-47.21 10.48H175l.3 1.17c-.19.1-.3.15-.3.15h.33l8.59 33.79c0 .03 1.56 21.11 8.97 35.28l4.6 18.11h27.52V75.86z"/><path fill="#DDD7B1" d="M264.57 63.06s-8.14 4.59-5.312 0c2.83-4.59-3.89-18-4.56-16.23-.674 1.77-6.39 6.42-6.39 6.42L240.24 99h-28.69l-8.05-45.75s-5.72-4.62-6.39-6.39-7.38 11.63-4.55 16.22-5.29-.01-5.29-.01 12.15 32.67 17.71 36.38l.88 5.3s5.66 10.51 19.85 13.22c14.84-2.7 20.21-12.62 20.21-12.62l1.09-4.12v-1.87c5.99-4.04 17.56-36.3 17.56-36.3z"/><path fill="#E0A570" d="M250.63 72.81c2.19-2.82 4.37 1.06 4.01 6-.36 4.94-4.01 8.47-7.29 9.18-10.93 22.24-21.12 22.59-21.12 22.59s-10.2-.35-21.12-22.59c-3.28-.71-6.92-4.24-7.29-9.18-.36-4.94 1.82-8.82 4.01-6 0 0-1.89-28.23 23.17-28.23 25.06 0 25.63 28.23 25.63 28.23z"/><path fill="#D39B6C" d="M251.2 72.81c2.19-2.82 4.37 1.06 4.01 6-.37 4.94-4.01 8.47-7.29 9.18-10.93 22.24-21.12 22.59-21.12 22.59l-1.24-66c25.06 0 25.64 28.23 25.64 28.23z"/><path fill="none" stroke="#FEFBBA" stroke-width="90" stroke-linecap="round" stroke-linejoin="round" stroke-miterlimit="10" d="M14.13 218.84h374.96M93.693 298.958h370.845"/><path fill="#DDD7B1" d="M202.76 83.53s4.94-13.41 3.88-17.29c21.88 0 32.47-9.88 32.47-9.88s7.77 2.12 4.94 13.59c2.82 1.24 3.53 11.47 3.53 11.47s.938-7.44 4.88-7.25c.06-13.57 1.818-22.39-5.24-27.34-7.06-4.94-31.77-3.53-31.77-3.53s-6.71-1.06-6.71-4.24-14.2 13.41-10.98 33.18c2.53 1.87 6.47 6.64 5 11.29z"/><path fill="#D39B6C" d="M294.57 97.93c0-9.09-8.99-16.46-20.07-16.46s-20.07 7.37-20.07 16.46c0 1.69.312 3.33.89 4.87 5.74 30.89 24.632 46.05 24.632 46.05s-12.37 25.98-20.81 35.54c-.282.32-.532.63-.75.94h-.33s-.042.25-.132.68c-.97 1.54-1.3 2.97-1.18 4.28-.67 1.99-1.65 4.36-3.04 6.66-3.37 5.62-13.87 14.62-16.87 17.25-.75 3 3.37 2.62 7.5-.75 6.75-6.37 10.5-7.5 12.75-6.75s4.12 5.62 5.63 6.75c1.5 1.13 10.12 7.87 12.75 8.25 2.62.37 4.5-6 3.75-8.62-4.5-4.87-6-7.87-6.54-9-.48-1 .32-4.97.77-8.03 6.3-4.4 16.16-13.29 24.522-29.65 13.467-26.44-3.402-68.47-3.402-68.47z"/><path fill="#E0A570" d="M212.06 209.16c-3.41-2.06-15.33-9.07-19.64-14.02-1.94-2.22-3.41-4.6-4.44-6.55-.21-1.03-.7-2.11-1.54-3.26-.23-.55-.34-.87-.34-.87l-.31.05c-.04-.04-.07-.08-.11-.13-8.44-9.56-20.81-35.54-20.81-35.54s18.88-15.16 24.63-46.05c.58-1.54.89-3.17.89-4.87 0-9.09-8.99-16.46-20.07-16.46-11.09 0-20.07 7.37-20.07 16.46 0 0-16.87 42.02-3.37 68.46 8.89 17.42 19.49 26.37 25.69 30.45.94 3.01 2.77 7.46 2.45 8.64-.33 1.2-1.29 4.42-4.86 10.01-.28 2.72 2.69 8.66 5.2 7.83 2.52-.83 9.82-8.99 11.1-10.36 1.28-1.37 2.27-6.5 4.35-7.63 2.08-1.13 5.97-.68 13.73 4.41 4.66 2.6 8.79 2.25 7.52-.57z"/><path fill="#DDD7B1" d="M241.72 77.63l-5.55-3.01-7.53 5.25 7.52-2.61 3.312 2.27 2.25-1.9zm-30.91 0l5.55-3.01 7.54 5.25-7.53-2.61-3.31 2.27-2.25-1.9z"/>
    <g id="eclair"><path fill="#E8C09C" d="M231.808 246.18L72.082 396.59l-.325.306c-2.88 2.712-7.41 2.575-10.123-.304-2.073-2.2-2.472-5.384-1.263-7.965l30.415-64.456 8.124 5.523L-18.644 440.39 91.833 322.63c1.877-2.002 5.02-2.103 7.022-.225 1.53 1.436 1.95 3.61 1.222 5.45l-.12.298L73.59 394.37l-11.71-7.963L211.99 226.4c5.292-5.642 14.157-5.925 19.798-.632 5.642 5.292 5.924 14.157.632 19.798-.19.203-.414.427-.612.615z"/><path fill="#FFD4A8" d="M226.458 251.454L70.72 396.37l-.097.09c-1.553 1.445-3.983 1.357-5.428-.195-1.096-1.178-1.31-2.86-.67-4.236l28.814-61.967 4.312 3.022L-16.965 439.74 93.93 329.22c1.046-1.043 2.74-1.04 3.78.006.792.793.98 1.958.57 2.93l-.037.086-26.675 62.917-6.196-4.343 150.68-150.168c2.935-2.925 7.684-2.917 10.608.017 2.924 2.935 2.916 7.684-.018 10.608-.052.053-.13.127-.184.18zM254.682 247.394l159.885 150.238-11.186 8.685-30.48-64.424-.133-.28c-1.174-2.48-.114-5.44 2.365-6.615 1.896-.897 4.082-.48 5.527.87l117.67 110.57-124.29-103.075 7.76-6.025 34.413 62.414c1.91 3.463.65 7.818-2.813 9.73-2.648 1.46-5.818 1.065-8.017-.748l-.355-.297-168.88-140.054c-5.954-4.938-6.778-13.77-1.84-19.723 4.938-5.954 13.77-6.778 19.723-1.84.214.177.45.387.652.574z"/><path fill="#E8C09C" d="M251.523 261.87L411.36 402.25l-5.91 4.723-30.585-61.11-.04-.084c-.66-1.32-.127-2.926 1.193-3.586 1.002-.5 2.168-.313 2.962.382l117.635 103.317-121.106-99.226 4.113-3.287 32.66 60.027c1.014 1.863.325 4.196-1.538 5.21-1.413.77-3.096.56-4.27-.4l-.103-.086L241.82 273.31c-3.205-2.625-3.674-7.352-1.05-10.556 2.627-3.205 7.353-3.674 10.558-1.048.058.046.14.116.195.165zM240.604 256.55l-8.25 175.117-13.89-2.752 23.307-51.965.16-.354c1.12-2.5 4.055-3.616 6.554-2.495 1.91.858 3.012 2.787 2.925 4.76l-6.072 128.882-3.93-128.965 9.64 1.91-19.215 53.613c-1.332 3.717-5.424 5.65-9.14 4.317-2.842-1.02-4.642-3.65-4.736-6.494l-.016-.575-5.336-175.23c-.236-7.734 5.843-14.195 13.578-14.43 7.734-.236 14.195 5.842 14.43 13.577.01.354.006.737-.008 1.085z"/><path fill="#FFD4A8" d="M226.467 254.888l-1.312 203.625-7.44-1.366 25.022-60.438.037-.09c.564-1.364 2.128-2.013 3.492-1.447 1.034.428 1.656 1.433 1.65 2.487l-.964 149.862-4.4-149.8 5.18.95-22.844 61.294c-.74 1.987-2.952 2.998-4.94 2.258-1.506-.562-2.45-1.97-2.498-3.483l-.003-.14-5.98-203.542c-.12-4.14 3.138-7.597 7.28-7.718s7.595 3.137 7.717 7.278c.002.08.003.19.003.27z"/></g>
    <circle fill="#A7A5AF" cx="225.361" cy="258.839" r="37.595"/><circle fill="#B6B3C0" cx="225.361" cy="258.839" r="28"/><path fill="#846C6A" d="M221.188 81.344c0 1.087-.882 1.97-1.97 1.97s-1.968-.883-1.968-1.97 3.938-1.087 3.938 0zM234.75 81.344c0 1.087-.882 1.97-1.97 1.97s-1.968-.883-1.968-1.97 3.938-1.087 3.938 0z"/><path fill="none" stroke="#D35027" stroke-width="2" stroke-miterlimit="10" d="M479.12 74.62"/>
    
    <!--Background Page Vision-->
<circle id="fondVision" onclick="pageVision(evt)" fill="#FFFBC8" cx="224.361" cy="8.279" r="23" > 
<animate attributeName="r" from="23" to="2300" begin="fondVision.click" dur="1s"/> 
</circle>
    <!--Background Page Competence-->
<circle id="fondCompetence" fill="#FFFBC8" cx="342.014" cy="79.87" r="23">
<animate attributeName="r" from="23" to="2300" begin="fondCompetence.click" dur="1s"/>
</circle>
    <!--Background Page Outil-->
<circle id="fondOutil" fill="#FFFBC8" cx="104.408" cy="79.127" r="23">
<animate attributeName="r" from="23" to="2300" begin="fondOutil.click" dur="1s"/>
</circle>
    
  <g id="pageVision">
<ellipse fill="#F4EFC1" cx="224.334" cy="9.167" rx="23.075" ry="4.229"/>
<ellipse fill="#E5E0B7" cx="224.334" cy="9.167" rx="16.89" ry="2.746"/>
<ellipse fill="#DDD7B1" cx="224.334" cy="9.167" rx="8.551" ry="1.39"/>
<path fill="#B6B3C0" d="M224.3,6.383v0.01c-1,0-2.672,1.44-2.672,2.44c0,2,5.533,2,5.533,0C227.161,7.833,226.3,6.383,224.3,6.383z"/>
<circle fill="#FFD4A8" cx="213.045" cy="5.54" r="0.769"/>
<circle fill="#FFD4A8" cx="213.4" cy="11.171" r="1.142"/>
<circle fill="#FFD4A8" cx="234.793" cy="12.723" r="1.724"/>
<circle fill="#FFD4A8" cx="218.757" cy="10.292" r="0.675"/>
<circle fill="#FFD4A8" cx="231.124" cy="6.605" r="0.874"/>
<circle fill="#FFD4A8" cx="244.803" cy="10.999" r="1.386"/>
<circle fill="#FFD4A8" cx="240.42" cy="6.073" r="0.862"/>
    </g>
    
    <g id="pageCompetence">
<ellipse transform="matrix(0.6138 0.7895 -0.7895 0.6138 194.6262 -238.5764)" fill="none" stroke="#E5E1B5" stroke-width="0.75" stroke-miterlimit="10" cx="341.154" cy="79.633" rx="7.755" ry="15.996"/>
<ellipse transform="matrix(-0.6137 0.7895 -0.7895 -0.6137 616.5549 -141.4315)" fill="none" stroke="#E5E1B5" stroke-width="0.75" stroke-miterlimit="10" cx="342.875" cy="80.108" rx="7.755" ry="15.996"/>
<circle fill="#E5E1B5" cx="353.094" cy="69.062" r="1.561"/>
<circle fill="#E5E1B5" cx="329.889" cy="72.184" r="1.561"/>
<circle fill="#E5E1B5" cx="334.964" cy="91.205" r="1.561"/>
<circle fill="#378ECC" cx="342.776" cy="76.905" r="3.751"/>
<circle fill="#378ECC" cx="338.715" cy="79.388" r="3.751"/>
<circle fill="#378ECC" cx="342.916" cy="80.736" r="3.751"/>
<circle fill="#FFD4A8" cx="339.837" cy="79.127" r="2.633"/>
<circle fill="#FFD4A8" cx="342.678" cy="78.516" r="2.634"/>
<circle fill="#FFD4A8" cx="341.798" cy="80.433" r="2.634"/>
    </g>

    <g id="pageOutil">
<circle fill="#FFD4A8" cx="98.741" cy="84.793" r="5.667"/>
<circle fill="#B6B3C0" cx="98.742" cy="84.793" r="2.886"/>
<path fill="#E5E1B5" d="M101.338,77.956c-1.515,1.488-0.235,3.017-2.247,5.279c-0.908,1.023,3.738,0.711,6.039-1.551
	c0.977-0.961,0.701-2.359-0.346-3.389C103.737,77.268,102.313,76.995,101.338,77.956z M118.114,65.053
	c-0.775-0.764-9.379,6.129-11.939,8.646c-1.271,1.25-1.695,1.919-2.084,2.419c-0.17,0.219,0.055,0.285,0.154,0.336
	c0.504,0.258,0.856,0.496,1.311,0.943s0.699,0.793,0.959,1.289c0.053,0.098,0.121,0.318,0.342,0.152
	c0.51-0.383,1.191-0.801,2.462-2.049C111.879,74.273,118.891,65.815,118.114,65.053z"/>
    </g>
</svg>