<svg id="elmtTravaux" xmlns="http://www.w3.org/2000/svg" width="176.667" height="277.751" viewBox="-7.667 -97.251 176.667 277.751" enable-background="new -7.667 -97.251 176.667 277.751"><style type="text/css"><![CDATA[
	.st0{fill:#464747;}
	.st1{fill:#7EB8B3;}
	.st2{opacity:0.5;fill:#F0AFA7;}
	.st3{fill:#505151;}
	.st4{fill:#5D5D5D;}
	.st5{fill:#333333;}
	.st6{fill:none;stroke:#333333;stroke-width:2;stroke-linecap:round;stroke-linejoin:round;stroke-miterlimit:10;}
	.st7{fill:none;stroke:#333333;stroke-width:3;stroke-linecap:round;stroke-linejoin:round;stroke-miterlimit:10;}
	.st8{fill:#060607;}
	.st9{fill:#3F4041;}
	.st10{fill:#404141;}
]]></style><path class="st4" d="M75.867 97.585l24.74-64.793 26.072 63.662 26.08 63.647-50.812 1.13-50.813 1.132 24.732-64.777z"/><path class="st0" d="M117.937 75.03l-17.564-42.82 33.154-12.286 33.14-12.288-15.577 55.106-15.58 55.12-17.573-42.832z"/><path class="st10" d="M135.51 117.863L166.666 7.637l-13.905 152.465-17.253-42.24z"/><path class="st3" d="M166.667 7.637l-66.295 24.575-49.237-10.205L108.9-85.187l57.767 92.824z"/><path class="st8" d="M51.135 22.007L30.605-43.58l20.53-31.892 57.766-9.715L51.136 22.007z"/><path class="st9" d="M51.726 22.54v139.823L-5 71.155 30.605-43.58l21.12 66.12z"/><path class="st4" d="M51.726 163.17V19.342l49.236 13.273L51.726 163.17zM-5 71.155L14.625 7.637l37.1 11.706v3.197L-5 71.155z"/><path class="st2" d="M118.333 88.928l-18.85-9.772-8.155-19.6 6.35-20.26 17.886-11.436 21.055 2.736 14.368 15.63.96 21.208L139.054 84.3zM51.705 69.73l-21.93-11.37-9.49-22.805 7.39-23.57L48.484-1.32l24.494 3.183 16.717 18.183 1.118 24.676-15.004 19.62zM75.737-4.423L53.81-15.793l-9.492-22.803 7.39-23.57 20.81-13.306L97.01-72.29l16.718 18.185 1.118 24.675L99.844-9.808zM112.763 24.11l-11.89-6.165L95.725 5.58 99.732-7.2l11.285-7.217L124.3-12.69l9.064 9.86.607 13.38-8.135 10.64zM68.665 150.716L44.75 138.318l-10.35-24.87 8.058-25.703 22.695-14.51 26.712 3.47 18.23 19.83 1.22 26.91-16.362 21.398z"/><circle class="st5" cx="71.698" cy="160.09" r="2.84"/><circle class="st5" cx="77.995" cy="158.863" r="1.25"/><path class="st7" d="M72.588 163.13l1.41 5.87"/><path class="st6" d="M73.172 163.15l3.792.004 1.03-4.293"/><circle class="st1" cx="73.278" cy="159.67" r=".67"/>
    <path class="st6 jambe1-2" d="M72.998 169l-3.39 7.854" id="jambe1-2"/>
    <path class="st6 jambe2-2" d="M77.995 176.854L74.605 169" id="jambe2-2"/>
</svg>