<svg xmlns="http://www.w3.org/2000/svg" class="allAnimSvg" id="contact" width="350" height="400" viewBox="0 0 350 400">
    
                <!--RIBBON-->
<g id="rbnContact"><g fill="#EFEFEF"><path d="M9.6 34.03l62.88-25.6v25.6zM434.79 228.45H267.81v81.51zM9.6 39.7h425.2v183.07H9.6z"/></g><text transform="translate(115 139)" fill="#000" font-family="'Raleway'" font-size="49">CONTACT</text></g>
    
<!--SPHERE-->
<g id="spere" class="allAnimSvg">
	<path fill="#AF7338" d="M4.596 221.138s10.28 170.248 170.555 170.43c160.276.18 170.558-170.43 170.558-170.43"/>
	<ellipse fill="#E59B42" cx="174.936" cy="221.138" rx="170.555" ry="14.881"/>
	<path fill="#ED9B58" d="M174.936 267.743c-58.154 0-109.5-2.54-140.286-6.417C35.924 274.59 50.456 388.72 173.08 388.85c121.336.126 136.838-111.84 138.385-127.068-31.112 3.62-80.686 5.96-136.53 5.96z"/>
</g>

<!--HOUSE-->
<g id="maison">
	<path fill="#E59B42" d="M248.935 210.304h45.854v14.78h-45.855z"/>
	<path fill="#A5A5A5" d="M144.722 267.727h60.427v27.983H144.72z"/>
	<path fill="#8E8E8E" d="M174.935 267.727h30.458v27.983h-30.458z"/>
	<path fill="#848484" d="M137.68 291.377h75v17h-75z"/>
	<path fill="#727272" d="M174.935 291.377h37.744v17h-37.745z"/>
	<path fill="#A5A5A5" d="M144.722 164.653h60.427v27.983H144.72z"/>
	<path fill="#8E8E8E" d="M174.935 164.653h30.458v27.983h-30.458z"/>
	<path fill="#848484" d="M137.68 153.45h75v17h-75z"/>
	<path fill="#727272" d="M174.935 153.45h37.744v17h-37.745z"/>
	<path fill="#F4CCA4" d="M68.882 120.49h30v92.553h-30zM241.352 120.49h30v92.553h-30zM62.824 118.747L171.06 23.785l108.238 93.1z"/>
	<path fill="#C4A48D" d="M98.882 183.188h142.47v41.896H98.882z"/>
	<g fill="none" stroke="#A58974" stroke-miterlimit="10">
		<path d="M102.513 192.78h135.5M102.513 201.197h135.5M102.513 208.613h135.5M102.513 216.694h135.5"/>
	</g>
	<path fill="#B79780" d="M233.425 210.304h45.854v14.78h-45.855zM233.425 106.047h45.854v14.78h-45.855zM60.955 210.304h45.854v14.78H60.954zM60.955 106.047h45.854v14.78H60.954z"/>
	<ellipse fill="#B79780" cx="171.061" cy="76.531" rx="36.667" ry="32.302"/>
	<g fill="none" stroke="#D3B092" stroke-width="2" stroke-miterlimit="10">
		<path d="M74.04 122.35v84.61M79.234 122.35v84.61M83.52 122.35v84.61M88.803 122.35v84.61M93.24 122.35v84.61M246.752 122.35v84.61M251.946 122.35v84.61M256.23 122.35v84.61M261.515 122.35v84.61M265.95 122.35v84.61"/>
	</g>
	<text transform="matrix(1.088 0 0 1 145.013 90.518)" fill="#937A69" font-family="'Tunga-Bold'" font-size="52.329" letter-spacing="1.838">@</text>
</g>

<!--COURIERS-->
<g id="courier1" class="allAnimSvg">
	<path fill="#E5E5E5" d="M89.658 355.473l12.804-8.28 5.673 8.77-12.804 8.28z"/><path fill="#D6D6D6" d="M89.644 355.475l9.238.244 3.566-8.527z"/><path opacity=".5" fill="#C1C1C1" d="M96.06 351.332l6.403-4.14 5.673 8.77-6.403 4.14z"/><path fill="#E5E5E5" d="M106.823 361.928l12.805-8.282 5.672 8.77-12.804 8.282z"/><path fill="#D6D6D6" d="M106.81 361.93l9.237.244 3.566-8.526z"/><path opacity=".5" fill="#C1C1C1" d="M113.226 357.787l6.403-4.14 5.672 8.77-6.403 4.14z"/><path fill="#E5E5E5" d="M113.77 351.332l12.805-8.282 5.673 8.77-12.805 8.282z"/><path fill="#D6D6D6" d="M113.757 351.334l9.238.244 3.567-8.525z"/><path opacity=".5" fill="#C1C1C1" d="M120.174 347.19l6.402-4.14 5.673 8.77-6.404 4.14z"/><path fill="#E5E5E5" d="M110.935 345.326l12.805-8.282 5.673 8.77-12.805 8.283z"/><path fill="#D6D6D6" d="M110.92 345.33l9.24.243 3.566-8.525z"/><path opacity=".5" fill="#C1C1C1" d="M117.337 341.186l6.403-4.14 5.673 8.77-6.403 4.14z"/><path fill="#E5E5E5" d="M110.935 336.8l12.805-8.28 5.672 8.77-12.804 8.282z"/><path fill="#D6D6D6" d="M110.92 336.804l9.24.244 3.566-8.526z"/><path opacity=".5" fill="#C1C1C1" d="M117.337 332.66l6.403-4.14 5.673 8.77-6.403 4.14z"/><path fill="#E5E5E5" d="M123.74 339.042l12.804-8.282 5.673 8.77-12.805 8.283z"/><path fill="#D6D6D6" d="M123.726 339.045l9.238.244 3.566-8.526z"/><path opacity=".5" fill="#C1C1C1" d="M130.142 334.9l6.403-4.14 5.673 8.77-6.403 4.142z"/><path fill="#E5E5E5" d="M132.98 353.4l12.804-8.28 5.672 8.77-12.804 8.282z"/><path fill="#D6D6D6" d="M132.964 353.404l9.238.244 3.567-8.525z"/><path opacity=".5" fill="#C1C1C1" d="M139.38 349.26l6.403-4.14 5.673 8.77-6.403 4.14z"/><path fill="#E5E5E5" d="M119.628 368.382l12.805-8.282 5.673 8.77-12.805 8.283z"/><path fill="#D6D6D6" d="M119.613 368.385l9.24.244 3.565-8.526z"/><path opacity=".5" fill="#C1C1C1" d="M126.03 364.242l6.403-4.14 5.673 8.77-6.403 4.14z"/><path fill="#E5E5E5" d="M126.342 366.19l12.804-8.283 5.673 8.77-12.806 8.282z"/><path fill="#D6D6D6" d="M126.326 366.19l9.238.246 3.567-8.526z"/><path opacity=".5" fill="#C1C1C1" d="M132.743 362.048l6.403-4.142 5.672 8.77-6.402 4.142z"/><path fill="#E5E5E5" d="M144.736 370.238l12.805-8.28 5.674 8.77-12.805 8.28z"/><path fill="#D6D6D6" d="M144.722 370.242l9.238.244 3.566-8.525z"/><path opacity=".5" fill="#C1C1C1" d="M151.14 366.098l6.402-4.142 5.673 8.77-6.403 4.142z"/><path fill="#E5E5E5" d="M135.5 374.714l12.803-8.282 5.673 8.77-12.805 8.282z"/><path fill="#D6D6D6" d="M135.483 374.717l9.24.244 3.565-8.524z"/><path opacity=".5" fill="#C1C1C1" d="M141.902 370.573l6.402-4.14 5.673 8.77-6.403 4.14z"/><path fill="#E5E5E5" d="M180.94 376.905l12.805-8.282 5.672 8.77-12.804 8.283z"/><path fill="#D6D6D6" d="M180.925 376.91l9.238.244 3.566-8.525z"/><path opacity=".5" fill="#C1C1C1" d="M187.343 372.764l6.403-4.14 5.672 8.77-6.402 4.14z"/><path fill="#E5E5E5" d="M167.037 380.09l11.84-9.608 6.582 8.11-11.84 9.61z"/><path fill="#D6D6D6" d="M167.047 380.096l9.21-.75 2.63-8.86z"/><path opacity=".5" fill="#C1C1C1" d="M172.985 375.288l5.92-4.806 6.584 8.11-5.922 4.806z"/><path fill="#E5E5E5" d="M160.378 372.52l12.805-8.28 5.672 8.77-12.804 8.282z"/><path fill="#D6D6D6" d="M160.362 372.525l9.24.245 3.565-8.526z"/><path opacity=".5" fill="#C1C1C1" d="M166.78 368.38l6.402-4.14 5.673 8.77-6.403 4.14z"/><path fill="#E5E5E5" d="M153.975 362.377l12.805-8.282 5.673 8.77-12.805 8.282z"/><path fill="#D6D6D6" d="M153.96 362.38l9.238.245 3.567-8.525z"/><path opacity=".5" fill="#C1C1C1" d="M160.377 358.236l6.403-4.14 5.673 8.77-6.403 4.14z"/><path fill="#E5E5E5" d="M154.704 340.612l12.805-8.282 5.672 8.77-12.805 8.282z"/><path fill="#D6D6D6" d="M154.69 340.616l9.24.244 3.565-8.525z"/><path opacity=".5" fill="#C1C1C1" d="M161.107 336.47l6.403-4.14 5.673 8.77-6.403 4.142z"/><path fill="#E5E5E5" d="M174.95 362.376l12.804-8.282 5.673 8.77-12.805 8.283z"/><path fill="#D6D6D6" d="M174.935 362.38l9.238.245 3.566-8.525z"/><path opacity=".5" fill="#C1C1C1" d="M181.352 358.235l6.403-4.14 5.673 8.77-6.403 4.14z"/><path fill="#E5E5E5" d="M164.172 353.85l12.805-8.28 5.673 8.77-12.805 8.28z"/><path fill="#D6D6D6" d="M164.157 353.854l9.24.245 3.565-8.527z"/><path opacity=".5" fill="#C1C1C1" d="M170.574 349.71l6.402-4.142 5.673 8.77-6.404 4.142z"/><path fill="#E5E5E5" d="M132.662 344.876l12.804-8.282 5.673 8.77-12.806 8.282z"/><path fill="#D6D6D6" d="M132.647 344.88l9.24.243 3.565-8.525z"/><path opacity=".5" fill="#C1C1C1" d="M139.064 340.735l6.403-4.14 5.673 8.77-6.403 4.14z"/><path fill="#E5E5E5" d="M190.18 374.62l12.804-8.28 5.672 8.77-12.804 8.282z"/><path fill="#D6D6D6" d="M190.163 374.627l9.238.244 3.568-8.524z"/><path opacity=".5" fill="#C1C1C1" d="M196.58 370.48l6.404-4.14 5.673 8.77-6.403 4.142z"/><path fill="#E5E5E5" d="M195.507 368.38l12.804-8.283 5.674 8.77-12.804 8.283z"/><path fill="#D6D6D6" d="M195.49 368.385l9.24.244 3.566-8.526z"/><path opacity=".5" fill="#C1C1C1" d="M201.91 364.24l6.402-4.142 5.672 8.77-6.402 4.14z"/><path fill="#E5E5E5" d="M196.17 362.375l12.804-8.282 5.673 8.77-12.805 8.283z"/><path fill="#D6D6D6" d="M196.154 362.38l9.24.245 3.565-8.525z"/><path opacity=".5" fill="#C1C1C1" d="M202.572 358.235l6.402-4.14 5.673 8.77-6.403 4.14z"/><path fill="#E5E5E5" d="M192.67 357.18l12.805-8.282 5.673 8.77-12.805 8.283z"/><path fill="#D6D6D6" d="M192.655 357.186l9.24.244 3.565-8.526z"/><path opacity=".5" fill="#C1C1C1" d="M199.073 353.04l6.402-4.14 5.673 8.77-6.403 4.14z"/><path fill="#E5E5E5" d="M201.91 376.693l12.804-8.282 5.672 8.772-12.804 8.282z"/><path fill="#D6D6D6" d="M201.894 376.7l9.238.243 3.566-8.525z"/><path opacity=".5" fill="#C1C1C1" d="M208.312 372.552l6.403-4.14 5.672 8.77-6.402 4.14z"/><path fill="#E5E5E5" d="M204.745 372.764l12.805-8.282 5.673 8.77-12.805 8.283z"/><path fill="#D6D6D6" d="M204.73 372.77l9.238.244 3.566-8.526z"/><path opacity=".5" fill="#C1C1C1" d="M211.148 368.622l6.402-4.14 5.673 8.77-6.403 4.14z"/><path fill="#E5E5E5" d="M203.456 361.565l12.804-8.282 5.673 8.77-12.804 8.282z"/><path fill="#D6D6D6" d="M203.44 361.57l9.24.244 3.565-8.525z"/><path opacity=".5" fill="#C1C1C1" d="M209.858 357.423l6.403-4.14 5.674 8.77-6.403 4.14z"/><path fill="#E5E5E5" d="M174.95 370.57l12.804-8.28 5.673 8.77-12.805 8.282z"/><path fill="#D6D6D6" d="M174.935 370.576l9.238.244 3.566-8.525z"/><path opacity=".5" fill="#C1C1C1" d="M181.353 366.43l6.402-4.14 5.673 8.77-6.403 4.14z"/><path fill="#E5E5E5" d="M184.89 350.368l12.806-8.28 5.672 8.77-12.804 8.28z"/><path fill="#D6D6D6" d="M184.876 350.374l9.238.244 3.567-8.525z"/><path opacity=".5" fill="#C1C1C1" d="M191.293 346.228l6.403-4.14 5.672 8.77-6.402 4.14z"/><path fill="#E5E5E5" d="M178.516 350.247l12.805-8.282 5.673 8.77-12.804 8.282z"/><path fill="#D6D6D6" d="M178.5 350.252l9.24.244 3.566-8.525z"/><path opacity=".5" fill="#C1C1C1" d="M184.918 346.106l6.403-4.14 5.673 8.77-6.402 4.14z"/><path fill="#E5E5E5" d="M138.7 361.714l12.804-8.282 5.673 8.77-12.805 8.282z"/><path fill="#D6D6D6" d="M138.685 361.717l9.238.244 3.566-8.524z"/><path opacity=".5" fill="#C1C1C1" d="M145.102 357.573l6.403-4.142 5.673 8.772-6.403 4.14z"/><path fill="#E5E5E5" d="M151.14 353.188l12.804-8.282 5.672 8.77-12.804 8.282z"/><path fill="#D6D6D6" d="M151.124 353.19l9.238.246 3.567-8.526z"/><path opacity=".5" fill="#C1C1C1" d="M157.54 349.046l6.403-4.14 5.673 8.77-6.403 4.14z"/><path fill="#E5E5E5" d="M167.034 345.985l12.805-8.282 5.67 8.77-12.803 8.283z"/><path fill="#D6D6D6" d="M167.02 345.99l9.238.243 3.566-8.525z"/><path opacity=".5" fill="#C1C1C1" d="M173.437 341.843l6.402-4.14 5.672 8.77-6.403 4.14z"/><path fill="#E5E5E5" d="M184.892 363.994l12.804-8.28 5.673 8.77-12.806 8.28z"/><path fill="#D6D6D6" d="M184.876 364l9.238.244 3.567-8.525z"/><path opacity=".5" fill="#C1C1C1" d="M191.294 359.854l6.402-4.14 5.673 8.77-6.404 4.14z"/><path fill="#E5E5E5" d="M142.267 377.15l12.805-8.28 5.672 8.77-12.804 8.282z"/><path fill="#D6D6D6" d="M142.25 377.154l9.24.244 3.566-8.525z"/><path opacity=".5" fill="#C1C1C1" d="M148.67 373.01l6.4-4.14 5.674 8.77-6.403 4.14z"/><path fill="#E5E5E5" d="M127.308 372.89l12.804-8.283 5.673 8.77-12.805 8.282z"/><path fill="#D6D6D6" d="M127.292 372.892l9.238.244 3.567-8.526z"/><path opacity=".5" fill="#C1C1C1" d="M133.71 368.748l6.402-4.14 5.673 8.77-6.403 4.14z"/><path fill="#E5E5E5" d="M110.936 370.094l12.805-8.28 5.674 8.77-12.805 8.28z"/><path fill="#D6D6D6" d="M110.92 370.097l9.24.244 3.566-8.525z"/><path opacity=".5" fill="#C1C1C1" d="M117.34 365.954l6.4-4.14 5.674 8.77-6.403 4.14z"/><path fill="#E5E5E5" d="M97.585 363.997l12.805-8.282 5.672 8.77-12.804 8.283z"/><path fill="#D6D6D6" d="M97.57 364l9.24.243 3.565-8.525z"/><path opacity=".5" fill="#C1C1C1" d="M103.987 359.857l6.403-4.14 5.673 8.77-6.403 4.14z"/><path fill="#E5E5E5" d="M151.14 379.098l12.805-8.282 5.672 8.77-12.804 8.282z"/><path fill="#D6D6D6" d="M151.124 379.102l9.238.244 3.567-8.526z"/><path opacity=".5" fill="#C1C1C1" d="M157.542 374.957l6.403-4.14 5.673 8.77-6.403 4.14z"/>
</g>


<g id="courier2" class="allAnimSvg">
	<path fill="#E5E5E5" d="M257.95 359.82l-12.805-8.28 5.672-8.77 12.805 8.28z"/><path fill="#D6D6D6" d="M263.608 351.063l-9.238.244-3.566-8.526z"/><path opacity=".5" fill="#C1C1C1" d="M251.546 355.68l-6.403-4.14 5.673-8.77 6.402 4.14z"/><path fill="#E5E5E5" d="M240.785 366.277l-12.805-8.282 5.673-8.77 12.804 8.28z"/><path fill="#D6D6D6" d="M246.443 357.518l-9.238.244-3.566-8.526z"/><path opacity=".5" fill="#C1C1C1" d="M234.382 362.135l-6.403-4.14 5.672-8.77 6.402 4.14z"/><path fill="#E5E5E5" d="M233.836 355.682L221.03 347.4l5.674-8.77 12.804 8.28z"/><path fill="#D6D6D6" d="M239.495 346.922l-9.238.244-3.567-8.525z"/><path opacity=".5" fill="#C1C1C1" d="M227.433 351.54l-6.402-4.14 5.673-8.77 6.403 4.14z"/><path fill="#E5E5E5" d="M236.67 349.677l-12.803-8.282 5.672-8.77 12.804 8.28z"/><path fill="#D6D6D6" d="M242.33 340.917l-9.237.244-3.567-8.524z"/><path opacity=".5" fill="#C1C1C1" d="M230.27 345.536l-6.404-4.14 5.673-8.772 6.402 4.14z"/><path fill="#E5E5E5" d="M236.67 341.15l-12.804-8.28 5.673-8.77 12.804 8.28z"/><path fill="#D6D6D6" d="M242.33 332.392l-9.237.244-3.567-8.526z"/><path opacity=".5" fill="#C1C1C1" d="M230.27 337.01l-6.404-4.14 5.673-8.772 6.4 4.14z"/><path fill="#E5E5E5" d="M223.867 343.393l-12.805-8.282 5.673-8.77 12.804 8.282z"/><path fill="#D6D6D6" d="M229.526 334.633l-9.238.244-3.566-8.525z"/><path opacity=".5" fill="#C1C1C1" d="M217.464 339.252l-6.403-4.14 5.674-8.772 6.402 4.14z"/><path fill="#E5E5E5" d="M214.63 357.753l-12.806-8.282 5.673-8.77 12.804 8.282z"/><path fill="#D6D6D6" d="M220.288 348.992l-9.238.244-3.567-8.525z"/><path opacity=".5" fill="#C1C1C1" d="M208.226 353.612l-6.402-4.14 5.672-8.772 6.403 4.14z"/><path fill="#E5E5E5" d="M227.98 372.732l-12.805-8.282 5.673-8.77 12.804 8.28z"/><path fill="#D6D6D6" d="M233.64 363.973l-9.24.244-3.566-8.526z"/><path opacity=".5" fill="#C1C1C1" d="M221.577 368.59l-6.402-4.14 5.672-8.77 6.403 4.14z"/><path fill="#E5E5E5" d="M221.267 370.54l-12.805-8.283 5.673-8.77 12.805 8.28z"/><path fill="#D6D6D6" d="M226.926 361.78l-9.238.243-3.567-8.525z"/><path opacity=".5" fill="#C1C1C1" d="M214.864 366.4l-6.402-4.142 5.672-8.77 6.403 4.14z"/><path fill="#E5E5E5" d="M202.872 374.59l-12.805-8.28 5.673-8.77 12.804 8.28z"/><path fill="#D6D6D6" d="M208.53 365.83l-9.238.244-3.566-8.525z"/><path opacity=".5" fill="#C1C1C1" d="M196.47 370.45l-6.404-4.14 5.673-8.772 6.4 4.14z"/><path fill="#E5E5E5" d="M212.11 379.065l-12.805-8.282 5.673-8.77 12.804 8.28z"/><path fill="#D6D6D6" d="M217.77 370.305l-9.24.244-3.566-8.527z"/><path opacity=".5" fill="#C1C1C1" d="M205.708 374.924l-6.403-4.14 5.673-8.772 6.402 4.14z"/><path fill="#E5E5E5" d="M166.67 381.26l-12.806-8.28 5.673-8.772 12.805 8.282z"/><path fill="#D6D6D6" d="M172.327 372.498l-9.238.244-3.568-8.525z"/><path opacity=".5" fill="#C1C1C1" d="M160.267 377.12l-6.403-4.142 5.673-8.77 6.402 4.14z"/><path fill="#E5E5E5" d="M179.62 383.804l-11.84-9.61 6.583-8.11 11.84 9.61z"/><path fill="#D6D6D6" d="M186.205 375.684l-9.21-.75-2.63-8.86z"/><path opacity=".5" fill="#C1C1C1" d="M173.717 378.976l-5.92-4.806 6.584-8.11 5.92 4.807z"/><path fill="#E5E5E5" d="M187.23 376.874l-12.803-8.282 5.672-8.77 12.804 8.28z"/><path fill="#D6D6D6" d="M192.89 368.113l-9.24.244-3.565-8.525z"/><path opacity=".5" fill="#C1C1C1" d="M180.828 372.734l-6.402-4.14 5.672-8.772 6.403 4.14z"/><path fill="#E5E5E5" d="M193.633 366.73l-12.805-8.282 5.673-8.77 12.806 8.28z"/><path fill="#D6D6D6" d="M199.292 357.97l-9.238.243-3.567-8.525z"/><path opacity=".5" fill="#C1C1C1" d="M187.23 362.59l-6.402-4.142 5.673-8.77 6.404 4.14z"/><path fill="#E5E5E5" d="M192.9 344.965l-12.803-8.28 5.672-8.772 12.804 8.282z"/><path fill="#D6D6D6" d="M198.562 336.204l-9.24.244-3.565-8.525z"/><path opacity=".5" fill="#C1C1C1" d="M186.5 340.825l-6.404-4.142 5.673-8.77 6.402 4.14z"/><path fill="#E5E5E5" d="M172.66 366.73l-12.806-8.28 5.673-8.772 12.805 8.282z"/><path fill="#D6D6D6" d="M178.317 357.97l-9.238.243-3.567-8.525z"/><path opacity=".5" fill="#C1C1C1" d="M166.256 362.59l-6.403-4.142 5.673-8.77 6.403 4.14z"/><path fill="#E5E5E5" d="M183.436 358.203l-12.805-8.28 5.674-8.772 12.804 8.283z"/><path fill="#D6D6D6" d="M189.095 349.442l-9.24.245-3.565-8.526z"/><path opacity=".5" fill="#C1C1C1" d="M177.033 354.063l-6.403-4.14 5.673-8.77 6.402 4.14z"/><path fill="#E5E5E5" d="M214.944 349.227l-12.804-8.282 5.672-8.77 12.805 8.28z"/><path fill="#D6D6D6" d="M220.604 340.467l-9.238.244-3.566-8.524z"/><path opacity=".5" fill="#C1C1C1" d="M208.542 345.086l-6.403-4.14 5.672-8.772 6.403 4.14z"/><path fill="#E5E5E5" d="M157.43 378.977l-12.804-8.28 5.673-8.772 12.803 8.282z"/><path fill="#D6D6D6" d="M163.09 370.215l-9.24.244-3.566-8.526z"/><path opacity=".5" fill="#C1C1C1" d="M151.028 374.836l-6.402-4.14 5.672-8.77 6.403 4.14z"/><path fill="#E5E5E5" d="M152.102 372.735l-12.804-8.282 5.672-8.77 12.805 8.282z"/><path fill="#D6D6D6" d="M157.76 363.973l-9.238.244-3.566-8.526z"/><path opacity=".5" fill="#C1C1C1" d="M145.7 368.594l-6.403-4.14 5.673-8.772 6.403 4.142z"/><path fill="#E5E5E5" d="M151.44 366.73l-12.806-8.28 5.673-8.77 12.804 8.28z"/><path fill="#D6D6D6" d="M157.098 357.97l-9.24.243-3.565-8.525z"/><path opacity=".5" fill="#C1C1C1" d="M145.037 362.59l-6.403-4.14 5.673-8.77 6.402 4.14z"/><path fill="#E5E5E5" d="M154.938 361.536l-12.805-8.282 5.673-8.77 12.804 8.28z"/><path fill="#D6D6D6" d="M160.597 352.773l-9.24.245-3.565-8.526z"/><path opacity=".5" fill="#C1C1C1" d="M148.535 357.396l-6.403-4.14 5.673-8.772 6.403 4.14z"/><path fill="#E5E5E5" d="M145.7 381.05l-12.804-8.28 5.673-8.772 12.803 8.282z"/><path fill="#D6D6D6" d="M151.358 372.287l-9.238.244-3.566-8.524z"/><path opacity=".5" fill="#C1C1C1" d="M139.298 376.91l-6.403-4.142 5.673-8.77 6.402 4.14z"/><path fill="#E5E5E5" d="M142.864 377.12l-12.805-8.282 5.672-8.77 12.805 8.28z"/><path fill="#D6D6D6" d="M148.522 368.357l-9.238.245-3.566-8.526z"/><path opacity=".5" fill="#C1C1C1" d="M136.46 372.98l-6.4-4.14 5.67-8.772 6.404 4.14z"/><path fill="#E5E5E5" d="M144.152 365.92l-12.804-8.28 5.672-8.77 12.805 8.28z"/><path fill="#D6D6D6" d="M149.812 357.158l-9.24.244-3.565-8.525z"/><path opacity=".5" fill="#C1C1C1" d="M137.75 361.78l-6.403-4.14 5.673-8.77 6.403 4.14z"/><path fill="#E5E5E5" d="M172.66 374.926l-12.805-8.28 5.672-8.772 12.805 8.282z"/><path fill="#D6D6D6" d="M178.317 366.164l-9.238.244-3.567-8.525z"/><path opacity=".5" fill="#C1C1C1" d="M166.256 370.785l-6.403-4.14 5.673-8.772 6.403 4.14z"/><path fill="#E5E5E5" d="M162.717 354.724l-12.805-8.28 5.673-8.772 12.804 8.282z"/><path fill="#D6D6D6" d="M168.376 345.962l-9.238.244-3.567-8.525z"/><path opacity=".5" fill="#C1C1C1" d="M156.314 350.584l-6.402-4.142 5.672-8.77 6.403 4.14z"/><path fill="#E5E5E5" d="M169.092 354.602l-12.805-8.282 5.673-8.77 12.804 8.28z"/><path fill="#D6D6D6" d="M174.75 345.84l-9.237.244-3.567-8.525z"/><path opacity=".5" fill="#C1C1C1" d="M162.69 350.46l-6.403-4.14 5.672-8.77 6.402 4.14z"/><path fill="#E5E5E5" d="M208.91 366.065l-12.806-8.28 5.673-8.772 12.804 8.282z"/><path fill="#D6D6D6" d="M214.567 357.305l-9.238.244-3.567-8.527z"/><path opacity=".5" fill="#C1C1C1" d="M202.506 361.924l-6.403-4.14 5.673-8.772 6.402 4.14z"/><path fill="#E5E5E5" d="M196.47 357.54l-12.806-8.282 5.673-8.77 12.805 8.28z"/><path fill="#D6D6D6" d="M202.128 348.78l-9.238.243-3.567-8.525z"/><path opacity=".5" fill="#C1C1C1" d="M190.066 353.4l-6.403-4.14 5.673-8.772 6.403 4.14z"/><path fill="#E5E5E5" d="M180.572 350.34l-12.804-8.283 5.672-8.77 12.805 8.28z"/><path fill="#D6D6D6" d="M186.232 341.577l-9.238.244-3.566-8.524z"/><path opacity=".5" fill="#C1C1C1" d="M174.17 346.198l-6.403-4.14 5.673-8.772 6.403 4.14z"/><path fill="#E5E5E5" d="M162.717 368.35l-12.804-8.28 5.672-8.772 12.805 8.282z"/><path fill="#D6D6D6" d="M168.376 359.588l-9.238.244-3.567-8.525z"/><path opacity=".5" fill="#C1C1C1" d="M156.315 364.21l-6.403-4.142 5.673-8.77 6.403 4.14z"/><path fill="#E5E5E5" d="M205.342 381.503l-12.804-8.282 5.672-8.77 12.805 8.282z"/><path fill="#D6D6D6" d="M211 372.742l-9.237.244-3.567-8.525z"/><path opacity=".5" fill="#C1C1C1" d="M198.94 377.362l-6.403-4.14 5.673-8.772 6.403 4.14z"/><path fill="#E5E5E5" d="M220.3 377.24l-12.803-8.283 5.672-8.77 12.804 8.28z"/><path fill="#D6D6D6" d="M225.96 368.48l-9.238.244-3.567-8.526z"/><path opacity=".5" fill="#C1C1C1" d="M213.9 373.1l-6.404-4.142 5.673-8.77 6.4 4.14z"/><path fill="#E5E5E5" d="M236.672 374.444l-12.804-8.282 5.672-8.77 12.805 8.28z"/><path fill="#D6D6D6" d="M242.33 365.685l-9.237.244-3.567-8.527z"/><path opacity=".5" fill="#C1C1C1" d="M230.27 370.303l-6.402-4.14 5.672-8.772 6.403 4.142z"/><path fill="#E5E5E5" d="M250.022 368.346l-12.805-8.282 5.673-8.77 12.805 8.28z"/><path fill="#D6D6D6" d="M255.682 359.587l-9.24.244-3.565-8.524z"/><path opacity=".5" fill="#C1C1C1" d="M243.62 364.205l-6.403-4.14 5.673-8.772 6.403 4.14z"/><path fill="#E5E5E5" d="M196.47 383.45l-12.805-8.282 5.673-8.77 12.804 8.28z"/><path fill="#D6D6D6" d="M202.128 374.69l-9.238.244-3.567-8.526z"/><path opacity=".5" fill="#C1C1C1" d="M190.067 379.31l-6.403-4.14 5.673-8.772 6.403 4.14z"/>
</g>

</svg>