<svg xmlns="http://www.w3.org/2000/svg" class="allAnimSvg" id="monde" width="350" height="400" viewBox="0 0 350 400">
    
        <!--RIBBON-->
<g id="rbnMonde"><g fill="#EFEFEF"><path d="M9.6 34.03l62.88-25.6v25.6zM434.79 228.45H267.81v81.51zM9.6 39.7h425.2v183.07H9.6z"/></g><text transform="translate(115 139)" fill="#000" font-family="'Raleway'" font-size="49">MONDE</text></g>
    
	<!--SPHERE-->
	<g id="sphere">
		<path fill="#47194F" d="M4.444 221.458S14.724 391.706 175 391.888c160.275.18 170.556-170.43 170.556-170.43"/>
		<ellipse fill="#62206B" cx="174.999" cy="221.458" rx="170.555" ry="14.881"/>
	</g>

	<!--STAAARS-->
	<g fill="#708899" id="etoiles" class="allAnimSvg">
		<circle cx="107.001" cy="275.279" r="2.665"/><circle cx="96.074" cy="320.194" r="2.258"/><circle cx="214.524" cy="249.421" r="3.534"/><circle cx="85.229" cy="282.769" r="2.664"/><circle cx="182.793" cy="270.764" r="2.258"/><circle cx="294.417" cy="299.231" r="3.534"/><circle cx="145.08" cy="256.488" r="2.665"/><circle cx="131.75" cy="299.231" r="2.258"/><circle cx="227.56" cy="358.174" r="3.534"/><circle cx="80.307" cy="346.571" r="2.258"/><circle cx="221.768" cy="317.937" r="3.534"/><circle cx="154.925" cy="358.174" r="2.664"/><circle cx="178.278" cy="302.301" r="2.258"/><circle cx="98.332" cy="245.888" r="3.534"/><circle cx="273.545" cy="346.571" r="2.258"/><circle cx="259.329" cy="267.09" r="2.257"/><circle cx="245.318" cy="291.584" r="2.665"/><circle cx="211.859" cy="288.046" r="2.665"/><circle cx="120.731" cy="341.648" r="2.664"/>
	</g>

	<!--RAINBOW-->
	<g id="rainbow">
		<path fill="#C63658" d="M59.822 222.747h231.58c-3.383-61.67-54.455-110.634-116.97-110.634-61.813 0-112.442 47.876-116.836 108.57.52.238 1.01.55 1.432.973.327.328.578.7.794 1.09z"/>
		<path fill="#D6AF32" d="M265.055 222.747c-3.343-47.137-42.635-84.338-90.622-84.338-47.986 0-87.278 37.2-90.62 84.337h181.242z"/>
		<path fill="#8D5CC6" d="M237.576 222.747c-3.264-31.992-30.288-56.955-63.143-56.955-32.854 0-59.877 24.963-63.142 56.955h126.286z"/>
		<path fill="#84B2CE" d="M210.258 222.747c-3.073-16.942-17.89-29.792-35.716-29.792s-32.644 12.85-35.716 29.792h71.432z"/>
		<path opacity=".2" fill="#232323" d="M175.433 112.112l.108 110.513h116.862s-2.002-50.17-39.576-81.333c-37.575-31.165-76.075-29.18-76.075-29.18"/>
	</g>

	<!--AKUPAKU-->
	<g id="akupaku" class="allAnimSvg">
		<path fill="#5B7C8E" d="M171.333 346.343s1.236 8.06-2.962 12.652v.012c-4.197-4.593-2.96-12.652-2.96-12.652"/><path fill="#6D94AF" d="M170.046 346.354s.714 3.325-1.713 5.22v.005c-2.428-1.896-1.712-5.22-1.712-5.22"/><path fill="#4C6672" d="M171.37 346.343l-2.316.005v11.616l.03.04v-.01c3.242-4.23 2.287-11.65 2.287-11.65z"/><path fill="#5B7B89" d="M170.085 346.49l-1.032.002v4.532c1.463-1.646 1.032-4.535 1.032-4.535z"/><path fill="#727272" d="M160.084 334.234s15.93.385 16.474 0c.543-.386-1.264 9.366-3 12.054-4.347.597-10.866 0-10.866 0s-2.608-5.593-2.608-12.054z"/><path fill="#595959" d="M169.054 334.376c3.598.05 7.315.054 7.557-.142.476-.386-1.104 9.366-2.624 12.054-1.504.236-3.304.285-4.932.26v-12.172z"/><path fill="#684D23" d="M150.868 334.597c.43 0 36.702.613 35.885 0-.817-.612 3.165-21.747 2.553-23.95-.613-2.202.714-24.65 0-26.897-.715-2.246-16.643.408-20.114-1.02-3.472-1.43-25.118 1.836-24.71 5.002.41 3.165 3.064 18.99 3.197 23.38.132 4.392 2.758 23.485 2.758 23.485"/><path fill="#2B0F02" d="M154.84 312.857s-4.562.372-4.562 4.934c0 4.56.28 9.308 1.77 10.145 1.488.84 1.302 1.49 6.048 2.234 4.747.744 4.28-2.142 10.145-2.05 5.864.095 6.05 2.202 11.728 2.172 5.677-.03 6.142-8.22 6.142-8.22s2.234-8.75-4.56-9.215c-6.794-.465-11.448 1.582-13.17 1.21-1.72-.372-10.93-2.176-13.54-1.21z"/><path fill="#E0A651" d="M156.2 314.41s-4.03.298-4.03 3.96.248 7.472 1.564 8.144c1.316.674 1.15 1.196 5.346 1.793 4.195.598 3.784-1.718 8.965-1.643 5.182.074 5.346 1.766 10.364 1.742 5.017-.024 5.428-6.6 5.428-6.6s1.974-7.024-4.03-7.397c-6.005-.375-10.118 1.27-11.64.97-1.52-.298-9.66-1.747-11.967-.97z"/><path opacity=".3" fill="none" stroke="#2B0F02" stroke-miterlimit="10" d="M151.768 321.295s23.344-1.615 32.38 0M155.18 314.615s-.328 12.61 0 12.755"/><path opacity=".3" fill="none" stroke="#2B0F02" stroke-miterlimit="10" d="M159.958 314.248l1.247 13.95M168.79 315.41l-.41 11.262M176.336 314.4l-.692 13.8M181.722 314.844l-.355 12.526"/><path fill="#A5792B" d="M165.107 292.632l-1.532 8.168s-1.43 4.187.766 5.82c2.196 1.634-6.584-2.45-8.83-.51-2.248 1.94 1.428 3.063 1.428 3.063s8.985 1.32 9.496 1.426c.51.104 2.236 0 2.236 0l6.647-.508s8.883-1.532 5.922-3.677-9.293.41-9.293.41 2.45-.92-1.634-14.194c5.105-4.083 11.53-3.164 11.53-3.164s4.092.204 4.91 4.187c.816 3.98 3.675-3.676 0-5.82-3.677-2.145-5.106-3.37-11.54-.816s-8.167 1.327-8.167 1.327-15.316-5.003-17.97-.306c-2.656 4.696-.716 5.717-.716 5.717s3.063-5.003 7.352-3.98c4.29 1.02 6.026 1.428 9.395 2.857z"/><path fill="#302211" d="M160.158 295.613c-7.86-7.146-9.284-2.978-9.29 5.28.238 2.976 3.97 2.183 3.97 2.183s13.18-.317 5.32-7.463zM175.325 295.613c7.86-7.146 9.284-2.978 9.29 5.28-.238 2.976-3.97 2.183-3.97 2.183s-13.18-.317-5.32-7.463z"/>
    <g id="sataku" class="allAnimSvg">
        <circle fill="#684D23" cx="125.184" cy="313.087" r="4.594"/>           <circle fill="#4C371A" cx="205.887" cy="313.711" r="2.859"/>           <circle fill="#4C371A" cx="183.806" cy="270.916" r="4.723"/>
        <circle fill="#4C371A" cx="182.857" cy="353.385" r="4.006"/>
    </g>
        
		<path opacity=".4" fill="#212121" d="M189.178 310.66c-.613-2.202.714-24.65 0-26.897-.707-2.22-16.266.346-19.984-.972v52.05c9.005.077 17.84.077 17.43-.228-.816-.613 3.166-21.75 2.554-23.95z"/>
	</g>
</svg>