<svg xmlns="http://www.w3.org/2000/svg" class="allAnimSvg" id="presentation" width="350" height="400" viewBox="0 0 350 400">

    
    <!--RIBBON-->
<g id="rbnPresent"><g fill="#EFEFEF"><path d="M9.6 34.03l62.88-25.6v25.6zM434.79 228.45H267.81v81.51zM9.6 39.7h425.2v183.07H9.6z"/></g><text transform="translate(36.48 139)" fill="#000" font-family="'Raleway'" font-size="49">PRESENTATION</text></g>
    
    
	<!--DEMI SPHERE!!!!!!!!!-->
	<g id="sphere">
		<path fill="#37607F" d="M5 221.548s10.28 170.248 170.556 170.43 170.556-170.43 170.556-170.43"/>
		<ellipse fill="#40709B" cx="175.556" cy="221.548" rx="170.556" ry="14.881"/>
	</g>


	<!--BATEAU!!!!!!!!!-->
	<g id="bateau" class="allAnimSvg">
		<path fill="#6D4813" d="M94.538 206.962s7.777 14.853 16.504 16.797c8.726 1.942 89.528 4.27 104.47 4.115.54-10.733-.493-21.934-.493-21.934l41.796-3.54-.277-3.03-40.945 2.893-1.82.128s-65.27 3.876-79.585.918c-14.313-2.952-22.295-3.44-22.295-3.44s-14.502 1.643-17.357 7.094z"/><path fill="#A28054" d="M96.428 207.31s6.79 11.622 49.584 9.03c42.587-5.013 67.046-7.94 71.5-12.937-9.934.506-97.964 3.15-105.196-2.943-9.612 2.44-15.888 6.85-15.888 6.85z"/><path fill="#352313" d="M139.872 215.304l21.68-9.888s-49.74-.802-50.274-3.963c-3.174 1.532-12.156 5.56-12.156 5.56s6.207 10.676 40.75 8.29z"/><path fill="#A76915" d="M139.872 215.304c3.554-1.777 7.132-3.5 10.705-5.238 3.57-1.744 7.154-3.453 10.74-5.162l.225 1.078c-4.233 0-8.46-.072-12.69-.147-4.23-.093-8.457-.23-12.687-.398-4.23-.182-8.456-.423-12.686-.76-2.116-.17-4.232-.366-6.35-.653-1.06-.144-2.12-.307-3.187-.526-.536-.114-1.07-.238-1.624-.41-.28-.093-.557-.188-.863-.34l-.232-.123-.26-.183c-.08-.05-.204-.192-.29-.296-.09-.094-.204-.358-.246-.547l1.222.63-12.207 5.505.36-1.117c.155.24.457.588.728.87.306.283.59.582.934.836.645.542 1.373 1.008 2.104 1.453l1.13.634c.38.21.785.373 1.177.562.777.39 1.602.687 2.422.99.81.334 1.66.56 2.502.813.422.123.84.26 1.266.37l1.29.29c.864.18 1.712.432 2.59.553l2.617.443c.873.15 1.76.21 2.64.32.882.09 1.76.222 2.647.274 1.773.098 3.546.282 5.326.31l2.67.052c.89.012 1.783.057 2.673.02l5.352-.102zm0 0l-5.34.427c-.892.084-1.786.08-2.68.115l-2.68.08c-1.79.058-3.58-.04-5.374-.053-.897-.004-1.79-.118-2.686-.172-.894-.08-1.792-.112-2.684-.23l-2.675-.356c-.896-.095-1.775-.313-2.662-.48l-1.327-.266c-.44-.102-.874-.23-1.312-.348-.872-.238-1.754-.448-2.606-.773-.86-.294-1.724-.58-2.554-.97-.417-.19-.846-.35-1.254-.562l-1.22-.647c-.796-.467-1.586-.956-2.318-1.55-.75-.602-1.42-1.176-2.06-2.11l-.496-.72.855-.396 12.104-5.615 1.225.632c.02-.075-.077-.196-.072-.198.008-.014-.046-.035-.01-.018.023.013.043.027.063.045l.12.06c.166.083.39.16.613.233.456.14.95.254 1.45.357 1.002.2 2.034.353 3.07.488 2.072.263 4.165.47 6.26.65 4.196.36 8.41.605 12.623.833 4.215.238 8.434.425 12.653.6l12.662.49 2.48.095-2.255.982c-3.64 1.587-7.282 3.174-10.94 4.725-3.65 1.562-7.298 3.134-10.97 4.652z"/><path fill="#5A3B18" d="M115.543 189.768l-11.806 20.972 2.602 2.463 12.23-23.713zM120.69 189.294l9.73 13.268 3.832 1.218-11.282-16.223s-.8-2.064-2.28 1.737z"/><path fill="#D18F50" d="M99.16 180.896s8.864 3.457 9.004 4.972c.138 1.513 4.353 4.178 7.38 3.9s7.428-2.212 7.428-2.212l39.915 9.146s2.487-2.458.705 7.652c4.07 4.424 8.21 9.626 7.646.17-.566-9.455-10.563-88.206-10.563-88.206L153.5 51.654 149.145 11l-3.33.307L147.5 29.62l5.038 48.07 7.25 58.858 4.324 50.27s-16.844-.603-19.404-1.884c-2.56-1.282-40.295-6.66-40.295-6.66l-5.254 2.622z"/><path fill="none" stroke="#B99268" stroke-miterlimit="10" d="M146.08 14.182s-14.775 145.596-39.4 164.42M147.502 29.62S134.1 172.49 117.32 179.225M149.656 50.18L134.34 182.84M150.623 63.52s7.978 106.53-10.905 120.266"/><path fill="#E4DBD2" d="M215.594 202.267s-43.35-98.917-62.29-152.424c.495 4.526.546 5.94.546 5.94s57.585 146.904 58.756 146.758c1.17-.145 2.988-.273 2.988-.273zM161.032 45.62s84.477 153.32 92.703 153.135c8.224-.186 2.452 3.426-.546-5.926-5.006-7.95-90.493-147.363-90.493-147.363s-1.89-3.947-1.665.154z"/><path fill="none" stroke="#E4DBD2" stroke-miterlimit="10" d="M151.103 29.288l9.762 14.516M197.435 166.008s.565 24.193-26.197 38.518"/><path fill="none" d="M222.31 152.933s-18.732 47.902-27.668 50.433M153.305 49.843s30.813 145 28.526 153.708"/><path fill="#E1C3A6" d="M160.702 196.202s7.813-3.835 3.41-9.382c-6.182-.298-18.568-1.6-18.568-1.6l-8.605-2.62-2.88-2.4s-5.624-.01-6.898.635c-1.276.645-4.352.167-4.352.167s-2.46-2.033-5.09-.772c-3.047-.763-12.875-3.063-12.875-3.063s-7.475 2.52-5.58 4.864c1.894 2.343 7.992 2.798 7.992 2.798s4.63 10.082 15.716 2.73l25.903 5.933 11.826 2.712z"/><path fill="#393939" d="M106.845 180.176s.625.528 1.563 1.317l.753.632c.264.23.53.487.826.73.57.52 1.275.944 2.014 1.288.382.147.746.326 1.12.464.375.13.73.303 1.097.39.365.097.705.23 1.043.297.337.063.648.183.948.215.298.045.572.083.815.13.244.03.46.025.637.048.36.033.563.054.563.054l.004.045s-.205.027-.563.08c-.18.02-.4.05-.655.062-.255-.003-.54-.02-.855-.035-.315-.006-.646-.092-1-.15-.36-.05-.713-.193-1.085-.313-.376-.114-.733-.308-1.11-.466-.37-.173-.72-.4-1.076-.608-.34-.24-.693-.45-1.03-.676-.333-.23-.682-.424-1.01-.632-.33-.203-.648-.402-.928-.622-.288-.21-.527-.45-.76-.652-.446-.432-.786-.822-1.01-1.105-.226-.284-.335-.462-.335-.462l.035-.032zM117.925 182.46s1.043-.163 2.614-.188c.392-.012.818-.017 1.268.005.45.003.923.065 1.413.102.98.094 2.023.145 3.072.145 1.05.004 2.097.082 3.077.192.976.125 1.89.275 2.65.502.383.105.735.196 1.032.33.297.13.57.2.767.334.397.235.626.368.626.368l-.022.038s-.245-.09-.673-.244c-.205-.09-.482-.135-.784-.223-.3-.087-.65-.153-1.032-.23-.378-.084-.796-.137-1.234-.217-.437-.087-.906-.128-1.387-.205-.963-.15-2-.253-3.035-.403-1.036-.14-2.08-.187-3.062-.15-.98.042-1.893.056-2.674.02-1.565-.033-2.613-.133-2.613-.132l-.005-.046zM126.33 184.995c0 .002 1.904.01 4.74.294 1.42.127 3.07.353 4.816.72.872.188 1.775.368 2.678.63.45.133.91.263 1.326.536.24.134.29.467.437.566.158.156.35.285.548.405.804.464 1.703.773 2.586 1.04.885.273 1.772.49 2.637.66 1.73.36 3.37.532 4.778.603 1.41.06 2.588-.02 3.407-.125.82-.104 1.28-.22 1.28-.222l.014.044s-.448.163-1.264.35c-.815.176-2.008.35-3.444.34-1.436.007-3.11-.167-4.864-.54-.874-.195-1.77-.427-2.663-.738-.884-.32-1.778-.678-2.594-1.204-.2-.137-.398-.284-.57-.472-.21-.226-.186-.452-.385-.57-.368-.255-.826-.4-1.265-.54-.895-.246-1.8-.41-2.68-.524l-4.816-.596c-2.822-.343-4.704-.61-4.704-.61l.005-.05z"/><linearGradient id="a" gradientUnits="userSpaceOnUse" x1="-219.573" y1="80.491" x2="-215.522" y2="80.491" gradientTransform="matrix(1 0 0 -1 404 286)"><stop offset=".043" stop-color="#555290"/><stop offset="1" stop-color="#555290"/></linearGradient><path fill="url(#a)" d="M188.48 207.326s-.306.87-1.9.87-1.995-.478-2.095-.703c-.1-.224 0-.563 0-.563s-.09-.28-.045-.534-.013-.704-.013-.704v-1.97s.722-.928 1.888-.9c1.165.028 1.563.535 1.547.93-.016.393.166 1.23.166 1.23l.29 1.218.16 1.126z"/><path fill="#F9E0AA" d="M187.26 203.946l-.06-2.33h-2.504l.205 2.33z"/><linearGradient id="b" gradientUnits="userSpaceOnUse" x1="-219.75" y1="78.512" x2="-215.518" y2="78.512" gradientTransform="matrix(1 0 0 -1 404 286)"><stop offset="0" stop-color="#D5CACF"/><stop offset="1" stop-color="#E0EFEF"/></linearGradient><path fill="url(#b)" d="M188.395 206.775s-.066.31-.51.424c-.443.11-2.405.562-3.617-.27 0 .564-.127.684.297.883.424.197.805.344 1.91.385 1.11.04 2.065-.475 2.005-.872l-.085-.55z"/><linearGradient id="c" gradientUnits="userSpaceOnUse" x1="-217.74" y1="78.577" x2="-217.74" y2="82.31" gradientTransform="matrix(1 0 0 -1 404 286)"><stop offset=".231" stop-color="#555290"/><stop offset="1" stop-color="#9FAEA9"/></linearGradient><path fill="url(#c)" stroke="#EDEDED" stroke-width=".25" stroke-miterlimit="10" d="M188.02 205.045s-.332-.8-.684-1.223c-1.228-.338-2.14.056-2.314.252-.176.197-.28.77-.388.947-.104.18-.385.798-.385.798s-.212.976.018 1.112c.23.14 1.067.526 1.822.49.756-.037 1.817-.15 2.012-.307.193-.156.328-.344.223-.808-.108-.463-.306-1.26-.306-1.26z"/><path fill="none" d="M184.87 204.354s-.282.03-.663-.63M187.407 203.91s.42.177.368-.42"/><path fill="none" stroke="#EDEDED" stroke-width=".1" stroke-miterlimit="10" d="M184.46 205.625s-.39 1.54 1.52 1.41c1.91-.127 1.682-.145 1.682-.145s.663.118.394-1.805"/><linearGradient id="d" gradientUnits="userSpaceOnUse" x1="-707.356" y1="80.381" x2="-703.304" y2="80.381" gradientTransform="matrix(-1 0 0 -1 -528.217 286)"><stop offset=".043" stop-color="#555290"/><stop offset="1" stop-color="#555290"/></linearGradient><path fill="url(#d)" d="M175.087 207.435s.305.872 1.9.872 1.995-.478 2.095-.703c.1-.225 0-.563 0-.563s.09-.28.045-.533c-.045-.252.012-.703.012-.703v-1.97s-.723-.93-1.888-.9-1.563.534-1.547.928c.016.395-.166 1.23-.166 1.23l-.29 1.22-.163 1.123z"/><path fill="#F9E0AA" d="M176.306 204.056l.058-2.33h2.506l-.205 2.33z"/><linearGradient id="e" gradientUnits="userSpaceOnUse" x1="-707.535" y1="78.404" x2="-703.301" y2="78.404" gradientTransform="matrix(-1 0 0 -1 -528.217 286)"><stop offset="0" stop-color="#D5CACF"/><stop offset="1" stop-color="#E0EFEF"/></linearGradient><path fill="url(#e)" d="M175.17 206.884s.068.312.512.424c.443.112 2.406.564 3.618-.268 0 .563.127.684-.297.882-.423.198-.805.344-1.912.385-1.106.042-2.064-.475-2.003-.872.06-.4.084-.55.084-.55z"/><linearGradient id="f" gradientUnits="userSpaceOnUse" x1="-705.522" y1="78.468" x2="-705.522" y2="82.201" gradientTransform="matrix(-1 0 0 -1 -528.217 286)"><stop offset=".231" stop-color="#555290"/><stop offset="1" stop-color="#9FAEA9"/></linearGradient><path fill="url(#f)" stroke="#EDEDED" stroke-width=".25" stroke-miterlimit="10" d="M175.548 205.153s.33-.8.68-1.222c1.23-.338 2.142.056 2.317.253.174.196.28.77.387.947.105.18.385.797.385.797s.21.975-.018 1.11c-.23.14-1.07.528-1.825.492-.754-.038-1.817-.15-2.01-.31-.194-.154-.33-.343-.225-.807.11-.462.308-1.26.308-1.26z"/><path fill="none" d="M178.695 204.463s.283.03.664-.63M176.16 204.02s-.42.176-.37-.422"/><path fill="none" stroke="#EDEDED" stroke-width=".1" stroke-miterlimit="10" d="M179.106 205.733s.39 1.54-1.52 1.41c-1.91-.127-1.682-.145-1.682-.145s-.663.118-.394-1.805"/><path fill="#85A4AF" d="M187.1 175.68l.707 26.456h-3.518l-2.704-20.303h.54l-2.704 20.303h-3.517l.706-26.455"/><path fill="#DDEDE4" d="M175.905 162.652s.583 10.322.647 12.75c.063 2.43 10.416 2.174 10.512 0l.518-11.71-3.13-7.632h-5.086l-3.46 6.592z"/><path fill="#F9E0AA" stroke="#E5CFA1" stroke-width=".1" stroke-miterlimit="10" d="M183.86 154.267v1.86s-.744 1.44-1.735 1.44-2.086-1.164-2.086-1.164v-2.486"/><path fill="#EAD3A4" d="M182.137 154.205v3.3c.99 0 1.733-1.438 1.733-1.438v-1.862"/><path fill="#B79E0B" d="M186.4 143.678s1.11-.89 1.238-1.232c.13-.343 1.43 2.26.883 3.147-.546.89 1.026 0 1.026 0s-2.55 6.857-3.557 7.115c-1.01.257-1.295.644-1.295.644M177.718 143.678s-1.11-.89-1.238-1.232c-.13-.343-1.43 2.26-.882 3.147.547.89-1.026 0-1.026 0s2.55 6.857 3.558 7.115c1.007.257 1.294.644 1.294.644"/><path fill="#F9E0AA" stroke="#E5CFA1" stroke-width=".1" stroke-miterlimit="10" d="M186.854 147.92c.424-.548.85.205.777 1.16-.07.96-.776 1.644-1.412 1.78-2.118 4.31-4.094 4.38-4.094 4.38s-1.976-.07-4.094-4.38c-.635-.136-1.342-.82-1.413-1.78-.07-.955.353-1.71.777-1.16 0 0-.368-5.473 4.49-5.473s4.97 5.472 4.97 5.472z"/><path opacity=".8" fill="#F2DAB1" enable-background="new" d="M186.963 147.92c.424-.548.85.205.777 1.16-.07.96-.777 1.644-1.412 1.78-2.12 4.31-4.094 4.38-4.094 4.38l-.24-12.795c4.858.002 4.97 5.474 4.97 5.474z"/><path fill="#B79E0B" d="M177.575 149.562s.958-2.6.753-3.352c4.242 0 6.294-1.917 6.294-1.917s1.505.41.958 2.634c.547.24.684 2.224.684 2.224s.184-1.442.945-1.404c.013-2.63.353-4.342-1.015-5.298-1.368-.96-6.156-.685-6.156-.685s-1.302-.205-1.302-.82-2.75 2.598-2.128 6.43c.487.362 1.25 1.287.965 2.19z"/><ellipse fill="#85A4AF" cx="180.381" cy="148.363" rx=".649" ry=".479"/><ellipse fill="#85A4AF" cx="183.858" cy="148.363" rx=".65" ry=".479"/><path fill="#DDEDE4" d="M184.042 156.06s5.746.65 6.054 1.506c.308.855 1.95 4.65 1.642 4.55-.31-.102-4.65 1.483-4.608.725M179.86 156.06s-5.746.65-6.053 1.506c-.308.855-1.95 4.65-1.642 4.55.308-.102 4.65 1.483 4.607.725"/><path fill="#EAD3A4" d="M190.736 162.252s1.344 5.847 0 9.773-2.82 6.022-2.82 6.022l-.535-2.226s2.28-9.218.557-12.725l2.8-.843z"/><path fill="#F9E0AA" d="M172.985 162.252s-1.343 5.847 0 9.773c1.344 3.927 2.82 6.022 2.82 6.022l.536-2.226s-2.278-9.218-.555-12.725l-2.8-.843z"/><path fill="none" stroke="#779299" stroke-miterlimit="10" d="M176.724 179.13l.478-2.443M186.392 176.48l.478 2.444"/><path fill="#EDEDED" d="M186.324 204.88c-.39-.046-.77-.12-1.146-.234-.094-.03-.187-.064-.276-.11-.04-.04-.097-.043-.123-.124-.033-.065.048-.145.086-.155.194-.093.388-.107.58-.14l.016-.004.01.01.447.357c.154.11.277.257.404.4zm0 0c-.27-.27-.598-.467-.892-.7l.023.004c-.187.037-.39.064-.544.148-.04.02-.062.04-.053.06-.005.02.054.05.08.075.083.045.17.08.26.114.367.125.748.206 1.127.3zM186.404 204.895c.39.024.777.06 1.16.055.097-.004.192-.013.283-.03.034-.016.096-.025.098-.05.018-.014.002-.04-.032-.07-.122-.127-.307-.215-.474-.307l.022.002c-.35.136-.72.225-1.058.4zm0 0c.164-.097.325-.2.508-.26l.535-.205.01-.005.014.007c.176.09.356.16.512.31.032.02.087.12.036.174-.05.07-.102.056-.152.08-.102.018-.2.022-.3.022-.392-.005-.78-.05-1.162-.123zM186.26 204.812l-.236.096c-.14.055-.33.133-.496.24-.084.055-.167.106-.224.178l-.18.194c-.077.036-.15.056-.194.026-.045-.012-.058-.04-.06-.036.002-.004.02.02.064.02.045.02.096-.02.153-.045.05-.058.104-.128.164-.2.058-.087.145-.15.23-.213.185-.102.38-.165.527-.212.15-.038.254-.048.254-.048zM186.324 204.88s.085.012.205.063c.058.027.126.063.19.12.057.054.137.14.11.25l-.017.12c.02.022.017.047.055.067.05.046.127.063.186.08.12.03.205.044.205.044s-.086.017-.216.002c-.063-.012-.143-.02-.217-.072-.04-.013-.074-.076-.09-.125l.008-.132c.03-.137-.14-.257-.24-.313-.104-.067-.18-.106-.18-.106zM177.212 205.288c-.388-.045-.77-.12-1.147-.233-.093-.03-.187-.065-.277-.11-.042-.038-.096-.043-.122-.124-.03-.066.05-.144.088-.154.193-.093.387-.107.58-.14l.016-.004.01.01.446.358c.156.11.28.256.406.398zm0 0c-.27-.27-.598-.466-.89-.7l.022.005c-.187.038-.39.064-.543.148-.042.02-.063.04-.053.06-.004.02.053.052.08.076.082.044.17.08.26.113.366.124.747.205 1.125.298zM177.292 205.304c.39.024.776.06 1.162.055.095-.005.19-.014.282-.03.034-.017.097-.026.1-.05.015-.015 0-.04-.034-.072-.124-.126-.308-.214-.474-.305l.022.002c-.35.135-.72.224-1.058.4zm0 0c.164-.097.326-.2.508-.26l.535-.205.01-.006.014.007c.174.09.354.162.51.31.034.022.087.122.037.175-.05.07-.103.056-.154.082-.1.017-.2.02-.3.02-.39-.005-.778-.05-1.16-.123zM177.15 205.222l-.24.096c-.14.056-.33.132-.496.24-.173.09-.29.263-.403.37-.075.038-.15.057-.192.027-.045-.012-.058-.04-.06-.036.002-.005.02.02.064.02.045.02.095-.02.154-.046l.162-.2c.058-.087.146-.15.23-.213.185-.1.38-.164.527-.21.15-.04.254-.048.254-.048zM177.212 205.288s.085.013.206.063c.06.027.126.065.19.12.056.056.14.142.113.25l-.017.123c.018.02.016.046.053.066.052.046.128.062.186.078.12.032.207.045.207.045s-.086.017-.216.002c-.064-.012-.144-.02-.218-.072-.04-.013-.074-.076-.09-.125l.008-.13c.03-.138-.138-.258-.238-.314-.106-.067-.184-.106-.184-.106z"/><path fill="#F9E0AA" stroke="#E5CFA1" stroke-miterlimit="10" d="M175.805 178.047"/><ellipse transform="matrix(.619 -.785 .785 .619 -72.097 206.099)" fill="#F9E0AA" cx="176.389" cy="177.364" rx="1.44" ry="1.623"/><ellipse transform="matrix(.619 .785 -.785 .619 210.532 -79.547)" fill="#EAD3A4" cx="187.289" cy="177.311" rx="1.415" ry="1.595"/><circle fill="#F9E0AA" cx="176.587" cy="175.821" r=".376"/><circle fill="#EAD3A4" cx="187.246" cy="175.821" r=".376"/>
	</g>

	<!--BUBBLES!!!!!!!!!-->
	<g id="bubbles" class="allAnimSvg">
		<circle class="bulle" fill="#84B2CE" stroke="#79A2B7" stroke-width=".5" stroke-miterlimit="10" cx="127.471" cy="339.406" r="8.25"/>
		<circle class="bulle"  fill="#84B2CE" stroke="#79A2B7" stroke-width=".5" stroke-miterlimit="10" cx="170.631" cy="326.941" r="6.493"/>
		<circle class="bulle"  fill="#84B2CE" stroke="#79A2B7" stroke-width=".5" stroke-miterlimit="10" cx="120.689" cy="363.82" r="4.75"/>
		<circle class="bulle"  fill="#84B2CE" stroke="#79A2B7" stroke-width=".5" stroke-miterlimit="10" cx="149.656" cy="322.927" r="4.75"/>
		<circle class="bulle"  fill="#84B2CE" stroke="#79A2B7" stroke-width=".5" stroke-miterlimit="10" cx="130.336" cy="374.817" r="2.229"/>
		<circle class="bulle"  fill="#84B2CE" stroke="#79A2B7" stroke-width=".5" stroke-miterlimit="10" cx="150.731" cy="351.563" r="4.398"/>
	</g>

	<!--FISH!!!!!!!!!-->
	<g id="fish" class="allAnimSvg">
		<circle fill="#BA3A62" cx="215.819" cy="287.137" r="19"/>
		<path fill="#E5518D" d="M234.82 287.137c0 10.494-8.508 19-19 19s-10.494-38 0-38 19 8.507 19 19z"/>
		<path fill="#A3365D" d="M199.32 286.33c0 5.92-4.8 10.718-10.72 10.718-5.92 0-5.92-21.437 0-21.437s10.72 4.8 10.72 10.72z"/>
		<circle fill="#892F54" cx="225.57" cy="281.674" r="1.776"/>
	</g>
</svg>