<svg xmlns="http://www.w3.org/2000/svg" class="allAnimSvg" id="travaux" width="350" height="400" viewBox="0 0 350 400">
    
            <!--RIBBON-->
<g id="rbnTravaux"><g fill="#EFEFEF"><path d="M9.6 34.03l62.88-25.6v25.6zM434.79 228.45H267.81v81.51zM9.6 39.7h425.2v183.07H9.6z"/></g><text transform="translate(115 139)" fill="#000" font-family="'Raleway'" font-size="49">TRAVAUX</text></g>

	<!--SPHERE-->
	<g id="sphere">
		<path fill="#5B3821" d="M175.013 235.307c-94.195 0-170.555-6.662-170.555-14.88h-.154s10.28 170.247 170.555 170.428c154.167.174 169.554-157.672 170.503-169.7-4.348 7.88-78.95 14.152-170.35 14.152z"/>
		<path fill="#70432B" d="M175.013 236.307c91.4 0 166.002-6.272 170.35-14.153.133-.24.205-.483.205-.728 0-8.218-76.36-14.88-170.555-14.88S4.458 213.207 4.458 221.425c0 8.22 76.36 14.88 170.555 14.88z"/>
		<path fill="#9B613A" d="M177.462 257.02c-67.31 0-125.502-3.402-153.244-8.343h-.06S33.25 389.435 175.01 389.584c135.527.143 149.8-128.755 150.793-140.098-29.335 4.5-84.773 7.534-148.34 7.534z"/>
	</g>

	<!--COGS-->
	<g id="cog1" class="allAnimSvg">
		<path fill="#661D0C" d="M199.17 342.714l12.97 8.67 8.272-8.803c1.493.42 3.004.72 4.524.905l4.264 11.295 15.3-3.04-.373-12.05c1.34-.75 2.63-1.61 3.855-2.57l10.98 4.957 8.67-12.97-8.776-8.253c.415-1.5.72-3.02.902-4.546l11.274-4.26-3.037-15.302-12.07.377c-.75-1.334-1.606-2.61-2.563-3.835l4.973-11.007-12.97-8.668-8.29 8.82c-1.48-.41-2.98-.704-4.487-.886l-4.28-11.333-15.302 3.038.376 12.13c-1.31.746-2.576 1.59-3.783 2.527l-11.06-4.993-8.668 12.97 8.843 8.313c-.408 1.47-.703 2.962-.888 4.457l-11.35 4.293 3.038 15.298 12.107-.377c.744 1.323 1.59 2.596 2.537 3.81l-4.984 11.033-.006.004zm20.943-35.988c3.188-4.77 9.64-6.05 14.41-2.862 4.77 3.188 6.053 9.64 2.864 14.41-3.188 4.772-9.64 6.054-14.41 2.864-4.77-3.19-6.053-9.64-2.864-14.412z"/>
		<path fill="#822411" d="M220.852 341.922c1.495.417 3.004.718 4.522.903l4.267 11.297 15.302-3.043-.375-12.048c1.34-.752 2.63-1.61 3.856-2.572l10.982 4.956 4.334-6.484-25.91-17.32c0 .002-.002.003-.002.003-3.188 4.77-9.642 6.052-14.41 2.863-4.772-3.188-6.054-9.64-2.864-14.41 0-.002 0-.003.003-.004l-25.912-17.32-4.333 6.482 8.844 8.313c-.407 1.472-.703 2.96-.888 4.457l-11.353 4.292 3.04 15.297 12.107-.377c.744 1.323 1.59 2.596 2.538 3.81l-4.983 11.032-.006.002 12.97 8.67 8.272-8.802z"/>
	</g>

	<g id="cog2" class="allAnimSvg">
		<path fill="#661D0C" d="M147.288 325.555l-5.24 8.09 5.513 5.03c-.243.925-.415 1.86-.517 2.802l-6.938 2.735 2.017 9.424 7.438-.34c.476.82 1.02 1.61 1.624 2.358l-2.963 6.83 8.09 5.236 5.02-5.496c.93.244 1.872.417 2.815.517l2.73 6.928 9.427-2.014-.34-7.453c.816-.475 1.597-1.015 2.344-1.618l6.844 2.974 5.238-8.09-5.523-5.04c.24-.92.41-1.85.507-2.78l6.962-2.746-2.014-9.425-7.49.34c-.472-.802-1.003-1.576-1.595-2.312l2.985-6.876-8.09-5.237-5.055 5.537c-.912-.24-1.835-.408-2.76-.51l-2.755-6.972-9.422 2.016.34 7.477c-.81.47-1.588 1.005-2.328 1.602l-6.86-2.98-.002-.005zm22.418 12.612c2.975 1.926 3.825 5.9 1.898 8.875-1.927 2.976-5.9 3.826-8.876 1.9-2.977-1.928-3.826-5.902-1.9-8.877 1.928-2.975 5.902-3.826 8.878-1.898z"/>
		<path fill="#822411" d="M147.972 338.94c-.244.927-.416 1.86-.517 2.8l-6.94 2.738 2.018 9.424 7.438-.34c.478.82 1.02 1.61 1.624 2.358l-2.962 6.83 4.044 2.618 10.464-16.16v-.002c-2.977-1.927-3.826-5.9-1.9-8.875 1.928-2.976 5.9-3.825 8.877-1.898 0 0 .002 0 .002.002l10.465-16.162-4.043-2.618-5.056 5.537c-.914-.236-1.835-.406-2.762-.507l-2.753-6.974-9.42 2.016.34 7.475c-.81.473-1.588 1.007-2.33 1.603l-6.86-2.98v-.002l-5.238 8.09 5.51 5.03z"/>
	</g>

	<g id="cog3" class="allAnimSvg">
		<path fill="#661D0C" d="M147.29 262.833l-11.542-2.63-3.477 8.48c-1.17.11-2.322.306-3.45.586l-6.085-6.85-10.02 6.303 3.53 8.437c-.744.896-1.427 1.854-2.034 2.868l-9.127-.537-2.628 11.543 8.458 3.47c.112 1.18.31 2.338.593 3.47l-6.84 6.073 6.303 10.023 8.45-3.54c.895.742 1.847 1.415 2.858 2.022l-.542 9.15 11.542 2.628 3.485-8.5c1.16-.108 2.304-.308 3.42-.587l6.106 6.873 10.02-6.302-3.554-8.495c.727-.886 1.396-1.825 1.996-2.818l9.192.542 2.628-11.543-8.52-3.494c-.11-1.153-.305-2.29-.58-3.4l6.88-6.118-6.3-10.02-8.48 3.55c-.883-.737-1.83-1.41-2.83-2.012l.542-9.172h.007zm-5.09 31.184c-.966 4.245-5.19 6.902-9.437 5.936-4.245-.967-6.904-5.192-5.937-9.438.967-4.247 5.193-6.904 9.438-5.937 4.247.967 6.905 5.193 5.936 9.44z"/>
		<path fill="#822411" d="M132.138 269.27c-1.172.11-2.324.307-3.45.587l-6.087-6.852-10.02 6.305 3.533 8.438c-.746.896-1.43 1.854-2.037 2.867l-9.127-.535-1.315 5.77 23.058 5.254.002-.003c.967-4.244 5.193-6.9 9.438-5.934 4.247.966 6.903 5.19 5.937 9.438 0 0 0 .002-.002.003l23.062 5.253 1.314-5.77-8.522-3.495c-.11-1.155-.305-2.29-.58-3.4l6.883-6.12-6.303-10.02-8.478 3.55c-.886-.735-1.83-1.408-2.833-2.01l.543-9.172.004-.003-11.542-2.63-3.477 8.48z"/>
	</g>


		<path fill="#773D20" d="M174.936 257.02h5.052v21.492h-5.052z"/>
		<circle fill="#773D20" cx="178.023" cy="277.332" r="3.469"/>

	<g id="cog4" class="allAnimSvg">
		<path fill="#661D0C" d="M188.993 277.52c.028-.455.028-.91 0-1.48h.2l1.94-1.71-.605-2.164-2.493-.456h-.226c-.206-.343-.448-.798-.706-1.14l.175-.228.805-2.393-1.612-1.598-2.415.798-.177.115c-.39-.23-.794-.456-1.208-.686l.076-.23-.48-2.507-2.216-.568-1.686 1.937-.05.228c-.476-.113-.938-.113-1.41 0l-.053-.228-1.687-1.937-2.216.568-.48 2.508.077.23c-.414.228-.816.456-1.207.685l-.178-.115-2.418-.798-1.61 1.597.805 2.392.178.228c-.26.342-.503.797-.707 1.14h-.227l-2.492.456-.603 2.165 1.938 1.71h.202c-.03.57-.03 1.025 0 1.48h-.202l-1.938 1.71.604 2.28 2.493.456.228-.112c.205.454.447.795.708 1.25l-.18.115-.805 2.392 1.61 1.71 2.42-.91.177-.114c.39.23.793.454 1.207.684l-.076.228.48 2.507 2.216.57 1.687-1.938.052-.115h1.41l.05.114 1.687 1.936 2.217-.57.478-2.506-.076-.228c.414-.23.817-.455 1.21-.684l.176.114 2.415.91 1.612-1.71-.806-2.393-.176-.115c.258-.456.5-.797.705-1.25l.225.11 2.493-.454.604-2.28-1.938-1.71h-.2zm-4.028 2.355c-.07.166-.146.328-.227.49-.037.074-.074.148-.114.222-.104.19-.213.38-.333.563-.02.032-.043.063-.064.095-.282.416-.605.813-.975 1.18-.45.43-.945.805-1.466 1.134-.12.073-.243.146-.367.213l-.133.073c-.434.223-.885.402-1.346.54l-.515-3.443c.51-.23.993-.458 1.41-.91.416-.458.736-.913.956-1.37l3.45.457c-.01.028-.022.055-.03.083-.07.228-.154.45-.245.672zm.602-2.922l-3.426-.57c-.09-1.025-.52-2.052-1.308-2.85-.07 0-.155-.114-.227-.114l1.587-3.077c.365.228.73.456 1.058.798 1.584 1.595 2.343 3.647 2.317 5.813zm-6.975-4.56c-1.114-.34-2.266-.112-3.273.456l-2.468-2.394c1.265-.944 2.744-1.478 4.244-1.6 1.03-.065 2.07.066 3.058.395l-1.562 3.143zm.63 6.04c-.89.91-2.333.91-3.223 0-.89-.91-.89-2.393 0-3.304.89-.8 2.33-.8 3.222 0 .888.91.888 2.39 0 3.304zm-9.18.867c-.08-.24-.146-.488-.203-.735-.015-.06-.032-.118-.044-.18-.06-.29-.104-.584-.13-.88v-.022c-.156-1.874.374-3.812 1.573-5.43l2.467 2.506c-.595.91-.803 2.05-.554 3.19l-3.095 1.593c-.004-.015-.01-.03-.015-.043zm1.07 2.097l3.1-1.597c.062.114.105.114.176.23.785.796 1.793 1.252 2.82 1.252l.502 3.42c-.23.012-.458.01-.686 0-.054-.005-.108-.004-.162-.01-.017 0-.033-.003-.05-.004-1.768-.174-3.49-.93-4.844-2.267-.325-.34-.598-.683-.856-1.023z"/>
	</g>


		<path fill="#773D20" d="M174.936 206.43h5.052v22.082h-5.052z"/>
		<circle fill="#773D20" cx="177.462" cy="206.431" r="4.333"/>

	<g id="cog5" class="allAnimSvg">
		<path fill="#557C4A" d="M183.828 202.02c-.16-.268-.332-.53-.53-.783-.197-.25-.414-.478-.638-.696l.614-2.52c.054-.23-.066-.467-.293-.56l-3.592-1.43c-.224-.088-.475 0-.592.203l-1.286 2.254c-.627.008-1.257.094-1.872.265l-1.872-1.785c-.174-.15-.44-.17-.63-.02l-3.034 2.396c-.19.15-.235.413-.125.615l1.304 2.234c-.31.56-.54 1.147-.69 1.76l-2.49.73c-.224.07-.37.29-.335.527l.558 3.825c.034.238.236.41.475.414l2.593-.01c.16.268.333.53.53.78.2.252.415.48.638.698l-.61 2.52c-.055.228.066.466.293.558l3.594 1.43c.225.09.475.002.593-.2l1.286-2.255c.628-.008 1.256-.09 1.872-.264l1.87 1.786c.173.153.44.17.63.02l3.033-2.395c.19-.15.234-.413.124-.615l-1.303-2.234c.31-.56.54-1.146.69-1.76l2.49-.73c.223-.07.37-.29.335-.53l-.56-3.824c-.033-.238-.236-.41-.474-.413l-2.592.01zm-4.123 6.365c-1.468 1.16-3.592.91-4.752-.56-1.158-1.467-.91-3.592.56-4.75 1.468-1.16 3.592-.91 4.75.558 1.16 1.47.91 3.593-.558 4.752z"/>
	</g>


		<path fill="#773D20" d="M149.027 195.16h5.052v32.75h-5.053z"/>
		<circle fill="#773D20" cx="151.554" cy="192.08" r="5.528"/>

	<g id="cog6" class="allAnimSvg">
		<path fill="#557C4A" d="M163.603 205.546l4.063-5.286-3.52-3.773c.22-.626.393-1.262.515-1.903l4.938-1.5-.868-6.61-5.145-.18c-.285-.593-.617-1.17-.987-1.718l2.42-4.544-5.285-4.063-3.765 3.51c-.63-.22-1.27-.39-1.912-.51l-1.5-4.928-6.61.864-.18 5.156c-.59.282-1.16.614-1.707.985l-4.556-2.432-4.063 5.285 3.528 3.787c-.214.617-.382 1.248-.502 1.886l-4.952 1.507.865 6.608 5.18.185c.282.577.602 1.144.97 1.683l-2.44 4.572 5.286 4.063 3.796-3.535c.613.215 1.24.383 1.874.506l1.51 4.96 6.61-.863.178-5.175c.585-.28 1.152-.604 1.7-.974l4.56 2.438zm-14.75-9.944c-1.944-1.494-2.31-4.28-.817-6.223 1.494-1.946 4.282-2.312 6.227-.817 1.94 1.492 2.308 4.28.813 6.226-1.495 1.94-4.282 2.303-6.223.812z"/>
	</g>

		<path fill="#773D20" d="M99.14 179.515h5.05v48.396h-5.05z"/>
		<circle fill="#773D20" cx="101.665" cy="176.477" r="6.000"/>
		
	<g fill="#557C4A" id="cog7" class="allAnimSvg">
        
		<path d="M83.527 149.124l5.53 2.59.388.32c.998-.433 2.02-.86 3.072-1.284l-.115-.564 1.854-5.83 5.438-.728 3.467 5.09.054.56c1.162-.138 2.265-.006 3.36.402l.185-.53 4.566-4.13 5.114 1.988.427 6.104-.245.52c.92.662 1.817 1.318 2.683 1.975l.454-.22 5.978-1.214 3.383 4.258-2.6 5.47-.48.493c.516.888.963 2.042 1.353 2.915l.54.064 5.808 1.793.823 5.328-5.103 3.52-.48-.06c-.094 1.367-.224 2.453-.422 3.53l.48.056 4.13 4.622-2.09 5.254-6.065.376-.508-.334c-.618 1.027-1.292 1.77-2.034 2.782l.384.32 1.237 5.926-4.323 3.61-5.492-2.854-.39-.322c-.995.432-2.02.858-3.07 1.285l.113.563-1.854 5.833-5.438.727-3.464-5.094-.087-.283-3.36-.402-.15.256-4.57 4.133-5.113-1.988-.425-6.106.244-.52c-.92-.663-1.813-1.32-2.682-1.974l-.45.222-6.02 1.48-3.35-4.53 2.6-5.467.455-.22c-.485-1.16-.967-2.04-1.325-3.185l-.57.205-5.808-1.797-.79-5.598 5.105-3.52.478.06c.062-1.094.19-2.18.422-3.53l-.478-.056-4.13-4.623 2.055-4.983 6.065-.372.54.064c.584-.757 1.293-1.774 2.005-2.515l-.356-.594-1.237-5.927 4.287-3.34zm6.314 12.315c-8.294 6.438-9.754 18.646-3.212 26.862 6.54 8.212 18.567 9.65 26.862 3.213 8.294-6.44 9.755-18.65 3.213-26.863-6.543-8.213-18.57-9.652-26.862-3.213zM88.15 159.31c9.48-7.396 23.228-5.753 30.7 3.672 7.47 9.425 5.814 23.266-3.67 30.662-9.482 7.4-23.23 5.753-30.698-3.672-7.473-9.425-5.817-23.266 3.668-30.662zm3.984.75l5.194 6.404c2.563-1.07 5.37-1.285 7.922-.152l4.688-7.147c-5.586-2.595-12.252-2.295-17.804.895zm-4.29 3.34c-4.436 4.7-6.19 11.097-4.896 17.028l7.83-2.915c-.268-2.783.55-5.438 2.228-7.44l-5.162-6.672zm10.454 8.684c-2.38 1.916-2.8 5.444-.94 7.87 1.86 2.42 5.295 2.832 7.673.917 2.38-1.917 2.803-5.445.942-7.868-1.892-2.154-5.326-2.565-7.674-.918zm16.112-9.634l-4.652 6.875c.167.02.34.318.506.338 1.644 2.12 2.38 4.688 2.304 7.156l7.995 2.33c.678-5.146-.546-10.25-3.86-14.498-.684-.908-1.486-1.554-2.293-2.202zm-29.53 23.165c.518.888 1.065 1.778 1.748 2.688 3.313 4.248 8.047 6.742 13.02 7.063l-.225-8.285c-2.442-.29-4.713-1.664-6.357-3.788-.13-.293-.238-.307-.353-.594l-7.833 2.917zm26.2-3.47c-.652 1.022-1.546 2.018-2.666 2.983-1.122.965-2.34 1.372-3.617 1.768l.253 8.562c3.002-.74 5.91-2.045 8.44-3.94 2.53-1.9 4.44-4.427 5.677-7.305l-8.086-2.07z"/>
	</g>

		<path fill="#773D20" d="M68.39 135.265h5.05v92.646h-5.05z"/>
		<circle fill="#773D20" cx="70.915" cy="130.565" r="5.682"/>

	<g id="cog8" class="allAnimSvg">
		<path fill="#557C4A" d="M82.962 144.03l4.063-5.285-3.52-3.773c.22-.627.393-1.262.515-1.904l4.937-1.5-.868-6.61-5.146-.18c-.285-.593-.617-1.17-.987-1.717l2.42-4.544-5.285-4.063-3.765 3.512c-.63-.22-1.27-.39-1.912-.512l-1.5-4.926-6.61.863-.18 5.156c-.59.283-1.16.615-1.707.986l-4.555-2.432-4.063 5.285 3.527 3.786c-.214.618-.382 1.25-.502 1.888l-4.952 1.506.865 6.61 5.18.183c.283.578.603 1.145.97 1.684l-2.44 4.573 5.287 4.063 3.796-3.537c.614.214 1.242.382 1.875.505l1.51 4.96 6.61-.864.178-5.173c.585-.28 1.152-.605 1.7-.975l4.56 2.438zm-14.75-9.943c-1.944-1.494-2.31-4.28-.817-6.223 1.494-1.945 4.282-2.31 6.227-.816 1.94 1.492 2.308 4.28.813 6.225-1.495 1.943-4.282 2.304-6.223.814z"/>
	</g>

		<path fill="none" stroke="#664D25" stroke-miterlimit="10" d="M67.74 123.82s157.52-23.287 179.73-36.496c28.69 7.213-162.59 46.214-173.203 49.874-10.615 3.66-10.562-12.77-6.526-13.377z"/>
		<path fill="#773D20" d="M245.745 97.515h5.652v117.947h-5.652z"/>
		
	<!--EOLIENNE-->
	<g id="eoli" class="allAnimSvg">
		<path fill="#C5D362" d="M269.306 84.89l-9.27-12.734 15.38-11.198 9.27 12.733z"/>
		<path fill="#A6AD51" d="M259.895 91.74l-9.27-12.733 9.41-6.852 9.27 12.733zM275.415 60.953l9.27 12.733 18.925-13.778z"/>
		<path fill="#C5D362" d="M242.685 69.544l-12.734 9.27-11.198-15.382 12.734-9.27z"/>
		<path fill="#A6AD51" d="M249.558 78.96l-12.732 9.27-6.85-9.41 12.73-9.27zM231.5 54.157L217.72 35.23l1.045 28.197z"/>
		<path fill="#C5D362" d="M253.744 110.593l12.73-9.27 11.2 15.38-12.732 9.27z"/>
		<path fill="#A6AD51" d="M246.893 101.186l12.733-9.27 6.853 9.41-12.735 9.27zM264.95 125.987l13.778 18.925-1.044-28.195z"/>
		<path fill="#C5D362" d="M222.112 119.24l-9.27-12.732 15.38-11.2 9.27 12.733z"/>
		<path fill="#A6AD51" d="M228.236 95.294l9.41-6.854 9.272 12.73-9.41 6.854zM193.93 120.278l28.193-1.046-9.27-12.732z"/>
	</g>

		<circle fill="#773D20" cx="248.674" cy="89.99" r="11.625"/>

</svg>